<?xml version="1.0" standalone="no"?>
<!DOCTYPE svg PUBLIC "-//W3C//DTD SVG 1.1//EN" "http://www.w3.org/Graphics/SVG/1.1/DTD/svg11.dtd" >
<svg xmlns="http://www.w3.org/2000/svg" xmlns:xlink="http://www.w3.org/1999/xlink" version="1.1">
<metadata>
Created by FontForge 20170924 at Wed Nov 30 00:34:43 2011
 By www-data
Copyright (c) 2011, Sorkin Type Co (www.sorkintype.com)with Reserved Font Name "Arbutus".This Font Software is licensed under the SIL Open Font License,Version 1.1. This license is available with a FAQ at:http://scripts.sil.org/OFL
</metadata>
<defs>
<font id="Arbutus" horiz-adv-x="1707" >
  <font-face 
    font-family="Arbutus"
    font-weight="400"
    font-stretch="normal"
    units-per-em="2048"
    panose-1="2 0 0 0 0 0 0 0 0 0"
    ascent="1638"
    descent="-410"
    x-height="1070"
    cap-height="1440"
    bbox="-262 -550 3142 2010"
    underline-thickness="198"
    underline-position="-290"
    unicode-range="U+0001-FB02"
  />
<missing-glyph horiz-adv-x="0" 
 />
    <glyph glyph-name=".notdef" horiz-adv-x="0" 
 />
    <glyph glyph-name=".null" horiz-adv-x="0" 
 />
    <glyph glyph-name="nonmarkingreturn" horiz-adv-x="0" 
 />
    <glyph glyph-name="uni0001" horiz-adv-x="0" 
 />
    <glyph glyph-name="uni0002" horiz-adv-x="0" 
 />
    <glyph glyph-name="uni0003" horiz-adv-x="0" 
 />
    <glyph glyph-name="uni0004" horiz-adv-x="0" 
 />
    <glyph glyph-name="uni0005" horiz-adv-x="0" 
 />
    <glyph glyph-name="uni0006" horiz-adv-x="0" 
 />
    <glyph glyph-name="uni0007" horiz-adv-x="0" 
 />
    <glyph glyph-name="uni0008" horiz-adv-x="0" 
 />
    <glyph glyph-name="uni0009" unicode="&#x9;" horiz-adv-x="0" 
 />
    <glyph glyph-name="uni0010" horiz-adv-x="0" 
 />
    <glyph glyph-name="uni0011" horiz-adv-x="0" 
 />
    <glyph glyph-name="uni0012" horiz-adv-x="0" 
 />
    <glyph glyph-name="uni0013" horiz-adv-x="0" 
 />
    <glyph glyph-name="uni0014" horiz-adv-x="0" 
 />
    <glyph glyph-name="uni0015" horiz-adv-x="0" 
 />
    <glyph glyph-name="uni0016" horiz-adv-x="0" 
 />
    <glyph glyph-name="uni0017" horiz-adv-x="0" 
 />
    <glyph glyph-name="uni0018" horiz-adv-x="0" 
 />
    <glyph glyph-name="uni0019" horiz-adv-x="0" 
 />
    <glyph glyph-name="space" unicode=" " horiz-adv-x="838" 
 />
    <glyph glyph-name="exclam" unicode="!" horiz-adv-x="705" 
d="M226 440q0 3 -0.5 6.5t-0.5 8.5q0 13 0.5 29t0.5 35q0 30 -3 63.5t-13.5 64t-31 54t-55.5 34.5q18 3 28.5 27.5t10.5 83.5q0 38 -5 92.5t-15 129.5q-5 36 -12.5 89.5t-16.5 108.5t-19 102.5t-19 71.5q18 -6 50 -12t70 -11.5t78 -8.5t75 -3q39 0 82 3t82 8.5t71 11.5
t50 12q-14 -51 -26 -109t-22 -117t-17 -115.5t-12 -105.5t-7.5 -87.5t-2.5 -59.5q0 -59 10.5 -83.5t28.5 -27.5q-33 -12 -53.5 -40t-32 -63.5t-16 -73t-4.5 -68.5q0 -32 3 -50q-21 6 -47.5 10.5t-80.5 4.5t-80.5 -4.5t-47.5 -10.5zM106 0q11 23 20 68.5t9 111.5
q0 31 -2.5 60t-6.5 54t-9.5 44.5t-11.5 31.5q18 -6 45 -11.5t61 -9.5t72 -6.5t77 -2.5q36 0 73 1.5t70 5.5t59.5 9.5t42.5 13.5q-13 -24 -19 -77t-6 -113q0 -57 6 -103.5t19 -76.5q-16 5 -42.5 9.5t-60 8t-71.5 5.5t-77 2t-76.5 -2t-70.5 -5.5t-59 -8t-42 -9.5z" />
    <glyph glyph-name="quotedbl" unicode="&#x22;" horiz-adv-x="1360" 
d="M894 980q-4 39 -11 77t-19.5 74t-33 68.5t-51.5 60.5q11 15 16 41.5t5 58.5q0 36 -5 76.5t-12.5 78t-16.5 68t-17 47.5q36 -15 105 -22.5t150 -7.5q40 0 78.5 1.5t72 5.5t61 9.5t45.5 13.5q-8 -17 -17 -47.5t-16.5 -68t-12.5 -78t-5 -76.5q0 -32 5 -58.5t16 -41.5
q-32 -28 -52.5 -61.5t-33 -69.5t-19 -74t-10.5 -75q-5 3 -19 5t-30.5 3.5t-33.5 2.5t-28 1t-28 -1t-33.5 -2.5t-30.5 -4t-19 -4.5zM244 980q-4 39 -11 77t-19.5 74t-33 68.5t-51.5 60.5q11 15 16 41.5t5 58.5q0 36 -5 76.5t-12.5 78t-16.5 68t-17 47.5q36 -15 105 -22.5
t150 -7.5q40 0 78.5 1.5t72 5.5t61 9.5t45.5 13.5q-8 -17 -17 -47.5t-16.5 -68t-12.5 -78t-5 -76.5q0 -32 5 -58.5t16 -41.5q-32 -28 -52.5 -61.5t-33 -69.5t-19 -74t-10.5 -75q-5 3 -19 5t-30.5 3.5t-33.5 2.5t-28 1t-28 -1t-33.5 -2.5t-30.5 -4t-19 -4.5z" />
    <glyph glyph-name="numbersign" unicode="#" horiz-adv-x="1703" 
d="M320 0q12 17 25.5 56t26.5 90t25.5 110.5t22.5 118.5q-51 0 -98.5 -1t-87.5 -3.5t-69.5 -7t-44.5 -11.5q8 21 11.5 56t3.5 69q0 32 -4 67t-11 56q15 -8 48.5 -13t78 -7t97.5 -2.5t107 -0.5l46 298q-55 0 -108.5 -0.5t-99 -3t-79.5 -7t-50 -12.5q8 21 11.5 56t3.5 69
q0 32 -4 67t-11 56q17 -9 54.5 -13.5t87.5 -7t108.5 -2.5h117.5q12 80 21.5 157t9.5 133q0 25 -2.5 43.5t-7.5 29.5q10 -3 25.5 -6.5t35 -7t41 -5.5t42.5 -2q42 0 82.5 7.5t61.5 13.5q-13 -17 -26 -54t-25 -86.5t-23.5 -107t-21.5 -115.5h337q12 80 21.5 157t9.5 133
q0 25 -2.5 43.5t-7.5 29.5q10 -3 25.5 -6.5t35 -7t41 -5.5t42.5 -2q42 0 82.5 7.5t61.5 13.5q-13 -17 -26 -54t-25 -86.5t-23.5 -107t-21.5 -115.5q72 2 141.5 7t150.5 16q-8 -21 -11.5 -56t-3.5 -69q0 -32 4 -67t11 -56q-89 13 -167.5 17.5t-159.5 5.5l-50 -298
q84 1 164.5 5t172.5 18q-8 -21 -11.5 -56t-3.5 -69q0 -32 4 -67t11 -56q-100 14 -189 18.5t-182 4.5q-11 -75 -19 -150t-8 -132q0 -32 3 -56t10 -37q-35 14 -68.5 19.5t-75.5 5.5t-75 -5.5t-69 -19.5q12 17 25.5 56t26.5 90t25.5 110.5t22.5 118.5h-348q-11 -75 -19 -150
t-8 -132q0 -32 3 -56t10 -37q-35 14 -68.5 19.5t-75.5 5.5t-75 -5.5t-69 -19.5zM1001 577l46 298h-341l-50 -298h345z" />
    <glyph glyph-name="dollar" unicode="$" horiz-adv-x="1703" 
d="M223 0q2 8 5.5 29t6.5 49.5t5.5 61t2.5 63.5q0 83 -6.5 146t-13.5 86q57 -9 107 -12t98 -3q88 0 156 15q0 -44 21 -83.5t58.5 -68.5t90 -46t116.5 -17q43 0 87 4.5t79.5 19.5t57.5 43t22 75q0 34 -20.5 70.5t-64 65.5t-112 48t-164.5 19q-82 0 -162.5 -4.5t-174.5 -28.5
q-2 30 -21.5 66t-50 67.5t-70 53t-80.5 21.5h-10q12 5 21 23t14.5 44t8.5 57.5t3 64.5q0 83 -8.5 149t-24.5 94h7q29 0 64 15t70.5 39.5t69.5 55t60.5 62.5t43.5 62.5t19 53.5q23 -14 83 -28t145 -22q-2 44 -5 98t-8 103.5t-13 88t-19 50.5q21 -8 60.5 -11.5t88.5 -3.5
q29 0 58 0.5t54 2.5t44.5 4.5t28.5 7.5q-11 -15 -20.5 -53.5t-17 -86.5t-12.5 -100.5t-8 -95.5q42 8 78 19.5t62 26.5q8 -31 27 -63.5t45 -55.5q26 22 38 50t17 49q7 -5 19 -8.5t26 -6t27 -4t21 -1.5q73 0 136 20q-2 -8 -5 -31t-6 -53t-5 -64t-2 -65q0 -87 6.5 -152.5
t11.5 -89.5q-51 9 -96 12t-90 3q-88 0 -155 -15q0 46 -21 87t-58.5 72t-90 48.5t-116.5 17.5q-44 0 -87.5 -6.5t-79 -23t-57.5 -43.5t-22 -69q0 -35 17.5 -68t57.5 -59t105.5 -42t161.5 -16q40 0 87 0.5t93 3t87 7.5t71 14q3 -30 25 -68t55.5 -71.5t75.5 -56t84 -22.5h10
q-12 -5 -21 -23t-14.5 -44t-8.5 -57.5t-3 -64.5q0 -41 2 -79t6.5 -70t10.5 -56.5t14 -37.5h-7q-29 0 -64 -14t-71 -37.5t-70 -53t-61 -60.5t-43.5 -60.5t-17.5 -52.5q-22 14 -67 24.5t-117 16.5q3 -42 7.5 -88.5t11 -87.5t14.5 -73t18 -45q-9 4 -30.5 7t-49 4.5t-58.5 2.5
t-58 1q-49 0 -86 -3.5t-58 -11.5q10 11 18 41.5t14.5 71.5t11 87.5t7.5 90.5q-38 -5 -70 -14.5t-57 -23.5q-9 31 -27.5 60t-44.5 50q-27 -20 -38.5 -44.5t-16.5 -45.5q-8 4 -25.5 8.5t-39.5 8t-47 6t-49 2.5q-39 0 -76 -7t-62 -18z" />
    <glyph glyph-name="percent" unicode="%" horiz-adv-x="2211" 
d="M316 717q-8 39 -29 67.5t-50 46.5t-64.5 26.5t-73.5 8.5q20 23 30 72t10 118q0 72 -11 125t-29 75q81 16 138.5 64t74.5 120q37 -11 98 -20.5t160 -9.5q90 0 154 8.5t94 21.5q17 -72 74.5 -120t138.5 -64q-18 -22 -29 -75t-11 -125q0 -69 10 -118t30 -72q-37 0 -73 -8.5
t-65.5 -26.5t-50.5 -46.5t-28 -67.5q-31 11 -91 20.5t-159 9.5q-90 0 -154 -8.5t-94 -21.5zM367 0q13 3 53.5 43t100 106t133.5 153.5t155.5 185.5t165.5 201.5t162.5 202.5t147.5 188.5t120.5 158.5t81.5 113t30 53q10 -6 26.5 -10.5t37 -8t42.5 -5.5t44 -2q46 0 88.5 7.5
t74.5 18.5q-14 -8 -53.5 -49.5t-97.5 -107.5t-130.5 -152t-152 -182t-161.5 -197.5t-160 -198.5t-147 -185t-122.5 -157.5t-86.5 -116t-39 -59.5q-10 6 -26.5 10.5t-37 7.5t-42.5 5t-44 2q-46 0 -88.5 -7.5t-74.5 -17.5zM567 905q24 0 43.5 8.5t34 29.5t22 56t7.5 88
q0 90 -29 129t-78 39q-22 0 -41.5 -9.5t-34 -29.5t-23 -52t-8.5 -77q0 -53 8 -88t22 -56t34 -29.5t43 -8.5zM1179 149q20 23 30 72t10 118q0 72 -11 125t-29 75q81 16 138.5 64t74.5 120q37 -11 98 -20.5t160 -9.5q90 0 154 8.5t94 21.5q17 -72 74.5 -120t138.5 -64
q-18 -22 -29 -75t-11 -125q0 -69 10 -118t30 -72q-37 0 -73 -8.5t-65.5 -26.5t-50.5 -46.5t-28 -67.5q-31 11 -91 20.5t-159 9.5q-90 0 -154 -8.5t-94 -21.5q-8 39 -29 67.5t-50 46.5t-64.5 26.5t-73.5 8.5zM1540 370q0 -53 8 -88t22 -56t34 -29.5t43 -8.5q24 0 43.5 8.5
t34 29.5t22 56t7.5 88q0 90 -29 129t-78 39q-22 0 -41.5 -9.5t-34 -29.5t-23 -52t-8.5 -77z" />
    <glyph glyph-name="ampersand" unicode="&#x26;" horiz-adv-x="1868" 
d="M143 226q9 11 14 31.5t7.5 48.5t3 61t0.5 68q0 27 -1.5 58t-5 59.5t-8 51.5t-10.5 34q19 0 50 9.5t63.5 28t61 45t42.5 61.5q-16 21 -34 37.5t-35 29.5t-32.5 22.5t-27.5 16.5q6 14 11 36.5t8.5 51t5.5 60t2 63.5q0 57 -5.5 105.5t-16.5 70.5q5 -1 6 -1h6q27 0 68.5 15.5
t82 39.5t73 53.5t41.5 57.5q12 -8 35.5 -14.5t54.5 -11t67.5 -7t74.5 -2.5q33 0 63.5 2.5t56 7t44.5 11t28 14.5q10 -28 47.5 -58t84 -55t94 -41t78.5 -16h6.5t6.5 1q-11 -22 -16.5 -70.5t-5.5 -105.5q0 -32 2 -63.5t5.5 -60t8.5 -51t11 -36.5q-23 -9 -54 -27t-63.5 -42.5
t-63.5 -55.5t-54 -66q29 -30 61.5 -60t64.5 -56q41 31 75 71.5t58.5 85.5t38 93t13.5 93q0 34 -7 61q4 -5 21 -10t44 -9.5t61 -7.5t71 -3q27 0 58.5 1t62.5 4t59 7t48 10q-6 -11 -10.5 -30t-8 -40.5t-5 -44.5t-1.5 -42q0 -32 1.5 -56t4.5 -44t6 -37l6 -34q-29 7 -64.5 11.5
t-59.5 4.5q-44 0 -87 -18.5t-83 -48.5t-74.5 -68t-62.5 -77q21 -29 49 -57t62.5 -51t75 -37t87.5 -14q27 0 47.5 1t38 3t32.5 6t31 10q-7 -38 -11 -78t-4 -85t5 -84t10 -63q-20 7 -55.5 12t-76 8t-80 4t-66.5 1q-45 0 -87.5 -1.5t-76.5 -4.5t-57.5 -8t-30.5 -11
q-1 26 -11.5 50t-27 46t-37 41.5t-42.5 36.5q-38 -34 -76 -81t-62 -93q-35 17 -90 21t-130 4q-85 0 -152 -5t-112 -20q-26 38 -69.5 78t-91 73t-92.5 54t-72 21zM813 851q16 11 33 35.5t31.5 54t23.5 59.5t9 53q0 86 -41.5 128t-106.5 42q-60 0 -94.5 -36.5t-34.5 -99.5
q0 -37 18.5 -73.5t45.5 -68t58.5 -56.5t57.5 -38zM528 413q0 -48 13 -83t36.5 -58.5t55 -34.5t67.5 -11q38 0 68.5 12t53.5 30t40 38.5t29 38.5q-3 8 -22.5 28t-48.5 45.5t-63.5 54t-66.5 52.5t-58 40.5t-39 19.5q-32 -33 -48.5 -78.5t-16.5 -93.5z" />
    <glyph glyph-name="quotesingle" unicode="'" horiz-adv-x="680" 
d="M229 980q-4 39 -11 77t-19.5 74t-33 68.5t-51.5 60.5q11 15 16 41.5t5 58.5q0 36 -5 76.5t-12.5 78t-16.5 68t-17 47.5q36 -15 105 -22.5t150 -7.5q40 0 78.5 1.5t72 5.5t61 9.5t45.5 13.5q-8 -17 -17 -47.5t-16.5 -68t-12.5 -78t-5 -76.5q0 -32 5 -58.5t16 -41.5
q-32 -28 -52.5 -61.5t-33 -69.5t-19 -74t-10.5 -75q-5 3 -19 5t-30.5 3.5t-33.5 2.5t-28 1t-28 -1t-33.5 -2.5t-30.5 -4t-19 -4.5z" />
    <glyph glyph-name="parenleft" unicode="(" horiz-adv-x="1021" 
d="M160 158q11 15 17 45.5t9 65.5t3.5 68.5t0.5 55.5q0 78 -4.5 132t-14 92.5t-25.5 64.5t-39 47q23 21 39 49t25.5 67.5t14 92t4.5 122.5q0 25 -0.5 64t-3.5 78.5t-9 73.5t-17 49q37 5 72 23t65.5 44.5t56 59t44.5 67t31 68.5t15 63q37 -11 87.5 -18t111.5 -7q70 0 130 6.5
t97 18.5q-7 -17 -11 -48t-4 -67q0 -35 4.5 -61t10.5 -44q-41 0 -80 -9t-73.5 -35.5t-63 -75t-49 -126t-32 -189.5t-11.5 -266t11.5 -266t32 -190.5t49 -127.5t63 -76t73.5 -36.5t80 -9.5q-6 -18 -10.5 -44t-4.5 -61q0 -36 4 -67t11 -48q-37 12 -97 18.5t-130 6.5
q-61 0 -111.5 -7t-87.5 -18q-2 29 -13.5 65t-31 74t-45.5 74.5t-57 66.5t-66 50t-71 25z" />
    <glyph glyph-name="parenright" unicode=")" horiz-adv-x="1021" 
d="M861.01 158q-10.999 15 -16.999 45.5t-8.99902 65.5q-3 35 -3.5 68.5t-0.5 55.5q0 78 4.5 132q4.49902 54 13.999 92.5q9.49902 38.5 25.498 64.5t38.998 47q-22.999 21 -38.998 49t-25.498 67.5q-9.5 39.5 -13.999 92q-4.5 52.5 -4.5 122.5q0 25 0.5 64t3.5 78.5
q2.99902 39.5 8.99902 73.5t16.999 49q-36.998 5 -71.9961 23q-34.9971 18 -65.4951 44.5q-30.499 26.5 -55.9971 59t-44.4971 67t-30.998 68.5t-14.999 63q-36.998 -11 -87.4951 -18t-111.493 -7q-69.9951 0 -129.992 6.5q-59.9961 6.5 -96.9941 18.5q7 -17 11 -48
q3.99902 -31 3.99902 -67q0 -35 -4.49902 -61q-4.5 -26 -10.5 -44q40.998 0 79.9951 -9q38.998 -9 73.4961 -35.5t62.9961 -75t48.9971 -126q20.498 -77.5 31.998 -189.5q11.499 -112 11.499 -266t-11.499 -266q-11.5 -112 -31.998 -190.5q-20.499 -78.5 -48.9971 -127.5
t-62.9961 -76t-73.4961 -36.5q-38.9971 -9.5 -79.9951 -9.5q6 -18 10.5 -44q4.49902 -26 4.49902 -61q0 -36 -3.99902 -67q-4 -31 -11 -48q36.998 12 96.9941 18.5q59.9971 6.5 129.992 6.5q60.9961 0 111.493 -7t87.4951 -18q2 29 13.499 65t30.998 74t45.4971 74.5
t56.9971 66.5q30.998 30 65.9951 50q34.998 20 70.9961 25z" />
    <glyph glyph-name="asterisk" unicode="*" horiz-adv-x="1190" 
d="M442 680q-12 18 -35.5 40.5t-52.5 45.5t-62 46t-64 41t-57.5 30.5t-42.5 15.5q17 12 44.5 32.5t61 46.5t70 54.5t72 57.5t68.5 56t59 49q-48 4 -112 7.5t-128.5 6.5t-121 4.5t-88.5 1.5q20 23 41 70.5t38.5 101.5t28.5 105t11 80v12q25 -18 69 -51t94.5 -71t102 -76.5
t92.5 -67.5q-9 33 -20 73t-23 82l-24 84t-23.5 79.5t-20.5 68.5t-15 51q12 -6 31.5 -10t44 -7t52.5 -4.5t57 -1.5q54 0 104 5.5t79 17.5q-9 -30 -25 -84.5t-33.5 -117.5t-35 -127t-29.5 -114q41 28 94 67t105.5 78t98 73t71.5 53q-1 -4 -1 -12q0 -29 11.5 -80t29 -105
t38.5 -101.5t41 -70.5q-32 0 -87.5 -1.5t-119 -4t-127.5 -6t-113 -7.5q39 -29 90.5 -66t103.5 -73.5t97 -68t71 -49.5q-16 -3 -40 -17t-51.5 -34t-57 -45.5t-55.5 -50.5t-47 -49t-32 -42q-10 30 -30.5 81t-45 110t-50.5 118.5t-47 105.5q-19 -48 -42 -111t-44.5 -125.5
t-39.5 -116t-28 -83.5z" />
    <glyph glyph-name="plus" unicode="+" horiz-adv-x="1360" 
d="M516 125q8 38 12.5 75t7 76t3 81t0.5 91q0 24 -1 47t-3 46q-23 2 -46 3t-47 1q-49 0 -91 -0.5t-81 -3t-76 -7t-75 -12.5q6 17 10.5 61.5t4.5 101.5q0 15 -1 38t-3 47t-4.5 46t-6.5 34q38 -8 75 -12.5t76 -7t81 -3t91 -0.5q24 0 47 1t46 4q2 22 3 45t1 47q0 49 -0.5 91
t-3 81t-7 76t-12.5 75q13 -3 34.5 -5.5t45.5 -5t47 -3.5t38 -1q57 0 101.5 4t61.5 11q-8 -38 -12.5 -75t-7 -76t-3 -81t-0.5 -91q0 -24 1.5 -47t3.5 -45q22 -2 45 -3.5t47 -1.5q49 0 91 0.5t81 3t76 7t75 12.5q-3 -13 -5.5 -34.5t-5 -45.5t-3.5 -47t-1 -38q0 -57 4 -101.5
t11 -61.5q-38 8 -75 12.5t-76 7t-81 3t-91 0.5q-24 0 -47 -1t-45 -3q-3 -23 -4 -46t-1 -47q0 -49 0.5 -91t3 -81t7 -76t12.5 -75q-17 6 -61.5 10.5t-101.5 4.5q-15 0 -38 -1t-47 -3t-46 -4.5t-34 -6.5z" />
    <glyph glyph-name="comma" unicode="," horiz-adv-x="680" 
d="M91 0q12 27 20.5 80.5t8.5 129.5q0 35 -2.5 68.5t-6.5 62.5t-9.5 52t-11.5 37q18 -6 45 -11.5t61 -9.5t72 -6.5t77 -2.5q36 0 73 1.5t70 5.5t59.5 9.5t42.5 13.5q-7 -13 -12.5 -39t-9.5 -59.5t-6 -73t-2 -79.5q0 -66 6.5 -126t21.5 -96q-45 -8 -84.5 -43.5t-70.5 -81
t-52.5 -91.5t-29.5 -74q-12 15 -36.5 28.5t-52 24t-53.5 17t-42 6.5h-8q12 12 26 33.5t25.5 48.5t19.5 59t8 65q0 17 -2.5 35t-8.5 36q-45 -3 -80.5 -8.5t-55.5 -11.5z" />
    <glyph glyph-name="hyphen" unicode="-" horiz-adv-x="1021" 
d="M99 472q6 21 10.5 70t4.5 113q0 16 -1 42t-2.5 53t-4.5 51.5t-7 38.5q27 -8 52.5 -12.5t52 -7t55.5 -3t63 -0.5h376q34 0 63 0.5t55.5 3t52 7t52.5 12.5q-4 -14 -7 -38.5t-4.5 -51.5t-2.5 -53t-1 -42q0 -64 4.5 -113t10.5 -70q-27 8 -52.5 12.5t-52.5 7t-56 3t-62 0.5
h-376q-34 0 -63 -0.5t-55.5 -3t-52 -7t-52.5 -12.5z" />
    <glyph glyph-name="period" unicode="." horiz-adv-x="680" 
d="M91 0q12 27 20.5 80.5t8.5 129.5q0 35 -2.5 68.5t-6.5 62.5t-9.5 52t-11.5 37q18 -6 45 -11.5t61 -9.5t72 -6.5t77 -2.5q36 0 73 1.5t70 5.5t59.5 9.5t42.5 13.5q-6 -14 -10.5 -37.5t-8 -52.5t-5 -62.5t-1.5 -67.5q0 -66 6 -120.5t19 -89.5q-16 5 -42.5 9.5t-60 8
t-71.5 5.5t-77 2t-76.5 -2t-70.5 -5.5t-59 -8t-42 -9.5z" />
    <glyph glyph-name="slash" unicode="/" horiz-adv-x="1021" 
d="M36 -150q13 9 28 33.5t30.5 59t31.5 75.5t30.5 83t28 82.5l24.5 73.5l310 974q15 48 30 99.5t26.5 99.5t19 89t7.5 69q0 25 -6 37q30 -8 78 -14t117 -6t116 6t77 14q-13 -9 -28 -33.5t-31 -58.5t-32 -75.5t-31 -83.5t-28 -82.5t-23 -73.5l-310 -974q-15 -49 -30 -100.5
t-26.5 -99t-19 -89t-7.5 -69.5q0 -24 6 -36q-18 6 -42.5 10t-51 6t-53 3t-47.5 1q-22 0 -48 -1t-52 -3t-50.5 -6t-43.5 -10z" />
    <glyph glyph-name="zero" unicode="0" horiz-adv-x="1698" 
d="M144 268q9 21 18 55.5t16.5 78t12 93t4.5 99.5q0 63 -17 96.5t-49 44.5q18 5 31 23t22 44t13 57.5t4 64.5q0 86 -14.5 152.5t-40.5 95.5h6q28 0 62 15t68 39.5t66.5 55t58 62.5t42 62.5t18.5 53.5q17 -9 53.5 -18.5t87 -18t112.5 -13.5t131 -5t131 5t112.5 13.5t87 18
t53.5 18.5q2 -23 18 -53.5t41.5 -62.5t58 -62.5t66.5 -55t68 -39.5t62 -15h7q-26 -29 -40.5 -95.5t-14.5 -152.5q0 -33 4 -64.5t13 -57.5t22 -44t31 -23q-32 -11 -49 -44.5t-17 -96.5q0 -50 4.5 -99.5t12 -93t16.5 -78t18 -55.5q-44 -6 -95 -34t-97 -69t-80 -89.5t-43 -95.5
q-17 9 -54.5 17t-89 14.5t-114.5 10t-132 3.5t-132 -3.5t-115 -10t-89 -14.5t-54 -17q-9 47 -43 95.5t-80 89.5t-97.5 69t-94.5 34zM849 220q54 0 99 19.5t77.5 73t50.5 147t18 242.5q0 117 -9.5 200t-26 139.5t-39.5 90t-50.5 51t-58 22.5t-61.5 5q-32 0 -62 -5
t-57.5 -22.5t-50.5 -51t-39.5 -90t-26 -139.5t-9.5 -200q0 -149 18 -242.5t50.5 -147t77.5 -73t99 -19.5z" />
    <glyph glyph-name="one" unicode="1" horiz-adv-x="1021" 
d="M80 0q6 25 11.5 62t5.5 74q0 35 -3.5 67.5t-13.5 56.5q42 0 87 7t82 23.5t60.5 45t23.5 71.5v94q0 33 -5 68.5t-14 65t-23 49t-32 21.5q18 3 32 20t23 40.5t14 50t5 47.5q0 36 -9 59.5t-28 37.5t-49.5 19.5t-72.5 5.5q-11 0 -28 -0.5t-34 -1.5t-32 -2.5t-21 -2.5
q2 12 4 30.5t3.5 38.5t2.5 40.5t1 36.5q0 35 -3.5 74t-9.5 64q58 0 113 6.5t102.5 26.5t85 57t61.5 98q16 -5 37 -8t44 -4.5t47 -2t45 -0.5q22 0 50 0.5t55 2t49 4.5t33 8q-3 -29 -6 -72t-5.5 -95t-4 -111.5t-1.5 -120.5v-150q0 -36 7 -70t19 -61t28 -44.5t34 -20.5
q-18 -2 -34 -21.5t-28 -49t-19 -65t-7 -68.5v-94q0 -43 17.5 -71.5t49 -45t74.5 -23.5t95 -7q-4 -24 -9.5 -56.5t-5.5 -67.5q0 -37 4 -74t11 -62q-38 5 -91.5 9.5t-116.5 8t-131.5 5.5t-137.5 2q-66 0 -130 -1.5t-121 -5t-105.5 -8t-84.5 -10.5z" />
    <glyph glyph-name="two" unicode="2" horiz-adv-x="1529" 
d="M112 5q3 14 7.5 41t8 62t6.5 75t3 80q0 52 -6.5 96.5t-18.5 69.5q26 1 65 14.5t82 35.5t86 50t77 58.5t55.5 60.5t21.5 56t-24 44q22 -8 48 -8q38 0 84.5 14t94.5 37.5t92.5 56t79.5 69t56 75.5t21 77q0 78 -45.5 110.5t-153.5 32.5q-77 0 -123.5 -21.5t-71.5 -62.5
t-33 -101t-8 -137q-39 8 -91 14t-109 6q-54 0 -104.5 -6t-99.5 -14q3 16 7.5 34t8 44t6.5 63t3 93q0 20 -1.5 42t-5 42.5t-8 38.5t-10.5 30q77 0 136.5 19.5t103.5 47.5t74 58.5t48 52.5q16 -8 50.5 -16t83 -14.5t110 -10.5t130.5 -4q60 0 116 3.5t102 9t78.5 13t45.5 15.5
q0 -40 13.5 -82t36 -82t51.5 -76t60.5 -65.5t62.5 -50.5t57 -30q-18 -14 -41.5 -37t-48 -51.5t-48.5 -60.5t-42.5 -63.5t-30 -61t-11.5 -52.5q0 -36 31 -49q-50 -3 -111.5 -24t-127 -54.5t-131.5 -76t-125.5 -88.5t-108.5 -92t-81 -87q58 -23 116.5 -33t118.5 -10
q44 0 76 10.5t53.5 27t34.5 38t20.5 43t9.5 41.5t2 35q39 -8 85 -11.5t97 -3.5q48 0 97 3.5t98 11.5q-3 -16 -5.5 -47.5t-5 -71t-3.5 -83t-1 -83.5q0 -45 5 -79t10 -51q-32 11 -82.5 18t-128.5 7q-27 0 -60.5 -3.5t-66.5 -10t-60.5 -14.5t-42.5 -17q-27 13 -76 21.5
t-108 13.5t-120.5 7.5t-113.5 2.5q-66 0 -121.5 -0.5t-106.5 -3t-100.5 -7.5t-103.5 -14z" />
    <glyph glyph-name="three" unicode="3" horiz-adv-x="1529" 
d="M104 159q5 9 8.5 27.5t5 41t2 46t0.5 41.5q0 64 -4 115.5t-12 89.5q51 -8 103.5 -11.5t106.5 -3.5q28 0 58 1t58.5 3t53.5 4.5t45 6.5q0 -152 57.5 -226t168.5 -74q49 0 89 15t67.5 41t42.5 60.5t15 73.5q0 50 -17 87t-47 61t-71 36t-89 12q-39 0 -73 -2t-69 -4
q6 23 11 52.5t5 60.5q0 33 -5 65.5t-11 58.5q48 -3 105 -3q44 0 89 11.5t81 36t58.5 62t22.5 90.5q0 86 -43 136t-141 50q-51 0 -96 -16t-78 -53t-52.5 -98.5t-19.5 -152.5q-78 15 -193 15q-54 0 -106.5 -3.5t-103.5 -11.5q6 32 10.5 88.5t4.5 131.5q0 20 -1.5 45t-4 48
t-5 42t-4.5 27q77 0 139 18t108.5 44t78.5 55t50 51q15 -8 46.5 -16t72.5 -14.5t89 -10.5t97 -4q45 0 90 4t84.5 10.5t69.5 14.5t45 16q12 -28 45.5 -59t78 -56.5t94 -42.5t92.5 -17q-6 -11 -12 -34t-10.5 -51.5t-7 -60t-2.5 -59.5q0 -64 9 -109t23 -73q-48 -17 -106 -49
t-107 -85q23 -28 58 -49.5t71.5 -36.5t70.5 -22.5t55 -7.5q-7 -11 -12 -35.5t-8.5 -55t-5 -63t-1.5 -59.5q0 -36 0.5 -64.5t3.5 -52.5t8.5 -44.5t14.5 -38.5q-27 0 -60.5 -10.5t-69 -28t-71 -41t-66 -49.5t-54.5 -53.5t-36 -52.5q-14 7 -43.5 13.5t-68.5 11t-83.5 7.5
t-87.5 3q-48 0 -99 -2.5t-96.5 -7t-80.5 -11t-51 -14.5q-18 21 -50.5 50.5t-79 55.5t-108.5 44.5t-139 18.5z" />
    <glyph glyph-name="four" unicode="4" horiz-adv-x="1529" 
d="M87 410q4 10 5.5 23.5t1.5 29.5q0 35 -7 72.5t-17 73t-21.5 65.5t-21.5 50q45 16 103 64.5t119 115.5t120 144.5t105 151.5t74 137.5t28 102.5q10 -4 31 -8.5t48 -8t59 -6t65 -2.5q29 0 68 2.5t78 7t73.5 11t54.5 14.5q-13 -20 -18.5 -63.5t-5.5 -94.5q0 -36 2.5 -71.5
t8 -65t13 -50t16.5 -26.5q-20 2 -38 3t-35 1q-45 0 -81 -7.5t-69 -21t-65 -32.5t-70 -42q-103 -63 -159.5 -147t-69.5 -169q37 -10 62.5 -12.5t48.5 -2.5q95 0 149.5 3.5t81.5 17.5t34 42t7 78q0 35 -1.5 68.5t-9.5 71.5q24 -8 46.5 -13t45 -7.5t46.5 -3.5t52 -1q36 0 62 2
t46.5 5.5t38.5 8t39 9.5q-6 -53 -14.5 -93.5t-8.5 -76.5q0 -27 1.5 -48t11 -36t31 -23t62.5 -8h29t38.5 0.5t42 1.5t39.5 3q-7 -18 -11 -52.5t-4 -82.5q0 -23 1 -39t3.5 -27t5 -19t5.5 -15q-51 8 -88 11t-62 3q-46 0 -76 -10.5t-30 -41.5v-54q0 -41 53.5 -52t163.5 -11
q-5 -24 -10 -56.5t-5 -67.5q0 -37 4 -74t11 -62q-33 5 -92.5 9.5t-130 8t-145 5.5t-136.5 2q-73 0 -131 -1.5t-106 -5t-87.5 -8t-73.5 -10.5q7 25 11 62t4 74q0 35 -3.5 67.5t-11.5 56.5q100 0 163.5 2t100 9t50 19t13.5 33l-1 94q-30 4 -65.5 7t-75 4.5t-81 2t-81.5 0.5
q-80 0 -140.5 -0.5t-105.5 -2t-77.5 -3t-56.5 -4t-42 -5.5t-35 -6z" />
    <glyph glyph-name="five" unicode="5" horiz-adv-x="1529" 
d="M142 139q8 37 8 100q0 28 -1.5 58.5t-4 59t-5.5 53t-6 41.5q54 -8 109.5 -12t112.5 -4t113.5 4t96.5 12q-1 -8 -1 -14.5v-13.5q0 -59 18 -98.5t46.5 -62.5t64.5 -32.5t72 -9.5q47 0 87 10.5t69.5 37t46 71t16.5 112.5q0 53 -15.5 94.5t-44 70t-69 43.5t-89.5 15
q-67 0 -113.5 -21.5t-75.5 -52.5q-20 8 -48.5 12t-59 6t-60.5 2h-53q-34 0 -62 -1.5t-53 -4.5t-48.5 -6.5t-47.5 -7.5q6 12 11 50.5t8 93.5t5 121.5t2 134.5q0 72 -2 142.5t-6 130.5t-8.5 104t-9.5 63q24 -6 64.5 -11t91.5 -9t109 -6.5t117 -4.5t115 -3t103 -1q41 0 102 1
t129 3t137 5t127.5 7t99.5 8.5t54 10.5q-3 -8 -5.5 -32.5t-5 -55t-3.5 -62t-1 -53.5q0 -40 1 -69t3.5 -51t5 -39t5.5 -33q-56 8 -99 11.5t-91 3.5q-82 0 -141.5 -3.5t-92.5 -11.5q0 44 -6 75.5t-27 51.5t-62.5 29t-111.5 9q-33 0 -79.5 -10.5t-103.5 -38.5q0 -30 0.5 -68
t1 -77.5t1 -78t0.5 -71.5q60 4 106 27t64 52q16 -7 40.5 -11.5t54.5 -7.5t63.5 -4.5t67.5 -1.5q31 0 62.5 2.5t59 6t49.5 8t34 8.5q8 -42 38.5 -89.5t69.5 -88t78.5 -67t65.5 -26.5q-7 -12 -12 -35.5t-8 -54.5t-4.5 -66t-1.5 -70q0 -36 0.5 -70t3.5 -63.5t8 -54t14 -40.5
q-19 0 -50.5 -10.5t-68.5 -28.5t-76 -41.5t-73 -49t-59.5 -51.5t-35.5 -49q-14 6 -45 12t-71.5 11.5t-86.5 8.5t-90 3t-87.5 -2.5t-81.5 -7t-67.5 -11t-45.5 -14.5q-18 22 -46 48t-70.5 48.5t-101.5 37.5t-138 15z" />
    <glyph glyph-name="six" unicode="6" horiz-adv-x="1529" 
d="M101 208q8 11 15.5 43t13.5 77.5t10 100.5t4 112q0 73 -20.5 116.5t-56.5 49.5q22 2 37 22.5t24 52t13 71t4 78.5q0 94 -14.5 157t-26.5 83q46 8 99 30.5t102.5 58t91 83.5t65.5 107q13 -10 48 -18.5t81.5 -14.5t100 -9t103.5 -3q41 0 81 3t75 9t62.5 14.5t42.5 18.5
q18 -22 46 -48t69.5 -48.5t98 -37.5t131.5 -15q-3 -17 -5.5 -43t-2.5 -57q0 -28 1.5 -58.5t4 -59t5.5 -53.5t6 -41q-54 8 -114.5 12t-117.5 4t-108.5 -4t-91.5 -12q0 67 -11.5 112t-34 71t-56 37t-77.5 11q-54 0 -96 -11t-71.5 -37t-44.5 -69.5t-15 -108.5v-191q33 14 65 38
t45 50q30 -14 92 -19.5t147 -5.5q42 0 81.5 1.5t72 3.5t56 5.5t34.5 7.5q9 -42 45 -78.5t81.5 -63.5t91 -43t73.5 -16q-7 -12 -12 -34t-8 -51t-4.5 -62.5t-1.5 -68.5q0 -36 1 -71.5t4 -67t8 -57t13 -41.5q-51 -7 -110 -34t-111.5 -62.5t-92 -74.5t-52.5 -69q-13 5 -41 11
t-65.5 11.5t-80.5 9t-85 3.5q-45 0 -89 -3t-82 -8.5t-67 -11.5t-44 -12q-14 22 -53 56.5t-97 68.5t-131 60.5t-154 32.5zM579 450q0 -66 15.5 -110.5t43.5 -71t67 -37.5t87 -11q45 0 82 11t63.5 37.5t41.5 71t15 110.5q0 63 -15 104.5t-41.5 66t-63.5 34.5t-82 10
q-48 0 -87 -10t-67 -34.5t-43.5 -66t-15.5 -104.5z" />
    <glyph glyph-name="seven" unicode="7" horiz-adv-x="1360" 
d="M235 0q8 25 12.5 62t4.5 74q0 35 -4 67.5t-13 56.5q92 0 156.5 35.5t105 88.5t58.5 115t18 116q0 42 -10 73.5t-29 44.5q59 18 109 56t90.5 92t70.5 122.5t49 148.5q-17 3 -38 5t-49.5 3.5t-67 2.5t-90.5 1q-53 0 -86.5 -19t-52.5 -49.5t-26.5 -69t-7.5 -77.5v-21
t0.5 -27t1.5 -27.5t3 -23.5q-78 15 -177 15q-23 0 -51 -1t-58 -2.5t-59 -4.5t-54 -7q3 16 7.5 52.5t8.5 81t7 91.5t3 85q0 31 -1.5 68t-4.5 75t-8 73.5t-12 63.5q18 -5 42 -8.5t49.5 -6t50.5 -4t45 -1.5q24 0 54 1.5t58 4t50 6t30 8.5q3 -12 8.5 -27t14.5 -30t22.5 -29
t33.5 -24q28 18 51 45t35 65q66 -20 142 -27.5t152 -7.5q58 0 114.5 1t105 5t87 11t59.5 18q-1 -4 -1 -14q0 -29 10 -67.5t27.5 -76.5t41.5 -69t52 -44q-45 -8 -82 -29.5t-66.5 -52t-51.5 -66.5t-36.5 -73t-22 -73t-7.5 -65t6.5 -49t20.5 -28q-18 -5 -44 -21.5t-54.5 -42.5
t-56.5 -60t-50.5 -74t-36.5 -84.5t-14 -91.5q0 -23 8.5 -41t29.5 -31t55.5 -20t86.5 -7q-5 -24 -10 -56.5t-5 -67.5q0 -37 4.5 -74t10.5 -62q-37 5 -84.5 9.5t-101.5 8t-113 5.5t-119 2q-56 0 -114 -1.5t-112 -5t-101 -8t-80 -10.5z" />
    <glyph glyph-name="eight" unicode="8" horiz-adv-x="1529" 
d="M57 225q9 18 16.5 46.5t12 62t7 70t2.5 71.5q0 54 -5 98t-16 65q22 0 56 7.5t71 22.5t72.5 36.5t59.5 49.5q-51 54 -110 86.5t-107 47.5q7 14 12 37t8.5 51t5 59.5t1.5 63.5q0 57 -7 105.5t-20 70.5q44 0 93 17t92.5 42.5t76 56.5t44.5 59q16 -8 52 -16t83 -14.5
t100.5 -10.5t106.5 -4q52 0 106 4t101 10.5t82.5 14.5t51.5 16q12 -29 45 -59.5t76.5 -56.5t92 -42.5t92.5 -16.5q-12 -22 -19 -70.5t-7 -105.5q0 -32 1.5 -63.5t4.5 -60t8 -51t12 -36.5q-48 -15 -107 -47.5t-110 -86.5q24 -28 59.5 -49.5t73 -36.5t72 -22.5t55.5 -7.5
q-12 -21 -16.5 -65t-4.5 -98q0 -35 2.5 -71.5t7.5 -70t12 -62t17 -46.5q-28 0 -63 -10.5t-72 -28t-73.5 -41t-68.5 -49.5t-57 -53.5t-38 -52.5q-15 7 -50 13.5t-81.5 12t-100.5 8.5t-105 3t-104.5 -3t-100 -8.5t-81.5 -12t-49 -13.5q-20 38 -64.5 79.5t-98.5 76t-110 57
t-98 22.5zM764 831q48 0 87.5 8.5t67.5 30.5t43.5 60t15.5 98q0 43 -13 78.5t-39.5 60.5t-67 39t-94.5 14q-52 0 -90.5 -14t-63.5 -39t-37.5 -60.5t-12.5 -78.5q0 -60 15 -98t42 -60t64.5 -30.5t82.5 -8.5zM534 413q0 -56 17.5 -93.5t48.5 -59.5t73 -31t91 -9t90.5 9
t72.5 31t48.5 59.5t17.5 93.5q0 109 -58.5 155.5t-170.5 46.5t-171 -46.5t-59 -155.5z" />
    <glyph glyph-name="nine" unicode="9" horiz-adv-x="1529" 
d="M150 139q8 37 8 100q0 28 -1.5 58.5t-3.5 59t-5 53t-6 41.5q51 -8 104 -12t107 -4t108 4t92 12q0 -68 13.5 -112.5t38.5 -70.5t60 -37t79 -11q52 0 91 11t64.5 37t38 69.5t12.5 108.5v192q-20 -7 -41 -17t-39.5 -21.5t-33 -24.5t-21.5 -26q-29 14 -87.5 19.5t-139.5 5.5
q-37 0 -71 -1.5t-62.5 -4t-49 -5.5t-30.5 -7q-5 28 -22.5 53.5t-42.5 48t-55 40.5t-59 31.5t-55 20.5t-43 7q6 12 10.5 34.5t8 51t5 62t1.5 68.5q0 36 -1 71t-3.5 66.5t-7.5 57.5t-13 42q49 7 105 34t106 62.5t87.5 74.5t49.5 69q13 -6 41 -14t65 -14.5t79.5 -11.5t84.5 -5
t85.5 4t82 10.5t68 14.5t43.5 16q13 -22 48.5 -56.5t88.5 -68.5t121 -60.5t145 -32.5q-7 -11 -14 -43t-13 -77.5t-9.5 -100.5t-3.5 -112q0 -73 19.5 -116.5t53.5 -49.5q-21 -2 -35 -22.5t-23 -52t-12.5 -71t-3.5 -78.5q0 -47 4 -86.5t10 -70.5t13 -52t12 -31
q-45 -8 -93.5 -30.5t-94 -58t-83.5 -83.5t-61 -107q-12 8 -47 14.5t-81.5 11t-99 7t-98.5 2.5q-41 0 -82 -2.5t-77.5 -7t-65.5 -11t-44 -14.5q-17 22 -42 48t-63 48.5t-90.5 37.5t-123.5 15zM741 766q45 0 82 9.5t64 34t41.5 66t14.5 104.5q0 69 -14.5 115.5t-41.5 74
t-64 39t-82 11.5t-82 -11.5t-64 -39t-41.5 -74t-14.5 -115.5q0 -63 14.5 -104.5t41.5 -66t64 -34t82 -9.5z" />
    <glyph glyph-name="colon" unicode=":" horiz-adv-x="680" 
d="M91 640q12 27 20.5 80.5t8.5 129.5q0 35 -2.5 68.5t-6.5 62.5t-9.5 52t-11.5 37q18 -6 45 -11.5t61 -9.5t72 -6.5t77 -2.5q36 0 73 1.5t70 5.5t59.5 9.5t42.5 13.5q-6 -14 -10.5 -37.5t-8 -52.5t-5 -62.5t-1.5 -67.5q0 -66 6 -120.5t19 -89.5q-16 5 -42.5 9.5t-60 8
t-71.5 5.5t-77 2t-76.5 -2t-70.5 -5.5t-59 -8t-42 -9.5zM91 0q12 27 20.5 80.5t8.5 129.5q0 35 -2.5 68.5t-6.5 62.5t-9.5 52t-11.5 37q18 -6 45 -11.5t61 -9.5t72 -6.5t77 -2.5q36 0 73 1.5t70 5.5t59.5 9.5t42.5 13.5q-6 -14 -10.5 -37.5t-8 -52.5t-5 -62.5t-1.5 -67.5
q0 -66 6 -120.5t19 -89.5q-16 5 -42.5 9.5t-60 8t-71.5 5.5t-77 2t-76.5 -2t-70.5 -5.5t-59 -8t-42 -9.5z" />
    <glyph glyph-name="semicolon" unicode=";" horiz-adv-x="680" 
d="M91 640q12 27 20.5 80.5t8.5 129.5q0 35 -2.5 68.5t-6.5 62.5t-9.5 52t-11.5 37q18 -6 45 -11.5t61 -9.5t72 -6.5t77 -2.5q36 0 73 1.5t70 5.5t59.5 9.5t42.5 13.5q-6 -14 -10.5 -37.5t-8 -52.5t-5 -62.5t-1.5 -67.5q0 -66 6 -120.5t19 -89.5q-16 5 -42.5 9.5t-60 8
t-71.5 5.5t-77 2t-76.5 -2t-70.5 -5.5t-59 -8t-42 -9.5zM91 0q12 27 20.5 80.5t8.5 129.5q0 35 -2.5 68.5t-6.5 62.5t-9.5 52t-11.5 37q18 -6 45 -11.5t61 -9.5t72 -6.5t77 -2.5q36 0 73 1.5t70 5.5t59.5 9.5t42.5 13.5q-7 -13 -12.5 -39t-9.5 -59.5t-6 -73t-2 -79.5
q0 -66 7.5 -124.5t22.5 -94.5q-45 -8 -78 -32.5t-54.5 -56.5t-32 -67t-10.5 -64q-5 3 -16.5 5t-26 3.5t-30 2.5t-28.5 1q-40 0 -72 -2.5t-45 -9.5q15 26 22.5 71.5t7.5 93.5q0 36 -6 67t-17 46q-37 -3 -66 -8t-47 -10z" />
    <glyph glyph-name="less" unicode="&#x3c;" horiz-adv-x="1536" 
d="M1245 1281l3 4zM120 588q8 14 10.5 27.5t2.5 25.5t-2.5 25.5t-10.5 27.5q35 7 99 33t146 64t175.5 85t187.5 97t181.5 99t158 90.5t118 73t59.5 45.5q-8 -12 -12.5 -37t-6.5 -54t-2.5 -57.5t-0.5 -48.5q0 -18 1.5 -45.5t5 -54.5t8 -49.5t10.5 -31.5q-3 1 -10 1
q-20 0 -54.5 -12.5t-78.5 -34t-94 -48.5t-101.5 -56.5t-101.5 -58.5t-93 -53q43 -25 93 -54t101.5 -58t101.5 -56.5t94 -48.5t78.5 -33.5t54.5 -12.5q7 0 10 1q-6 -9 -10.5 -31.5t-8 -49.5t-5 -54.5t-1.5 -45.5q0 -20 0.5 -48.5t2.5 -58t6 -54t12 -36.5q-13 14 -61 45.5
t-118.5 73.5t-158 91t-181 98.5t-186.5 96.5t-174.5 85.5t-145.5 64t-99 32.5zM1245 1l3 -4z" />
    <glyph glyph-name="equal" unicode="=" horiz-adv-x="1360" 
d="M119 760q6 17 10.5 59t4.5 96q0 14 -1 35.5t-3 44t-4.5 43t-6.5 32.5q38 -8 75 -12.5t76 -7t81 -3t91 -0.5h476q49 0 91 0.5t81 3t76 7t75 12.5q-3 -12 -5.5 -32.5t-5 -43t-3.5 -44t-1 -35.5q0 -54 4 -96t11 -59q-38 8 -75 13t-76 7.5t-81 3.5t-91 1h-476q-49 0 -91 -1
t-81 -3.5t-76 -7.5t-75 -13zM119 280q6 17 10.5 59t4.5 96q0 14 -1 35.5t-3 44t-4.5 43t-6.5 32.5q38 -8 75 -12.5t76 -7t81 -3t91 -0.5h476q49 0 91 0.5t81 3t76 7t75 12.5q-3 -12 -5.5 -32.5t-5 -43t-3.5 -44t-1 -35.5q0 -54 4 -96t11 -59q-38 8 -75 13t-76 7.5t-81 3.5
t-91 1h-476q-49 0 -91 -1t-81 -3.5t-76 -7.5t-75 -13z" />
    <glyph glyph-name="greater" unicode="&#x3e;" horiz-adv-x="1536" 
d="M291 1281q-3 1 -3 4zM291 1q8 12 12.5 37t6.5 54t2.5 57.5t0.5 48.5q0 18 -1.5 45.5t-5 54.5t-8 49.5t-10.5 31.5q3 -1 9 -1q20 0 54.5 12.5t78 33.5t94 48.5t102 56.5t101.5 58t93 54q-43 24 -93 53t-101 58t-101.5 56.5t-94 48.5t-78 34t-54.5 13q-7 0 -10 -1
q6 9 10.5 31.5t8 49.5t5 54.5t1.5 45.5q0 20 -0.5 48.5t-2.5 57t-6.5 53.5t-12.5 37q13 -14 60.5 -45.5t118.5 -73t159 -90.5t181 -98.5t186.5 -96.5t175 -85.5t145.5 -64t99 -32.5q-8 -14 -10.5 -27.5t-2.5 -25.5t2.5 -25.5t10.5 -27.5q-35 -7 -99 -32.5t-145.5 -64
t-174.5 -85.5t-186.5 -96.5t-181 -98.5t-158.5 -91t-119 -73.5t-61 -45.5zM288 -3q0 2 3 4z" />
    <glyph glyph-name="question" unicode="?" horiz-adv-x="1364" 
d="M495 436q0 36 -12 62t-30 43.5t-39 26.5t-39 11q14 11 26 29.5t20.5 42t13.5 49.5t5 51q0 18 -2.5 35t-8.5 31q71 0 139.5 18.5t122 52t86.5 81t33 105.5q0 146 -128 146q-40 0 -75.5 -17t-62.5 -55t-43 -99.5t-16 -151.5q-38 8 -87 12t-103 4q-51 0 -102 -4t-99 -12
q3 16 6 45t5 65t3.5 75.5t1.5 76.5q0 42 -2 74t-6 49q73 0 129.5 18t98.5 44t70 55t45 51q14 -12 39.5 -20.5t59.5 -14t73.5 -8t81.5 -2.5q36 0 72.5 2.5t68 8t55 14t34.5 20.5q7 -29 34 -60.5t67 -57.5t88 -43.5t97 -17.5q-11 -22 -18 -70.5t-7 -105.5q0 -64 5.5 -118.5
t19.5 -82.5q-29 -1 -72 -13t-90.5 -32.5t-95 -48.5t-85.5 -62t-61.5 -72t-23.5 -79q0 -52 9.5 -86t23.5 -63q-16 3 -31.5 6t-34.5 5t-42.5 3.5t-55.5 1.5q-18 0 -42 -1.5t-48 -3.5t-43.5 -5.5t-27.5 -7.5zM386 0q11 23 20 68.5t9 111.5q0 31 -2.5 60t-6.5 54t-9.5 44.5
t-11.5 31.5q18 -6 45 -11.5t61 -9.5t72 -6.5t77 -2.5q36 0 73 1.5t70 5.5t59.5 9.5t42.5 13.5q-13 -24 -19 -77t-6 -113q0 -57 6 -103.5t19 -76.5q-16 5 -42.5 9.5t-60 8t-71.5 5.5t-77 2t-76.5 -2t-70.5 -5.5t-59 -8t-42 -9.5z" />
    <glyph glyph-name="at" unicode="@" horiz-adv-x="2563" 
d="M190 449q-3 37 -7 73.5t-12 65.5t-21 48.5t-33 23.5q20 3 34 20t24.5 43.5t18.5 60t16 68.5q26 111 86 200t143.5 158.5t184.5 119t209 82t217.5 47.5t209.5 15q216 0 400 -29.5t325.5 -97t236.5 -178t134 -272.5q10 -43 18 -84.5t17.5 -75t22 -54.5t32.5 -23
q-20 -2 -34.5 -19.5t-25.5 -45.5t-18.5 -64t-13.5 -74q-15 -103 -63.5 -176t-113 -119.5t-137.5 -68.5t-139 -22q-38 0 -74.5 -3t-69.5 -8.5t-61 -11.5t-47 -12q-5 30 -28.5 76t-86.5 104q-37 -33 -63 -79t-27 -101q-5 5 -25.5 9.5t-50.5 8t-67.5 5.5t-75.5 2
q-36 0 -71 -1.5t-63.5 -4.5t-48.5 -8t-26 -11q-13 45 -55 87.5t-94.5 75.5t-106.5 53t-91 20q25 35 35.5 110.5t10.5 189.5q0 51 -3 98.5t-9 87.5t-14.5 69.5t-19.5 44.5q24 0 61.5 11.5t79.5 31t85.5 44.5t80 52t62.5 54t34 51q18 -9 35 -15.5t39 -11t50.5 -6.5t69.5 -2
q66 0 109.5 11t62.5 24q11 -52 28 -85t48 -52q20 25 34.5 55t20.5 62q23 -13 71 -19t114 -6q19 0 42 1.5t45.5 4.5t42.5 7.5t34 11.5q-17 -26 -37.5 -77.5t-37.5 -117.5t-28.5 -140t-11.5 -143q0 -102 9.5 -170t23 -108.5t28 -57t25.5 -16.5q54 0 101.5 24.5t83 77.5
t55.5 137t20 203q0 109 -30.5 196t-86 153.5t-134.5 114t-175.5 77.5t-209 44t-235.5 14q-215 0 -373.5 -44.5t-263 -131t-156 -214.5t-51.5 -295q0 -203 47 -353t153.5 -249t277.5 -147.5t420 -48.5q32 0 79 4t99 11.5t105.5 18t98 23.5t76 28t40.5 31q0 -17 5.5 -39.5
t19.5 -46t37.5 -44.5t59.5 -35q-35 -12 -58.5 -32t-37.5 -42t-20.5 -43.5t-8.5 -37.5q-10 16 -54 26t-105 14.5t-131.5 6t-133.5 1.5h-100q-224 0 -419 46t-343.5 141.5t-240.5 243t-110 350.5zM1100 523q0 -130 36.5 -193.5t94.5 -63.5q35 0 71 22.5t65.5 74.5t48.5 136.5
t19 208.5q0 30 -1.5 62t-3.5 67q-35 26 -65 35t-68 9q-57 0 -95 -25.5t-60.5 -72t-32 -113t-9.5 -147.5z" />
    <glyph glyph-name="A" unicode="A" 
d="M8 0q6 25 9 61.5t3 75.5q0 36 -2.5 67.5t-7.5 55.5q51 2 87 18.5t59 36.5q24 37 49 83t45.5 94.5t33.5 97t13 90.5q0 17 -5 34t-17 21q30 8 60 44t58 89t52 118t42 131.5t28 129.5t10 112q0 17 -2 33t-2 27q0 5 0.5 9t0.5 12q23 -9 57.5 -15.5t77.5 -11t92 -6.5t102 -2
q46 0 94 2t93 6.5t84 11t65 15.5v-4v-9q0 -11 -2.5 -27.5t-2.5 -36.5q0 -46 8.5 -108t23.5 -128.5t36.5 -132t47.5 -120t56 -92t63 -47.5q-14 -5 -19.5 -19.5t-5.5 -35.5q0 -42 12.5 -90.5t33 -97t45 -93.5t48.5 -81q15 -9 36 -19t44 -19t46 -14.5t43 -5.5
q-5 -24 -7.5 -55.5t-2.5 -67.5q0 -39 3 -75.5t9 -61.5q-36 4 -83 8.5t-101 8t-112 6t-116 2.5q-106 0 -201.5 -6.5t-161.5 -18.5q3 17 5.5 53.5t2.5 81.5q0 19 -1 38.5t-2 36.5t-2.5 30.5t-2.5 19.5q18 0 38 1.5t39.5 5.5t37.5 11t32 19q-2 40 -13 68.5t-41.5 47.5t-85 28
t-142.5 9q-79 0 -131.5 -6t-85 -22.5t-48 -46t-19.5 -77.5q15 -12 36 -19t43.5 -11.5t45 -6t40.5 -1.5q-2 -6 -3.5 -19t-2.5 -30.5t-1.5 -37.5t-0.5 -38q0 -45 2.5 -81.5t5.5 -53.5q-76 14 -154 19.5t-159 5.5q-94 0 -182.5 -5.5t-169.5 -19.5zM648 743q0 -29 6.5 -48
t23 -30t45 -15.5t72.5 -4.5t72.5 4.5t45 15.5t23 30t6.5 48q0 35 -18 86t-42 107t-49 112t-38 101q-15 -45 -40 -101t-48.5 -112t-41 -107t-17.5 -86z" />
    <glyph glyph-name="B" unicode="B" horiz-adv-x="1539" 
d="M100 0q6 25 10.5 60.5t4.5 73.5q0 35 -5 68.5t-10 57.5q45 0 79 7t57 23.5t34.5 45t11.5 71.5q0 84 -4.5 144t-13 99t-21.5 59.5t-30 25.5q18 6 31 19t21.5 44.5t12.5 87t4 147.5q0 43 -11.5 71.5t-34.5 45t-57 23.5t-79 7q5 24 10 57.5t5 68.5q0 38 -4.5 73.5
t-10.5 60.5q13 -5 51 -10t89.5 -8.5t111.5 -6.5t118 -5.5t108.5 -3.5t83.5 -1q83 0 162.5 1.5t146.5 5.5t117 11t73 17q1 -21 16 -44.5t39.5 -47t54.5 -45.5t61 -39.5t60 -28t51 -11.5q-7 -13 -12.5 -37.5t-9.5 -55.5t-6 -64t-2 -63q0 -64 6.5 -119.5t23.5 -84.5
q-42 -8 -84 -32t-79 -57q54 -32 117 -52.5t118 -28.5q-8 -13 -14 -34t-9.5 -47t-5 -55t-1.5 -58q0 -30 1.5 -63.5t5.5 -64t9.5 -55.5t13.5 -37q-28 -1 -64.5 -11t-75 -26.5t-76 -37.5t-68.5 -45t-52 -48.5t-26 -47.5q-12 6 -59 10.5t-115.5 8t-151 5t-165.5 1.5
q-32 0 -84 -1t-112 -3t-121.5 -4t-113 -5t-87.5 -6t-44 -6zM685 844q14 -5 28.5 -8.5t33 -6t42.5 -3.5t56 -1q50 0 82.5 15t51 41t26 61.5t7.5 76.5q0 35 -4 67.5t-20 58t-47 40.5t-86 15q-45 0 -90 -6t-82 -22q-4 -28 -5.5 -61.5t-1.5 -68.5q0 -53 2.5 -104.5t6.5 -93.5z
M683 244q48 -13 99.5 -18.5t112.5 -5.5q57 0 94.5 16.5t60.5 44.5t32.5 66t9.5 82q0 39 -5.5 75t-25 64t-56.5 45t-100 17q-83 0 -134 -6.5t-87 -22.5q-5 -34 -7 -75t-2 -86q0 -52 2.5 -102.5t5.5 -93.5z" />
    <glyph glyph-name="C" unicode="C" 
d="M106 268q19 26 35 106.5t16 219.5q0 63 -17 96.5t-49 44.5q18 5 31 23t22 44t13 57.5t4 64.5q0 86 -14.5 152.5t-40.5 95.5h8q33 0 74 15t83 39.5t81.5 55t71 62.5t51.5 62.5t22 53.5q33 -18 115.5 -36.5t217.5 -18.5q32 0 68.5 4t71 11.5t64.5 17.5t49 22
q10 -31 30 -63.5t49 -55.5q28 22 40.5 50t17.5 49q9 -5 28 -8.5t44 -6t54 -4t59 -1.5q18 0 42 1.5t48.5 4t47.5 6t40 8.5q-2 -8 -6.5 -31t-8.5 -53t-7 -64t-3 -65q0 -64 3 -121t6.5 -103t8 -79t7.5 -49q-24 4 -51.5 6.5t-56 4.5t-55.5 3t-48 1q-122 0 -219 -15q0 68 -18 129
t-52 106.5t-84 72.5t-114 27q-35 0 -70 -6t-67.5 -24.5t-60 -52.5t-48 -90.5t-32 -138.5t-11.5 -196q0 -145 22.5 -238.5t61.5 -147.5t91.5 -75t113.5 -21t107.5 25.5t78 70.5t47.5 107t16 136q0 9 -0.5 18t-0.5 18q34 -7 62 -12t55 -8t56.5 -4t66.5 -1q64 0 119 7t91 18
q-6 -12 -10.5 -36t-8 -55t-5 -65.5t-1.5 -67.5q0 -40 7.5 -84t17.5 -84q-88 -1 -155 -27.5t-113.5 -62t-73 -70.5t-33.5 -53q-21 8 -49 14.5t-65.5 11t-86.5 7t-112 2.5q-67 0 -132.5 -3.5t-120.5 -10t-95 -14.5t-56 -17q-12 46 -53.5 95t-97 90t-118 69t-116.5 34z" />
    <glyph glyph-name="D" unicode="D" horiz-adv-x="1703" 
d="M100 0q6 25 10.5 60.5t4.5 73.5q0 35 -5 68.5t-10 57.5q45 0 79 7t57 23.5t34.5 45t11.5 71.5q0 84 -4.5 144t-13 99t-21.5 59.5t-30 25.5q18 6 31 21t21.5 48t12.5 88t4 141q0 43 -11.5 71.5t-34.5 45t-57 23.5t-79 7q5 24 10 57.5t5 68.5q0 38 -4.5 73.5t-10.5 60.5
q13 -5 51 -10t89.5 -8.5t111.5 -6.5t118 -5.5t108.5 -3.5t83.5 -1q87 0 176.5 1.5t166.5 5.5t135 11t82 17q1 -21 18.5 -44.5t44.5 -47t62 -45.5t70 -39.5t68.5 -28t58.5 -11.5q-5 -30 -7.5 -61t-2.5 -62q0 -67 10.5 -129.5t28 -113t40.5 -83.5t49 -40q-27 -6 -50.5 -38
t-41 -82.5t-27 -116.5t-9.5 -139q0 -35 2.5 -71t7.5 -72q-26 -1 -58.5 -11t-67 -26.5t-68 -37.5t-60.5 -45t-45.5 -48.5t-22.5 -47.5q-24 7 -82 12t-135 8t-166.5 4t-176.5 1q-33 0 -83.5 -0.5t-108.5 -2t-118 -4t-112 -5t-89.5 -6t-50.5 -7.5zM687 242q42 -11 90.5 -16.5
t96.5 -5.5q66 0 121.5 30t96.5 95t64 167.5t23 246.5q0 221 -73.5 336t-221.5 115q-22 0 -48 -1.5t-52 -5t-51.5 -9t-46.5 -13.5q-6 -48 -8.5 -136.5t-2.5 -196.5q0 -84 1 -172.5t3 -170t4 -150t4 -113.5z" />
    <glyph glyph-name="E" unicode="E" horiz-adv-x="1533" 
d="M100 0q6 25 10.5 60.5t4.5 73.5q0 35 -5 68.5t-10 57.5q45 0 79 7t57 23.5t34.5 45t11.5 71.5q0 84 -4.5 144t-13 99t-21.5 59.5t-30 25.5q18 6 31 19t21.5 44.5t12.5 87t4 147.5q0 43 -11.5 71.5t-34.5 45t-57 23.5t-79 7q5 24 10 57.5t5 68.5q0 38 -4.5 73.5
t-10.5 60.5q20 -5 69 -9.5t114 -8.5t139 -7t144.5 -5.5t130 -3.5t95.5 -1t92 1t120.5 3.5t132 5.5t127 7t105 8.5t65.5 9.5q-8 -42 -16.5 -106.5t-8.5 -136.5q0 -42 3 -82.5t6.5 -74t8 -58.5t7.5 -37q-15 6 -37.5 10.5t-48.5 8t-54 5t-54 1.5q-46 0 -92 -5.5t-88 -19.5
q7 21 11.5 51t4.5 61q0 51 -17.5 81.5t-44.5 46.5t-59 20.5t-61 4.5q-23 0 -48.5 -1.5t-52 -7t-52.5 -15t-48 -25.5q-4 -23 -7 -53t-3 -75q0 -67 2.5 -104.5t6.5 -57.5q27 -12 63 -17t74 -5q57 0 108 9t74 21q-8 -22 -11.5 -61t-3.5 -82q0 -24 1 -47.5t3.5 -43t5 -34
t5.5 -21.5q-9 5 -29 10.5t-46.5 10.5t-58 8.5t-64.5 3.5q-34 0 -65 -4t-56 -15q-2 -12 -3.5 -27.5t-3 -39t-2 -55.5t-0.5 -75q0 -54 4 -87.5t9 -57.5q24 -13 51 -21.5t54.5 -13t53.5 -6t49 -1.5q29 0 59.5 7.5t55.5 28t41 57t16 93.5q0 36 -4.5 71t-11.5 58q42 -14 88 -19.5
t92 -5.5q26 0 54 1.5t54 5t48.5 8t37.5 10.5q-3 -13 -7.5 -40t-8 -63.5t-6.5 -80t-3 -88.5q0 -39 2.5 -76.5t6 -71.5t8 -63.5t8.5 -51.5q-20 4 -65.5 7.5t-105 6t-127 5t-132 4t-120.5 2t-92 0.5t-95.5 -0.5t-130 -2t-144.5 -4t-139 -5t-114 -6t-69 -7.5z" />
    <glyph glyph-name="F" unicode="F" horiz-adv-x="1538" 
d="M100 0q6 25 10.5 60.5t4.5 73.5q0 35 -5 68.5t-10 57.5q45 0 79 7t57 23.5t34.5 45t11.5 71.5q0 84 -4.5 144t-13 99t-21.5 59.5t-30 25.5q18 6 31 19t21.5 44.5t12.5 87t4 147.5q0 43 -11.5 71.5t-34.5 45t-57 23.5t-79 7q5 24 10 57.5t5 68.5q0 38 -4.5 73.5
t-10.5 60.5q20 -5 69 -9.5t114 -8.5t139 -7t144.5 -5.5t130 -3.5t95.5 -1t96 1t130.5 3.5t144.5 5.5t139 7t114 8.5t69 9.5q-8 -42 -16.5 -106.5t-8.5 -136.5q0 -42 3 -82.5t6.5 -74t8 -58.5t7.5 -37q-30 11 -76.5 18t-98.5 7q-23 0 -49.5 -1t-53.5 -4t-52 -8t-45 -12
q7 21 11.5 51t4.5 61q0 51 -24.5 81.5t-60.5 46.5t-76 20.5t-71 4.5q-23 0 -48.5 -1.5t-52 -7t-52.5 -15t-48 -25.5q-4 -23 -7 -53t-3 -75q0 -67 2.5 -104.5t6.5 -57.5q15 -6 36 -10t44 -7t45.5 -4t41.5 -1q28 0 59 2.5t59 6.5t50.5 9.5t33.5 11.5q-8 -22 -11.5 -61
t-3.5 -82q0 -24 1 -47.5t3.5 -43t5 -34t5.5 -21.5q-9 5 -32 11t-53.5 11t-65 8t-67.5 3q-17 0 -37.5 -1t-41 -3.5t-39.5 -6t-33 -8.5q-2 -12 -3.5 -27.5t-3 -39t-2 -55.5t-0.5 -75q0 -47 19 -76t58.5 -44.5t100 -21t144.5 -5.5q-5 -24 -10 -57.5t-5 -68.5q0 -38 4.5 -73.5
t10.5 -60.5q-28 6 -81.5 10.5t-117 8t-128 5t-115.5 1.5q-54 0 -122 -1.5t-133.5 -5t-121.5 -8t-86 -10.5z" />
    <glyph glyph-name="G" unicode="G" horiz-adv-x="1699" 
d="M100 268q19 26 35 106.5t16 219.5q0 63 -17 96.5t-49 44.5q18 5 31 23t22 44t13 57.5t4 64.5q0 86 -14.5 152.5t-40.5 95.5h8q34 0 76.5 15t86.5 39.5t86 55t75.5 62.5t55 62.5t23.5 53.5q16 -9 40.5 -18.5t60.5 -18t85.5 -13.5t117.5 -5q33 0 68.5 4t69 11.5t62.5 17.5
t48 22q12 -38 34.5 -66.5t51.5 -46.5q24 22 35 47.5t16 45.5q9 -5 34 -8.5t57.5 -6t68 -4t65.5 -1.5q76 0 148 20q-2 -8 -6.5 -31t-8.5 -53t-7 -64t-3 -65q0 -64 3 -121t6.5 -103t8 -79t7.5 -49q-48 8 -93 11.5t-88 3.5q-30 0 -65.5 -1t-70.5 -2.5t-67 -4.5t-56 -7
q0 68 -13 129t-41.5 106.5t-74 72.5t-109.5 27q-35 0 -70 -6t-66.5 -24.5t-59 -52.5t-47 -90.5t-31 -138.5t-11.5 -196q0 -145 25 -236.5t67 -144t97 -72t116 -19.5q60 0 98.5 12t60.5 31t30 43.5t8 50.5q0 22 -5.5 37.5t-21 25.5t-43.5 15t-72 5q8 28 11.5 58t3.5 75
q0 35 -4.5 61.5t-10.5 50.5q54 -14 117 -19.5t123 -5.5q51 0 109.5 1.5t114 5t102.5 8t74 10.5q-19 -48 -31.5 -105.5t-20 -118.5t-11 -122t-3.5 -117q0 -81 5.5 -143t13.5 -89q-25 0 -61.5 11.5t-76 29.5t-77 41t-64.5 46q-26 -1 -58 -17.5t-60 -39.5t-46.5 -48t-18.5 -43
q-17 9 -49 17t-69.5 14.5t-74.5 10t-63 3.5q-136 0 -221.5 -13.5t-118.5 -31.5q-8 31 -31 63.5t-56 63t-73 58t-82.5 49.5t-84.5 36t-78 18z" />
    <glyph glyph-name="H" unicode="H" horiz-adv-x="1879" 
d="M67 0q6 25 10.5 60.5t4.5 73.5q0 35 -5 68.5t-10 57.5q50 0 84.5 7t56.5 23.5t31.5 45t9.5 71.5q0 84 -4.5 144t-13 99t-21.5 59.5t-30 25.5q18 6 31 21.5t21.5 50.5t12.5 93.5t4 150.5q0 40 -11.5 65t-32.5 39.5t-51 19.5t-67 5h-20q5 24 10 55.5t5 66.5q0 37 -4.5 75
t-10.5 63q19 -7 59.5 -13t93 -11t112.5 -8t117 -3t116.5 3t112 8t93.5 11t61 13q-6 -25 -10.5 -63t-4.5 -75q0 -35 5 -66.5t10 -55.5h-19q-34 0 -63.5 -5t-51.5 -19.5t-35 -39.5t-13 -65q0 -69 2 -117t7 -83q57 -11 130 -16t151 -5t150.5 5.5t129.5 16.5q5 35 7 83.5
t2 115.5q0 40 -11.5 65t-32.5 39.5t-51 19.5t-67 5h-20q5 24 10 55.5t5 66.5q0 37 -4.5 75t-10.5 63q19 -7 59.5 -13t93 -11t112.5 -8t117 -3t116.5 3t112 8t93.5 11t61 13q-6 -25 -10.5 -63t-4.5 -75q0 -35 5 -66.5t10 -55.5h-19q-34 0 -63.5 -5t-51.5 -19.5t-35 -39.5
t-13 -65q0 -92 4 -150.5t12.5 -93.5t21.5 -50.5t31 -21.5q-17 -5 -30 -25.5t-21.5 -59.5t-13 -99t-4.5 -144q0 -43 11.5 -71.5t34.5 -45t57 -23.5t79 -7q-5 -24 -10 -57.5t-5 -68.5q0 -38 4.5 -73.5t10.5 -60.5q-29 6 -73 10.5t-96 8t-107.5 5t-106.5 1.5t-106.5 -1.5
t-107.5 -5t-96 -8t-72 -10.5q6 25 10.5 60.5t4.5 73.5q0 35 -5 68.5t-10 57.5q50 0 84.5 7t56.5 23.5t31.5 45t9.5 71.5q0 119 -9 193q-57 12 -129 18.5t-151 6.5q-75 0 -149 -6t-132 -17q-9 -74 -9 -195q0 -43 11.5 -71.5t34.5 -45t57 -23.5t79 -7q-5 -24 -10 -57.5
t-5 -68.5q0 -38 4.5 -73.5t10.5 -60.5q-29 6 -73 10.5t-96 8t-107.5 5t-106.5 1.5t-106.5 -1.5t-107.5 -5t-96 -8t-72 -10.5z" />
    <glyph glyph-name="I" unicode="I" horiz-adv-x="1022" 
d="M110 0q6 25 10.5 60.5t4.5 73.5q0 35 -5 68.5t-10 57.5q45 0 83.5 7t67 23.5t45 45t16.5 71.5q0 84 -4.5 144t-13 99t-21.5 59.5t-30 25.5q18 6 31 21.5t21.5 50.5t12.5 93.5t4 150.5q0 40 -18.5 65t-48 39.5t-65.5 19.5t-71 5h-19q5 24 10 55.5t5 66.5q0 37 -4.5 75
t-10.5 63q19 -7 66.5 -13.5t107.5 -11t126 -7.5t123 -3q58 0 119 3t115 8t96 11t62 13q-6 -25 -10.5 -63t-4.5 -75q0 -35 5 -66.5t10 -55.5h-21q-37 0 -68 -5t-54 -19.5t-36 -39.5t-13 -65q0 -92 4 -150.5t12.5 -93.5t21.5 -50.5t31 -21.5q-17 -5 -30 -25.5t-21.5 -59.5
t-13 -99t-4.5 -144q0 -43 14.5 -71.5t41.5 -45t66.5 -23.5t89.5 -7q-5 -24 -10 -57.5t-5 -68.5q0 -38 4.5 -73.5t10.5 -60.5q-29 6 -77.5 10.5t-106 8t-117.5 5t-111 1.5t-111.5 -1.5t-118 -5t-106.5 -8t-77 -10.5z" />
    <glyph glyph-name="J" unicode="J" horiz-adv-x="1368" 
d="M65 273q9 30 17 69t8 79q0 33 -3 69t-8 68.5t-10.5 58.5t-11.5 38q18 -6 44 -10.5t57 -8t64 -5t65 -1.5q30 0 64 1t68.5 4t67.5 8t60 12q-6 -27 -9.5 -57.5t-3.5 -68.5q0 -20 1.5 -43t4.5 -45.5t7 -43.5t9 -37q-42 -7 -62.5 -30.5t-20.5 -52.5q0 -21 33.5 -39t103.5 -18
q53 0 91 20.5t63 57.5t36.5 89.5t11.5 117.5q0 103 -17 161.5t-52 68.5q18 6 32 18.5t24 37t15.5 63.5t5.5 97q0 42 -5.5 73t-13.5 56q-11 32 -31.5 51.5t-61.5 30.5t-108.5 14.5t-171.5 3.5q5 24 10 55.5t5 66.5q0 37 -4 75t-11 63q23 -7 76 -13.5t121.5 -11t146 -7.5
t149.5 -3q73 0 144 3t131.5 7.5t107 11t69.5 13.5q-7 -25 -11 -63t-4 -75q0 -35 5 -66.5t10 -55.5h-20q-36 0 -61 -5t-40.5 -19.5t-23 -39.5t-7.5 -65q0 -92 4.5 -150.5t13.5 -93.5t22 -50.5t31 -21.5q-14 0 -25 -22.5t-18.5 -59t-12 -82.5t-4.5 -92q0 -36 2.5 -69.5
t8.5 -62t14.5 -49.5t20.5 -30q-45 -6 -87 -32.5t-76 -65.5t-58 -86t-34 -94q-14 9 -51.5 15.5t-88 11t-108.5 6.5t-112 2q-118 0 -200.5 -9.5t-122.5 -25.5q-2 45 -17 94.5t-47.5 91t-84 69t-126.5 28.5z" />
    <glyph glyph-name="K" unicode="K" horiz-adv-x="1879" 
d="M100 0q6 25 10.5 60.5t4.5 73.5q0 35 -5 68.5t-10 57.5q45 0 79 7t57 23.5t34.5 45t11.5 71.5q0 84 -4.5 144t-13 99t-21.5 59.5t-30 25.5q18 6 31 21.5t21.5 50.5t12.5 93.5t4 150.5q0 40 -13 65t-35 39.5t-51.5 19.5t-63.5 5h-19q5 24 10 55.5t5 66.5q0 37 -4.5 75
t-10.5 63q19 -7 60 -13t94 -11t112.5 -8t116.5 -3q58 0 117.5 3t112 8t92.5 11t60 13q-6 -25 -10.5 -63t-4.5 -75q0 -35 5 -66.5t10 -55.5h-21q-36 0 -66 -5t-51 -19.5t-32.5 -39.5t-11.5 -65q0 -72 2.5 -122.5t7.5 -85.5q22 -7 54 -7h37.5t42.5 1t51.5 1.5t65.5 2.5
q53 32 96.5 72t74 78.5t47.5 71.5t17 51q0 20 -6 33t-21.5 20.5t-43.5 10t-71 2.5q8 24 11.5 60.5t3.5 67.5q0 33 -4 70t-13 62q20 -9 61 -15.5t91.5 -11t106.5 -6.5t106 -2q44 0 93 3t94.5 8.5t83.5 11.5t61 12q-6 -12 -9 -29.5t-4.5 -37t-1.5 -39.5v-36q0 -31 3.5 -62.5
t11.5 -55.5q-43 0 -81 -15.5t-69.5 -40.5t-56.5 -57.5t-42 -67t-26 -68t-9 -60.5q-30 -7 -61 -20t-61 -29t-58 -35t-51 -38q32 -32 84 -61t106.5 -51.5t103 -36t74.5 -13.5q-6 -30 -6 -60q0 -53 16.5 -101.5t45.5 -85t68 -58.5t84 -22q-8 -24 -9.5 -57.5t-1.5 -68.5
q0 -38 1.5 -73.5t10.5 -60.5q-10 4 -43 8.5t-75.5 8t-87.5 6t-80 2.5q-24 0 -56.5 -0.5t-69 -1.5t-73.5 -2.5t-69.5 -4.5t-57.5 -7t-37 -9q11 21 16 48.5t5 56.5q0 47 -11.5 90.5t-31.5 64.5q26 15 41.5 32.5t23.5 37.5t10.5 44t2.5 51q0 40 -26 80.5t-68 72t-94.5 51.5
t-106.5 20q-13 0 -29.5 0.5t-36.5 0.5q-34 0 -72 -4.5t-73 -19.5q-12 -77 -12 -219q0 -43 9.5 -71.5t31.5 -45t56.5 -23.5t84.5 -7q-5 -24 -10 -57.5t-5 -68.5q0 -38 4.5 -73.5t10.5 -60.5q-29 6 -73 10.5t-96 8t-107 5t-106 1.5t-106.5 -1.5t-107.5 -5t-96.5 -8
t-72.5 -10.5z" />
    <glyph glyph-name="L" unicode="L" horiz-adv-x="1532" 
d="M100 0q6 25 10.5 60.5t4.5 73.5q0 35 -5 68.5t-10 57.5q45 0 79 7t57 23.5t34.5 45t11.5 71.5q0 84 -4.5 144t-13 99t-21.5 59.5t-30 25.5q18 6 31 21.5t21.5 50.5t12.5 93.5t4 150.5q0 40 -13 65t-35 39.5t-51.5 19.5t-63.5 5h-19q5 24 10 55.5t5 66.5q0 37 -4.5 75
t-10.5 63q19 -7 60 -13t94 -11t112.5 -8t116.5 -3q58 0 122.5 3t123 8t103.5 11t65 13q-6 -25 -10.5 -63t-4.5 -75q0 -35 5 -66.5t10 -55.5h-21q-38 0 -73 -5t-61.5 -19.5t-42.5 -39.5t-16 -65q0 -92 4 -150.5t12.5 -93.5t21.5 -50.5t31 -21.5q-17 -5 -30 -25.5t-21.5 -59.5
t-13 -99t-4.5 -144q0 -52 4 -86t9 -59q42 -21 91.5 -29.5t92.5 -8.5q63 0 105 6t67 27t35 61.5t10 109.5q0 63 -6 104.5t-14.5 69t-16.5 45t-11 33.5q19 -7 51.5 -12t68 -8t69.5 -4t57 -1q25 0 53.5 1.5t55.5 5t50 8t39 10.5l-19 -57t-28 -98t-25 -120t-11 -122
q1 -39 1.5 -79.5t2.5 -78t8.5 -70t19.5 -55.5q-19 4 -64.5 7.5t-106 6t-129.5 5t-135 4t-122.5 2t-92.5 0.5t-95.5 -0.5t-130 -2t-144.5 -4t-139 -5t-114 -6t-69 -7.5z" />
    <glyph glyph-name="M" unicode="M" horiz-adv-x="2220" 
d="M107 0q6 25 10.5 60.5t4.5 73.5q0 35 -5 68.5t-10 57.5q66 0 105.5 15.5t60.5 52t27.5 97.5t6.5 151q0 69 -17 111.5t-40 47.5q20 6 35 32t24.5 67.5t14.5 96.5t5 120q0 40 -13 65t-35 39.5t-51.5 19.5t-63.5 5h-19q5 24 10 55.5t5 66.5q0 37 -4.5 75t-10.5 63
q18 -7 54.5 -13t84 -11t100.5 -8t104 -3q58 0 109.5 3t94.5 8t75.5 11t52.5 13q1 -31 16 -82.5t39 -113.5t54.5 -130t62 -131t62 -117t54.5 -88q24 34 54.5 88t62 117t62 131t54.5 130t39 113.5t16 82.5q19 -7 52 -13.5t76 -11t95 -7.5t109 -3q51 0 104 3t100.5 8t84 11
t54.5 13q-6 -25 -10.5 -63t-4.5 -75q0 -35 5 -66.5t10 -55.5h-19q-34 0 -63.5 -5t-51.5 -19.5t-35 -39.5t-13 -65q0 -65 4.5 -120t14.5 -96.5t25 -67.5t35 -32q-23 -5 -40 -47.5t-17 -111.5q0 -49 10.5 -89t17.5 -80q7 -42 20 -70t35.5 -45t56 -24.5t80.5 -7.5
q-5 -24 -10 -57.5t-5 -68.5q0 -38 4.5 -73.5t10.5 -60.5q-29 6 -73 10.5t-96 8t-107.5 5t-106.5 1.5t-106.5 -1.5t-107.5 -5t-96 -8t-72 -10.5q6 25 10.5 60.5t4.5 73.5q0 35 -5 68.5t-10 57.5q100 0 146 34.5t46 120.5q0 69 -3.5 144t-10 143.5t-16 125t-21.5 88.5
q-22 0 -49.5 -32t-57 -82t-57.5 -110t-50 -117t-36 -103t-15 -67q-28 9 -63 12t-71 3t-71 -3t-63 -12q-1 20 -15 65t-36 100.5t-49.5 114.5t-56.5 107.5t-57 80.5t-50 33q-10 -32 -16.5 -88t-10 -124t-4.5 -142.5t-1 -144.5q0 -43 11.5 -71.5t35 -45t59.5 -23.5t86 -7
q-5 -24 -10 -57.5t-5 -68.5q0 -38 4.5 -73.5t10.5 -60.5q-29 6 -73 10.5t-96 8t-107 5t-106 1.5t-106.5 -1.5t-107.5 -5t-96.5 -8t-72.5 -10.5z" />
    <glyph glyph-name="N" unicode="N" horiz-adv-x="1875" 
d="M100 0q6 25 10.5 60.5t4.5 73.5q0 35 -5 68.5t-10 57.5q45 0 79 7t57 23.5t34.5 45t11.5 71.5q0 91 -4.5 152t-13 98.5t-21.5 55t-30 22.5q18 6 31 21.5t21.5 50.5t12.5 93.5t4 150.5q0 40 -13 65t-35 39.5t-51.5 19.5t-63.5 5h-19q5 24 10 55.5t5 66.5q0 37 -4.5 75
t-10.5 63q39 -14 111 -24.5t187 -10.5q75 0 146 8.5t131 19.5q0 -48 20 -109t54 -128t77.5 -136.5t91 -134.5t95 -122.5t89 -100t72.5 -67.5t46 -25h2q1 0 2.5 -0.5t3.5 -0.5q8 30 12.5 76t7 104t3.5 124.5t1 137.5q0 40 -13 65t-35 39.5t-51.5 19.5t-63.5 5h-19
q5 24 10 55.5t5 66.5q0 37 -4.5 75t-10.5 63q19 -7 60 -13t94 -11t112.5 -8t116.5 -3q58 0 117.5 3t112 8t92.5 11t60 13q-6 -25 -10.5 -63t-4.5 -75q0 -35 5 -66.5t10 -55.5h-21q-36 0 -66 -5t-51 -19.5t-32.5 -39.5t-11.5 -65q0 -92 5.5 -152t16 -96t25 -51t32.5 -17
q-17 -9 -30 -28t-21.5 -60t-13 -109t-4.5 -175q0 -72 6 -131.5t14.5 -105t18.5 -77t18 -49.5q-25 8 -56 13t-63 7.5t-62 3.5t-52 1q-24 0 -54 -1t-61.5 -3.5t-63.5 -7.5t-59 -13q0 50 -28.5 119t-75 145t-105 154t-118 147.5t-114.5 125t-94 86.5q-19 -45 -25 -141t-6 -229
q0 -43 9.5 -71.5t31.5 -45t56.5 -23.5t84.5 -7q-5 -24 -10 -57.5t-5 -68.5q0 -38 4.5 -73.5t10.5 -60.5q-29 6 -73 10.5t-96 8t-107 5t-106 1.5t-106.5 -1.5t-107.5 -5t-96.5 -8t-72.5 -10.5z" />
    <glyph glyph-name="O" unicode="O" 
d="M98 268q19 26 35 106.5t16 219.5q0 63 -17 96.5t-49 44.5q18 5 31 23t22 44t13 57.5t4 64.5q0 86 -14.5 152.5t-40.5 95.5h8q34 0 75.5 15t84.5 39.5t84 55t73.5 62.5t53 62.5t22.5 53.5q16 -9 49.5 -18.5t80 -18t104 -13.5t120.5 -5t120.5 5t104 13.5t80 18t49.5 18.5
q2 -23 22.5 -53.5t53 -62.5t73.5 -62.5t84 -55t84.5 -39.5t75.5 -15h8q-26 -29 -40.5 -95.5t-14.5 -152.5q0 -33 4 -64.5t13 -57.5t22 -44t31 -23q-32 -11 -49 -44.5t-17 -96.5q0 -139 16 -219.5t35 -106.5q-54 -6 -118 -34t-121.5 -69t-100.5 -89.5t-55 -95.5
q-16 9 -50.5 17t-82 14.5t-106 10t-121.5 3.5t-121.5 -3.5t-106 -10t-82 -14.5t-50.5 -17q-12 47 -55 95.5t-100.5 89.5t-121.5 69t-118 34zM853 220q56 0 104.5 19.5t84 73t56 147t20.5 242.5q0 117 -10.5 200t-29 139.5t-44 90t-55 51t-61.5 22.5t-65 5t-65 -5
t-61.5 -22.5t-55 -51t-44 -90t-29 -139.5t-10.5 -200q0 -149 20.5 -242.5t56 -147t84 -73t104.5 -19.5z" />
    <glyph glyph-name="P" unicode="P" horiz-adv-x="1533" 
d="M100 0q6 25 10.5 60.5t4.5 73.5q0 35 -5 68.5t-10 57.5q45 0 79 7t57 23.5t34.5 45t11.5 71.5q0 84 -4.5 144t-13 99t-21.5 59.5t-30 25.5q18 6 31 19t21.5 44.5t12.5 87t4 147.5q0 43 -11.5 71.5t-34.5 45t-57 23.5t-79 7q5 24 10 57.5t5 68.5q0 38 -4.5 73.5
t-10.5 60.5q13 -5 51 -10t89.5 -8.5t111.5 -6.5t118 -5.5t108.5 -3.5t83.5 -1q90 0 183 1.5t173 5.5t140 11t85 17q2 -31 28 -68t62 -69.5t75 -55t67 -23.5q-7 -14 -12.5 -43t-9.5 -65.5t-6 -76t-2 -75.5q0 -38 1.5 -74t5 -68t9 -58t14.5 -44q-39 -7 -78.5 -29t-74.5 -51.5
t-63 -64t-44 -65.5q-38 14 -107.5 23.5t-152.5 9.5q-66 0 -133 -9t-130 -29q-9 -33 -9 -83q0 -52 11 -83.5t42 -49t86 -23.5t143 -6q-5 -24 -10 -57.5t-5 -68.5q0 -38 4.5 -73.5t10.5 -60.5q-29 6 -76 10.5t-102.5 8t-114 5t-109.5 1.5q-54 0 -122 -1.5t-133.5 -5t-121.5 -8
t-86 -10.5zM686 756q35 -11 74.5 -16t84.5 -5q50 0 88.5 18.5t65 51.5t40 77.5t13.5 96.5q0 44 -10.5 85.5t-33.5 74t-60.5 52t-92.5 19.5q-43 0 -88 -7t-82 -26q-5 -34 -7 -76.5t-2 -89.5q0 -68 3 -136t7 -119z" />
    <glyph glyph-name="Q" unicode="Q" 
d="M108 268q19 26 35 106.5t16 219.5q0 63 -17 96.5t-49 44.5q18 5 31 23t22 44t13 57.5t4 64.5q0 86 -14.5 152.5t-40.5 95.5h8q33 0 74 15t83 39.5t81.5 55t71 62.5t51.5 62.5t22 53.5q16 -9 49.5 -18.5t80 -18t104 -13.5t120.5 -5t120.5 5t104 13.5t80 18t49.5 18.5
q2 -23 22 -53.5t51 -62.5t71 -62.5t82 -55t82.5 -39.5t74.5 -15h8q-26 -29 -40.5 -95.5t-14.5 -152.5q0 -33 4 -64.5t13 -57.5t22 -44t31 -23q-32 -11 -49 -44.5t-17 -96.5q0 -139 16 -219.5t35 -106.5q-135 -24 -217.5 -75t-124.5 -115q-1 -9 -1.5 -16.5t-0.5 -12.5
q0 -32 22.5 -55.5t58 -38.5t77.5 -22.5t81 -7.5q40 0 87 9.5t98 25.5q-3 -19 -6.5 -35t-6.5 -36.5t-5 -48.5t-2 -71q0 -23 2.5 -49t6.5 -51t9.5 -45t11.5 -30q-24 9 -66.5 15.5t-91 11t-95.5 6.5t-80 2q-44 0 -85 -3t-74 -8t-56 -11t-32 -13q8 21 12.5 38t7 34t3.5 35.5
t1 41.5q0 63 -7 114t-36.5 87.5t-87.5 57.5t-160 23q-61 0 -117.5 -3.5t-102.5 -10t-79.5 -14.5t-48.5 -17q-12 46 -53.5 95t-97 90t-118 69t-116.5 34zM853 220q56 0 103 19.5t80.5 73t52.5 147t19 242.5q0 117 -10 200t-27 139.5t-41 90t-52.5 51t-60 22.5t-64.5 5
t-64.5 -5t-60 -22.5t-52.5 -51t-41 -90t-27 -139.5t-10 -200q0 -149 18.5 -242.5t52.5 -147t81 -73t103 -19.5z" />
    <glyph glyph-name="R" unicode="R" horiz-adv-x="1703" 
d="M100 0q6 25 10.5 60.5t4.5 73.5q0 35 -5 68.5t-10 57.5q45 0 79 7t57 23.5t34.5 45t11.5 71.5q0 84 -4.5 144t-13 99t-21.5 59.5t-30 25.5q18 6 31 19t21.5 44.5t12.5 87t4 147.5q0 43 -11.5 71.5t-34.5 45t-57 23.5t-79 7q5 24 10 57.5t5 68.5q0 38 -4.5 73.5
t-10.5 60.5q13 -5 51 -10t89.5 -8.5t111.5 -6.5t118 -5.5t108.5 -3.5t83.5 -1q95 0 192.5 1.5t182 5.5t147.5 11t89 17q1 -20 14.5 -42.5t35 -45t48.5 -43.5t54.5 -37t53.5 -26t46 -11q-7 -14 -12.5 -41t-9.5 -60t-6 -69.5t-2 -69.5q0 -38 1.5 -74.5t4.5 -68.5t9 -58.5
t15 -43.5q-35 -6 -73 -19t-75 -31.5t-70 -41.5t-57 -49q15 -21 35.5 -39t42.5 -30.5t45 -19.5t43 -7q0 -60 18.5 -107t52.5 -79.5t83 -49.5t111 -17q-9 -24 -12 -57.5t-3 -68.5q0 -38 4 -73.5t13 -60.5q-10 4 -39 8.5t-66.5 8t-77.5 6t-72 2.5q-38 0 -84 -1t-90 -3.5
t-80.5 -7.5t-55.5 -13q2 20 3 39.5t1 38.5q0 41 -6 78.5t-20 69t-36 55t-54 36.5q9 17 16 46t7 81q0 28 -9 53t-31.5 43t-59.5 28.5t-93 10.5q-24 0 -58 -2t-72 -7q-11 -27 -17 -64.5t-6 -98.5q0 -43 9.5 -71.5t31.5 -45t56.5 -23.5t84.5 -7q-5 -24 -10 -57.5t-5 -68.5
q0 -38 4.5 -73.5t10.5 -60.5q-29 6 -73 10.5t-96 8t-107 5t-106 1.5t-106.5 -1.5t-107.5 -5t-96.5 -8t-72.5 -10.5zM685 798q42 -12 88.5 -17.5t101.5 -5.5q54 0 96.5 16.5t71.5 45.5t44 68.5t15 84.5q0 42 -11.5 82t-37 70.5t-67 49t-101.5 18.5q-52 0 -105.5 -7t-95.5 -24
q-5 -32 -7 -70.5t-2 -80.5q0 -62 3 -122.5t7 -107.5z" />
    <glyph glyph-name="S" unicode="S" horiz-adv-x="1529" 
d="M148 0q2 8 5.5 29t6.5 49.5t5.5 61t2.5 63.5q0 83 -6.5 146t-13.5 86q57 -9 107 -12t98 -3q88 0 156 15q0 -44 21 -83.5t58.5 -68.5t90 -46t116.5 -17q43 0 87 4.5t79.5 19.5t57.5 43t22 75q0 34 -20.5 70.5t-64 65.5t-112 48t-164.5 19q-82 0 -162.5 -4.5t-174.5 -28.5
q-2 30 -21.5 66t-50 67.5t-70 53t-80.5 21.5h-10q12 5 21 23t14.5 44t8.5 57.5t3 64.5q0 83 -8.5 149t-24.5 94h7q29 0 64 15t70.5 39.5t69.5 55t60.5 62.5t43.5 62.5t19 53.5q15 -9 37.5 -18.5t56 -18t79.5 -13.5t109 -5q37 0 78.5 4t80.5 11.5t73 17.5t55 22
q8 -31 27 -63.5t45 -55.5q26 22 38 50t17 49q15 -9 45 -14.5t78 -5.5q73 0 136 20q-2 -8 -5 -31t-6 -53t-5 -64t-2 -65q0 -87 6.5 -152.5t11.5 -89.5q-51 9 -96 12t-90 3q-88 0 -155 -15q0 46 -21 87t-58.5 72t-90 48.5t-116.5 17.5q-44 0 -87.5 -6.5t-79 -23t-57.5 -43.5
t-22 -69q0 -35 17.5 -68t57.5 -59t105.5 -42t161.5 -16q40 0 87 0.5t93 3t87 7.5t71 14q3 -30 25 -68t55.5 -71.5t75.5 -56t84 -22.5h10q-12 -5 -21 -23t-14.5 -44t-8.5 -57.5t-3 -64.5q0 -41 2 -79t6.5 -70t10.5 -56.5t14 -37.5h-7q-29 0 -64 -14t-71 -37.5t-70 -53
t-61 -60.5t-43.5 -60.5t-17.5 -52.5q-15 9 -37.5 17t-56 14.5t-79.5 10t-109 3.5q-37 0 -75.5 -2.5t-74 -8t-66 -14t-51.5 -20.5q-9 31 -27.5 60t-44.5 50q-27 -20 -38.5 -44.5t-16.5 -45.5q-8 4 -25.5 8.5t-39.5 8t-47 6t-49 2.5q-39 0 -76 -7t-62 -18z" />
    <glyph glyph-name="T" unicode="T" horiz-adv-x="1872" 
d="M490 0q6 25 10.5 60.5t4.5 73.5q0 35 -5 68.5t-10 57.5q69 0 115 7t74.5 23.5t40.5 45t12 71.5q0 84 -4.5 144t-13 99t-21.5 59.5t-30 25.5q18 6 31 21.5t21.5 50.5t12.5 93.5t4 150.5q0 56 -4.5 87t-9.5 52q-37 11 -79.5 15.5t-67.5 4.5q-89 0 -130.5 -45t-41.5 -139
q0 -53 7.5 -105.5t18.5 -85.5q-42 14 -83 19.5t-87 5.5q-55 0 -104 -7t-81 -18q3 15 7.5 47t8 75.5t6.5 95t3 104.5q0 85 -8 160t-17 123q17 -5 52.5 -9.5t81.5 -8.5t98 -7t102.5 -5.5t94.5 -3.5t74 -1q54 0 113 2.5t110 7t88.5 11t48.5 14.5q11 -8 48.5 -14.5t88.5 -11
t109.5 -7t112.5 -2.5q30 0 74 1t94.5 3.5t102.5 5.5t98 7t81.5 8.5t52.5 9.5q-4 -23 -8.5 -54.5t-8 -68.5t-6 -77.5t-2.5 -82.5q0 -53 3 -104.5t6.5 -95t8 -75.5t7.5 -47q-32 11 -81 18t-104 7q-46 0 -87 -5.5t-83 -19.5q11 33 18.5 85.5t7.5 105.5q0 94 -41.5 139
t-130.5 45q-25 0 -67.5 -4.5t-79.5 -15.5q-5 -21 -9.5 -52t-4.5 -87q0 -92 4 -150.5t12.5 -93.5t21.5 -50.5t31 -21.5q-17 -5 -30 -25.5t-21.5 -59.5t-13 -99t-4.5 -144q0 -43 11.5 -71.5t40.5 -45t77.5 -23.5t122.5 -7q-5 -24 -10 -57.5t-5 -68.5q0 -38 4 -73.5t11 -60.5
q-30 6 -84 10.5t-118 8t-130 5t-120 1.5t-118.5 -1.5t-127 -5t-115 -8t-82.5 -10.5z" />
    <glyph glyph-name="U" unicode="U" horiz-adv-x="1872" 
d="M248 268q7 21 14.5 55.5t13.5 78t9.5 93t3.5 99.5q0 63 -20 96.5t-56 44.5q30 7 46.5 24t24.5 52t9.5 93t1.5 147q0 40 -11.5 65t-32.5 39.5t-51 19.5t-67 5h-20q5 24 10 55.5t5 66.5q0 37 -4.5 75t-10.5 63q19 -7 60 -13t94 -11t112.5 -8t116.5 -3q55 0 116.5 3t116.5 8
t97.5 11t61.5 13q-7 -25 -11 -63t-4 -75q0 -35 5 -66.5t10 -55.5h-18q-33 0 -59.5 -5t-45 -19.5t-29 -39.5t-10.5 -65v-454q0 -116 19 -189t50.5 -115t73.5 -57.5t89 -15.5q46 0 87.5 15.5t72.5 57.5t49 115t18 189v454q0 40 -11.5 65t-31 39.5t-46 19.5t-56.5 5h-17
q5 24 10 55.5t5 66.5q0 37 -4 75t-11 63q19 -7 56 -13.5t84.5 -11t102.5 -7.5t110 -3q58 0 117.5 3t112 8t92.5 11t60 13q-7 -25 -11 -63t-4 -75q0 -35 5 -66.5t10 -55.5h-20q-36 0 -62.5 -5t-44.5 -19.5t-26.5 -39.5t-8.5 -65q0 -89 1.5 -147t9.5 -93t24.5 -52t46.5 -24
q-36 -11 -56 -44.5t-20 -96.5q0 -50 3.5 -99.5t9 -93t13 -78t15.5 -55.5q-34 -4 -73.5 -18t-80 -36t-79 -49.5t-70 -58t-53.5 -63t-29 -63.5q-14 9 -45 17t-73.5 14.5t-94.5 10t-107 3.5q-56 0 -107.5 -3.5t-94 -10t-73.5 -14.5t-45 -17q-11 46 -40 92.5t-76 86t-110.5 68.5
t-143.5 41z" />
    <glyph glyph-name="V" unicode="V" horiz-adv-x="1703" 
d="M573 0q1 6 1 10v12q0 29 -5 73t-15.5 96.5t-25.5 111t-34 116t-43 110.5t-51.5 96t-59.5 72t-67 38q14 5 19.5 19.5t5.5 35.5q0 39 -6.5 82.5t-22.5 87t-43 84t-67 75.5q-12 10 -31.5 21t-42 20t-45.5 14.5t-43 5.5q5 24 7.5 55.5t2.5 67.5q0 39 -2.5 75.5t-7.5 61.5
q37 -6 86.5 -12t105.5 -11.5t116.5 -8.5t121.5 -3q63 0 124.5 2t117.5 6.5t104.5 11t86.5 15.5q-3 -17 -5.5 -53.5t-2.5 -81.5q0 -18 0.5 -38t1.5 -37.5t2.5 -30.5t3.5 -19q-41 0 -78.5 -2t-66.5 -10t-46.5 -23.5t-17.5 -43.5q0 -34 16 -86.5t40.5 -117t55 -137t59 -146.5
t52.5 -145.5t36 -133.5q14 55 39.5 123.5t55.5 142t60.5 148.5t56 142t41.5 123t16 92q0 28 -15 43t-38.5 22t-53 8t-58.5 1q1 6 2.5 19.5t2.5 30.5t2 36.5t1 38.5q0 45 -2.5 81.5t-5.5 53.5q84 -19 169.5 -27t173.5 -8q94 0 181.5 8t168.5 27q-6 -25 -8 -61.5t-2 -75.5
q0 -36 2.5 -67.5t7.5 -55.5q-14 0 -34.5 -3.5t-42 -11t-43 -19t-38.5 -28.5q-31 -29 -56 -69.5t-43 -85t-27.5 -89.5t-9.5 -84q0 -17 5 -34t17 -21q-39 -10 -76.5 -52.5t-70.5 -104.5t-60.5 -137.5t-47.5 -150t-31 -142.5t-11 -116v-32q-39 13 -114 19t-165 6
q-38 0 -79 -1.5t-80 -4.5t-72 -7.5t-55 -11.5z" />
    <glyph glyph-name="W" unicode="W" horiz-adv-x="2554" 
d="M573 0q1 6 1 10v12q0 29 -5.5 73t-16 96.5t-26 111t-35 116t-43.5 110.5t-52 96t-60 72t-67 38q14 5 19.5 19.5t5.5 35.5q0 39 -6 82.5t-21.5 87t-41.5 84t-66 75.5q-12 10 -31.5 21t-42 20t-45.5 14.5t-43 5.5q5 24 7.5 55.5t2.5 67.5q0 39 -2.5 75.5t-7.5 61.5
q37 -6 86.5 -12t105.5 -11.5t116.5 -8.5t121.5 -3q63 0 124.5 2t117.5 6.5t104.5 11t86.5 15.5q-3 -17 -5.5 -53.5t-2.5 -81.5q0 -18 0.5 -38t1.5 -37.5t2.5 -30.5t3.5 -19q-41 0 -78.5 -2t-66.5 -10t-46.5 -23.5t-17.5 -43.5q0 -34 15.5 -86.5t39 -116.5t53 -136.5
t57 -146.5t51 -145.5t35.5 -133.5q14 55 39 123.5t55 142t60.5 148t55.5 142t41 123t16 91.5q0 28 -14.5 43t-37.5 22t-52.5 8t-60.5 1q1 6 2.5 19.5t2.5 30.5t2 36.5t1 38.5q0 45 -2.5 81.5t-5.5 53.5q85 -19 173.5 -27t179.5 -8q96 0 185.5 8t174.5 27q-7 -29 -8.5 -71.5
t-1.5 -87.5q0 -29 1.5 -55t8.5 -46q-43 0 -82 -2t-69 -10t-47.5 -23.5t-17.5 -43.5q0 -34 15.5 -86.5t40 -117t54 -137.5t58 -147t52 -145.5t35.5 -133.5q14 55 39.5 124t56 142.5t62 148.5t57 142t42 123t16.5 92q0 28 -15 43t-38.5 22t-53 8t-58.5 1q1 6 2.5 19.5
t2.5 30.5t2 36.5t1 38.5q0 45 -2.5 81.5t-5.5 53.5q84 -19 169.5 -27t173.5 -8q94 0 181.5 8t168.5 27q-6 -25 -8 -61.5t-2 -75.5q0 -36 2.5 -67.5t7.5 -55.5q-14 0 -34.5 -3.5t-42 -11t-43 -19t-38.5 -28.5q-32 -29 -57.5 -69.5t-44 -85t-28.5 -89.5t-10 -84q0 -17 5 -34
t17 -21q-39 -10 -76.5 -52.5t-70.5 -104.5t-60.5 -137.5t-47.5 -150t-31 -142.5t-11 -116v-32q-39 13 -114 19t-165 6q-38 0 -78.5 -1t-78 -4t-70 -8t-54.5 -12q1 6 1 10v12q0 37 -9.5 100t-28 136.5t-45.5 150t-61 140.5q-33 -60 -60 -131t-46.5 -141.5t-30 -134.5
t-10.5 -110v-32q-39 13 -114 19t-165 6q-38 0 -78.5 -1.5t-78.5 -4.5t-70.5 -7.5t-54.5 -11.5z" />
    <glyph glyph-name="X" unicode="X" 
d="M38 0q6 23 8 57t2 70q0 39 -2.5 73t-7.5 60q36 0 80 20t98 42q55 29 112 75.5t105 96.5t80.5 97t38.5 79q0 12 -18 31t-60 34q28 12 43 26.5t22 28.5q-39 39 -70.5 78.5t-68 80t-83.5 83t-117 87.5q-15 9 -34.5 19.5t-41 19.5t-44 15.5t-42.5 6.5q5 24 7.5 55.5t2.5 67.5
q0 39 -2.5 75.5t-7.5 61.5q72 -13 172.5 -24t217.5 -11q62 0 122 2t114.5 6.5t102 11t84.5 15.5q-3 -17 -5.5 -53.5t-2.5 -81.5q0 -18 0.5 -38t1.5 -37.5t2.5 -30.5t3.5 -19q-23 0 -42.5 -2t-34.5 -10t-23.5 -23.5t-8.5 -43.5q0 -20 18.5 -45.5t47 -54.5t62.5 -61.5
t64 -65.5q27 31 57.5 63t57 63t44 58t17.5 48q0 28 -11.5 43t-29.5 22t-40.5 8t-43.5 1q1 6 2.5 19.5t2.5 30.5t2 36.5t1 38.5q0 45 -2.5 81.5t-5.5 53.5q81 -19 163.5 -27t169.5 -8q92 0 170.5 8t159.5 27q-5 -25 -7.5 -61.5t-2.5 -75.5q0 -36 2.5 -67.5t7.5 -55.5
q-35 0 -73 -22.5t-85 -49.5q-56 -32 -112.5 -75t-103.5 -87.5t-80 -86t-40 -69.5q7 -17 29.5 -34t52.5 -21q-30 -16 -49.5 -33.5t-19.5 -31.5q39 -43 70.5 -87t67.5 -89t83.5 -91t117.5 -92q14 -7 33.5 -16t41.5 -16.5t44.5 -13t42.5 -5.5q-8 -26 -9 -59.5t-1 -73.5
q0 -36 2.5 -70t7.5 -57q-72 9 -172.5 17t-217.5 8q-125 0 -236.5 -6.5t-186.5 -18.5q3 15 5.5 49t2.5 76q0 20 -1 41t-2 40t-2.5 33.5t-2.5 20.5q22 0 42 1.5t35 8.5t23.5 21t8.5 38q0 19 -18 43.5t-45 53t-59.5 59.5t-62.5 63q-29 -30 -61 -61t-59 -61t-45 -56.5t-18 -45.5
q0 -24 11.5 -37t29.5 -19t40.5 -7t43.5 -1q-2 -6 -3.5 -20.5t-2.5 -33.5t-1.5 -40.5t-0.5 -40.5q0 -42 2.5 -76t5.5 -49q-85 14 -173.5 19.5t-179.5 5.5q-92 0 -170.5 -6t-159.5 -19z" />
    <glyph glyph-name="Y" unicode="Y" 
d="M479 0q6 25 10.5 60.5t4.5 73.5q0 35 -5 68.5t-10 57.5q45 0 79 7t57 23.5t34.5 45t11.5 71.5q0 50 -15 98t-48 90.5t-85.5 78t-127.5 61.5q14 5 19.5 19.5t5.5 35.5q0 39 -11 78.5t-37 80t-70 83t-111 87.5q-13 9 -35.5 19.5t-48.5 19.5t-52 15.5t-46 6.5q5 24 7.5 55.5
t2.5 67.5q0 39 -2.5 75.5t-7.5 61.5q37 -6 86.5 -12t105.5 -11.5t116.5 -8.5t121.5 -3q62 0 122 2t114.5 6.5t102 11t84.5 15.5q-3 -17 -5.5 -53.5t-2.5 -81.5q0 -18 0.5 -38t1.5 -37.5t2.5 -30.5t3.5 -19q-33 0 -64 -2t-54 -10t-37 -23.5t-14 -43.5q0 -29 27 -69.5
t65 -88.5t80 -100.5t72 -104.5q34 48 78 100t83 101.5t66 92.5t27 74q0 28 -16 43t-41 22t-56 8t-62 1q1 6 2.5 19.5t2.5 30.5t2 36.5t1 38.5q0 45 -2.5 81.5t-5.5 53.5q85 -19 173.5 -27t179.5 -8q94 0 181.5 8t168.5 27q-6 -25 -8 -61.5t-2 -75.5q0 -36 2.5 -67.5
t7.5 -55.5q-14 0 -36.5 -6t-47.5 -16t-50 -23t-44 -27q-51 -37 -92.5 -76.5t-71 -80.5t-46 -81.5t-16.5 -79.5q0 -17 5 -34t17 -21q-66 -10 -116 -44.5t-83 -81.5t-49.5 -100.5t-16.5 -101.5q0 -43 9.5 -71.5t31.5 -45t56.5 -23.5t84.5 -7q-5 -24 -10 -57.5t-5 -68.5
q0 -38 4.5 -73.5t10.5 -60.5q-29 6 -73 10.5t-96 8t-107 5t-106 1.5t-106.5 -1.5t-107.5 -5t-96.5 -8t-72.5 -10.5z" />
    <glyph glyph-name="Z" unicode="Z" horiz-adv-x="1533" 
d="M70 0q14 26 19.5 69t5.5 91q0 15 -2 39t-5.5 48.5t-8 45t-9.5 27.5q22 0 63.5 16.5t92.5 51t107 87t107 123.5q12 16 24.5 32t23 30t17 26.5t6.5 21.5q0 20 -15 25q36 7 76.5 29.5t81 56.5t79.5 76.5t73 89.5t61.5 96t44.5 96q-34 7 -70.5 13t-70 10.5t-62.5 7t-48 2.5
q-121 0 -186 -48t-65 -155q0 -25 2 -42.5t5 -31.5t7 -27t8 -30q-20 9 -52.5 15t-77.5 6q-43 0 -95 -5t-118 -16q9 16 15.5 43.5t11 63t6.5 77t2 84.5t-2 87t-6.5 83.5t-11 72t-15.5 53.5q87 -12 159.5 -19.5t134.5 -11.5t115 -5.5t101 -1.5q44 0 84.5 0.5t81.5 0.5
q44 0 106 1.5t130.5 4t137.5 5.5t128 7.5t102 9t59 9.5q-14 -28 -19.5 -73.5t-5.5 -96.5q0 -24 2 -49.5t5.5 -48.5t8 -42t9.5 -30q-12 -3 -38 -18t-58.5 -39.5t-67.5 -56.5t-64 -67.5t-47.5 -73t-18.5 -72.5q0 -32 17 -38q-29 -6 -64.5 -18.5t-74 -35t-78.5 -57t-77 -84.5
q-57 -63 -101 -133.5t-89 -154.5q24 -8 54 -14t62.5 -10t67 -6t67.5 -2q34 0 71.5 12.5t69 38t52 63t20.5 88.5q0 38 -2 69.5t-10 61.5q26 -9 68 -15t102 -6q34 0 76.5 5t96.5 16q-9 -16 -15.5 -44t-11 -63t-6.5 -76.5t-2 -84.5t2 -85t6.5 -79.5t11 -68.5t15.5 -52
q-32 6 -83.5 10.5t-114.5 7.5t-133.5 5t-140 3t-133.5 1.5t-114 0.5q-95 0 -187.5 -0.5t-179 -3.5t-164.5 -8.5t-142 -15.5z" />
    <glyph glyph-name="bracketleft" unicode="[" horiz-adv-x="1021" 
d="M240 -197q5 8 9.5 36t7.5 70t5 94t3.5 107.5t2.5 110.5t1.5 103t0.5 86v58q0 55 -4 102t-14 82.5t-28.5 58t-46.5 28.5q28 6 46.5 28.5t28.5 58t14 82.5t4 102v84t-1 127.5t-3 146t-5.5 140.5t-8.5 110.5t-12 56.5q31 -7 62.5 -12t68 -8t78.5 -4t94 -1q45 0 91.5 1.5
t88.5 5t77.5 8t59.5 10.5q-3 -7 -5.5 -23.5t-5 -36t-3.5 -40t-1 -35.5q0 -13 1 -28.5t3.5 -30t5 -27t5.5 -19.5q-13 0 -35 0.5t-51 0.5q-28 0 -60.5 -1t-66.5 -4q-5 -40 -7 -99.5t-2 -135.5q0 -95 1.5 -210.5t1.5 -246.5q0 -132 -1.5 -247.5t-1.5 -210.5q0 -75 2 -134.5
t7 -99.5q34 -3 66.5 -4t60.5 -1q29 0 51 0.5t35 0.5q-3 -7 -5.5 -21t-5 -30.5t-3.5 -33.5t-1 -30q0 -15 1 -34t3.5 -37t5 -32.5t5.5 -21.5q-24 6 -59.5 10.5t-77.5 8t-88.5 5t-91.5 1.5q-52 0 -94 -1t-78.5 -4t-68 -8t-62.5 -12z" />
    <glyph glyph-name="backslash" unicode="\" horiz-adv-x="1021" 
d="M209 1218q-10 33 -23 73.5t-28 82.5t-31 83.5t-32 75.5t-31 58.5t-28 33.5q30 -8 77 -14t116 -6t117 6t78 14q-6 -12 -6 -37q0 -28 7 -69t19 -89t27 -99.5t30 -99.5l310 -974q10 -33 23 -73.5t28 -82.5t31 -83.5t32 -75.5t31 -58.5t28 -33.5q-19 6 -43.5 10t-50.5 6
t-52 3t-48 1t-48.5 -1t-52.5 -3t-50.5 -6t-42.5 -10q6 12 6 36q0 28 -7.5 69.5t-19 89t-26.5 99t-30 100.5z" />
    <glyph glyph-name="bracketright" unicode="]" horiz-adv-x="1021" 
d="M781.015 -197q-5 8 -9.49902 36q-4.5 28 -7.5 70t-5 94t-3.49902 107.5q-1.5 55.5 -2.5 110.5t-1.5 103t-0.5 86v58q0 55 4 102q3.99902 47 13.999 82.5q9.99902 35.5 28.498 58t46.4971 28.5q-27.998 6 -46.4971 28.5t-28.498 58q-10 35.5 -13.999 82.5q-4 47 -4 102v84
t1 127.5t3 146q1.99902 75.5 5.49902 140.5t8.5 110.5q4.99902 45.5 11.999 56.5q-30.998 -7 -62.4961 -12t-67.9961 -8t-78.4951 -4t-93.9941 -1q-44.9971 0 -91.4941 1.5t-88.4951 5q-41.9971 3.5 -77.4951 8t-59.4961 10.5q3 -7 5.49902 -23.5q2.5 -16.5 5 -36t3.5 -40
t1 -35.5q0 -13 -1 -28.5t-3.5 -30t-5 -27q-2.49902 -12.5 -5.49902 -19.5q12.999 0 34.998 0.5q21.998 0.5 50.9961 0.5q27.999 0 60.4971 -1t66.4951 -4q5 -40 7 -99.5t2 -135.5q0 -95 -1.5 -210.5t-1.5 -246.5q0 -132 1.5 -247.5t1.5 -210.5q0 -75 -2 -134.5t-7 -99.5
q-33.9971 -3 -66.4951 -4t-60.4971 -1q-28.998 0 -50.9961 0.5q-21.999 0.5 -34.998 0.5q3 -7 5.49902 -21q2.5 -14 5 -30.5t3.5 -33.5t1 -30q0 -15 -1 -34t-3.5 -37t-5 -32.5q-2.49902 -14.5 -5.49902 -21.5q23.998 6 59.4961 10.5t77.4951 8q41.998 3.5 88.4951 5
t91.4941 1.5q51.9971 0 93.9941 -1t78.4951 -4t67.9961 -8t62.4961 -12z" />
    <glyph glyph-name="asciicircum" unicode="^" horiz-adv-x="1529" 
d="M124 500q14 13 43.5 60.5t68.5 118.5t84.5 159t91.5 181t89.5 186.5t79 175t59.5 145.5t31 99q7 -4 17 -6.5t20.5 -4t20 -2t15.5 -0.5t15.5 0.5t20 2t20.5 4t17 6.5q7 -35 33 -99.5t64 -146t85 -175.5t97 -187.5t99 -181.5t91 -158.5t73 -117.5t45 -59q-12 8 -36.5 12.5
t-53 6.5t-57.5 2.5t-50 0.5q-18 0 -47 -1.5t-58 -5t-53 -8t-33 -10.5q0 2 0.5 4.5t0.5 5.5q0 23 -14 64.5t-37.5 95t-52.5 114.5t-59.5 122.5t-58.5 119t-49 103.5q-18 -46 -42.5 -103.5t-50.5 -118t-51.5 -121.5t-45.5 -114t-32.5 -95t-12.5 -66q0 -8 1 -11q-9 6 -33 10.5
t-53 8t-58 5t-47 1.5q-21 0 -49.5 -0.5t-57 -2.5t-53 -6.5t-37.5 -12.5zM1408 497q-3 0 -4 3zM124 500q-3 -3 -4 -3z" />
    <glyph glyph-name="underscore" unicode="_" horiz-adv-x="1529" 
d="M1547 -191v-198h-1565v198h1565z" />
    <glyph glyph-name="grave" unicode="`" horiz-adv-x="1020" 
d="M291 1190q0 2 0.5 3.5t0.5 3.5q0 18 -11.5 53.5t-31 80t-45.5 93.5t-53.5 94t-56 81.5t-53.5 55.5q16 -7 45.5 -11.5t65.5 -7.5t75 -4.5t75 -1.5q38 0 77 1.5t73.5 5t63 8t45.5 10.5q-4 -12 -4 -39q0 -29 4 -68.5t11 -83.5t16.5 -88.5t19.5 -82.5t21 -65.5t21 -37.5
q-8 4 -29 7.5t-49.5 6.5t-61.5 4.5t-63 1.5q-63 0 -101.5 -5.5t-54.5 -14.5z" />
    <glyph glyph-name="a" unicode="a" horiz-adv-x="1368" 
d="M76 147q13 23 19 53t6 61q0 32 -7 64t-18 52q27 9 48.5 29t37 45t25.5 51t13 48q5 -2 11 -2h13q74 0 179 14t227 37q57 11 94 27t59 36.5t30.5 44.5t8.5 51q0 49 -24.5 75.5t-84.5 26.5q-79 0 -116.5 -39.5t-37.5 -129.5q-33 8 -80 11.5t-104 3.5q-29 0 -58.5 -1
t-57.5 -2.5t-52 -4.5t-41 -7q6 31 10.5 70t4.5 91q0 17 -0.5 31.5t-2 28.5t-4.5 29.5t-8 34.5q42 0 92 8.5t97.5 22.5t86.5 33t60 40q18 -9 35 -15.5t39 -11t51 -6.5t70 -2q94 0 160.5 9.5t95.5 25.5q16 -30 46 -57t65.5 -46.5t72 -31t66.5 -11.5h9q-9 -22 -15 -61
t-10 -87.5t-6 -102.5t-3.5 -106.5t-1.5 -98.5v-78q0 -41 7 -66.5t27.5 -39.5t58 -19t97.5 -5q-4 -12 -7.5 -29.5t-6.5 -37.5t-4.5 -40t-1.5 -37q0 -78 20 -126q-24 11 -78 18t-118 7q-72 0 -127.5 -7t-87.5 -18q-8 55 -30.5 88t-45.5 52q-35 -11 -64 -29.5t-51.5 -40
t-36.5 -43t-18 -37.5q-23 6 -41.5 12t-37.5 11.5t-41 8.5t-52 3q-31 0 -65.5 -3t-68.5 -8.5t-63.5 -11.5t-50.5 -12q-17 28 -42 55.5t-53.5 50t-59 36.5t-58.5 15zM506 333q0 -24 10 -42.5t25.5 -31t34.5 -19t37 -6.5q33 0 67.5 13t63.5 41.5t49 74.5t24 112
q-86 -2 -145.5 -11.5t-96.5 -27t-53 -43.5t-16 -60z" />
    <glyph glyph-name="b" unicode="b" horiz-adv-x="1704" 
d="M177 0q7 10 11 26.5t6 35.5t2.5 37.5t0.5 33.5t-1 32.5t-3 35t-6 33t-10 26.5q50 0 80.5 8.5t47 27t21.5 47.5t5 70v122q0 34 -4.5 67.5t-13.5 60.5t-23 46t-32 24q41 14 56.5 68t15.5 157q1 11 0.5 22t-0.5 23l-3 207q-1 43 -10.5 68.5t-27.5 39t-43.5 18t-57.5 4.5h-31
q8 20 14 55.5t6 74.5q0 38 -5.5 73.5t-14.5 56.5q19 -3 46 -5t59 -3.5t68 -2.5t74 -1q51 0 103 2t99.5 6t88 11t67.5 18q-20 -39 -32.5 -87t-19.5 -102t-9 -113t-2 -120v-251q48 17 82.5 50t57.5 78q11 -8 33 -14.5t50 -11t60.5 -7t65.5 -2.5q28 0 55 2t50.5 6t42 10.5
t29.5 16.5q17 -36 52 -71.5t81 -65t100 -49.5t110 -24q-12 -26 -28.5 -106.5t-16.5 -220.5q0 -71 5 -126t11.5 -95.5t14.5 -67t14 -39.5q-56 -4 -110 -26.5t-100 -55t-81 -70.5t-52 -73q-35 14 -90.5 24.5t-128.5 10.5q-75 0 -132 -10.5t-95 -24.5q-5 21 -15.5 45.5
t-26.5 48.5t-37 45.5t-47 35.5q-34 -35 -55.5 -80t-24.5 -85q-16 4 -35 8.5t-43.5 8t-55.5 6t-70 2.5q-77 0 -120.5 -7.5t-71.5 -17.5zM714 542q0 -63 8 -118t29 -96t58 -64.5t95 -23.5q110 0 155 74.5t45 227.5q0 77 -10.5 131.5t-34.5 89.5t-62 51t-93 16q-58 0 -95 -21.5
t-58 -60t-29 -91t-8 -115.5z" />
    <glyph glyph-name="c" unicode="c" horiz-adv-x="1356" 
d="M92 166q16 17 26.5 55t17 87t9 104t2.5 106q0 50 -3 103t-10 100t-17 84t-25 55q40 4 90 23t96.5 48t84 67.5t53.5 81.5q13 -7 35.5 -13t51 -11t62 -8t68.5 -3q43 0 84 4t76 11t62.5 17.5t42.5 22.5q14 -19 38 -34.5t55 -27t67 -17.5t74 -6q53 0 79 4.5t41 8.5
q-12 -32 -18.5 -87t-6.5 -111q0 -30 1.5 -60.5t5 -57.5t8 -48.5t10.5 -33.5q-25 12 -66 17.5t-98 5.5t-101 -5.5t-74 -17.5q-8 106 -47 159.5t-122 53.5q-41 0 -77 -13t-62.5 -47.5t-42 -93.5t-15.5 -151q0 -104 14.5 -167.5t39 -99t58.5 -47.5t73 -12q52 0 87 18.5t56 48.5
t31 69.5t13 81.5q35 -13 81.5 -17.5t94.5 -4.5q43 0 83.5 4.5t73.5 17.5q-5 -15 -9 -36.5t-6.5 -44t-3.5 -44.5t-1 -39q0 -31 1.5 -54.5t4.5 -42.5t6.5 -35t7.5 -31q-8 1 -16 1.5t-16 0.5q-42 0 -89.5 -10t-93 -26t-86 -36.5t-67.5 -42.5q-29 12 -77.5 23.5t-105.5 11.5
q-36 0 -73 -3t-70 -8.5t-61 -11.5t-47 -12q-4 17 -23.5 37t-49 39.5t-65.5 37.5t-73 32t-72.5 22t-63.5 8h-11z" />
    <glyph glyph-name="d" unicode="d" horiz-adv-x="1535" 
d="M114 215q12 26 27.5 106t15.5 222q0 141 -15.5 221t-27.5 106q55 4 109 24t100.5 49.5t81.5 65t52 71.5q22 -17 71 -26t106 -9q33 0 65 3t59 8t48 11t32 13q22 -45 56.5 -77.5t82.5 -50.5v258q-1 43 -17 68.5t-41.5 39t-58.5 18t-68 4.5h-32q8 20 14 55.5t6 74.5
q0 38 -5.5 73.5t-14.5 56.5q19 -3 47.5 -5t63.5 -3.5t75.5 -2.5t82.5 -1q57 0 115 2t110.5 6t96 11t71.5 18q-21 -39 -35 -87t-22.5 -102t-12.5 -113t-4 -120v-200q0 -62 3 -109.5t11 -80.5t22 -53t36 -27h-1q-18 -5 -32 -24t-23 -46t-13.5 -60.5t-4.5 -67.5v-122
q0 -82 34 -117.5t90 -35.5q-5 -22 -7.5 -56t-2.5 -71t2 -74.5t8 -58.5q-14 5 -37 9.5t-49.5 8t-54 5.5t-51.5 2q-57 0 -99.5 -8t-74.5 -17q-3 40 -24.5 84t-54.5 79q-24 -16 -45.5 -38t-38 -45.5t-28 -47t-15.5 -42.5q-30 14 -88.5 24.5t-133.5 10.5q-73 0 -132 -10.5
t-87 -24.5q-17 35 -52 73t-81 70.5t-100.5 55t-109.5 26.5zM573 542q0 -77 10.5 -132t34.5 -90.5t62 -52.5t93 -17q58 0 95 22t58 61t29 92.5t8 116.5t-8 115.5t-29 91t-58 60t-95 21.5q-55 0 -93 -16t-62 -51t-34.5 -89.5t-10.5 -131.5z" />
    <glyph glyph-name="e" unicode="e" horiz-adv-x="1366" 
d="M109 166q20 24 31 67t16.5 93.5t7 101.5t1.5 90q0 41 -3 93t-9.5 101.5t-17 89.5t-25.5 58q44 0 97 22.5t100.5 56t82.5 71.5t44 70q55 -19 130 -27t186 -8q78 0 129 9t83 26q17 -35 56.5 -63t86 -48t93 -31.5t76.5 -12.5q-8 -17 -14.5 -37t-11 -47t-7 -63.5t-2.5 -85.5
q0 -34 1.5 -66t4.5 -59t6.5 -47.5t7.5 -30.5q-25 2 -67 3.5t-92 3t-104.5 2t-103.5 0.5q-58 0 -115.5 -0.5t-118.5 -0.5q-51 0 -81 -9t-45.5 -24.5t-20 -37.5t-4.5 -48q0 -39 19 -71t52 -54.5t78 -35t96 -12.5q42 0 67 12.5t38.5 33.5t17.5 49t4 60q12 -4 36 -7t52 -4.5
t56.5 -2.5t49.5 -1t48 1t53.5 2.5t49.5 4.5t37 7q-2 -11 -4.5 -29.5t-4 -39.5t-2.5 -42t-1 -35q0 -49 3.5 -78.5t11.5 -52.5h-18q-41 0 -84 -7.5t-83 -20t-75 -29.5t-60 -36q-14 9 -38.5 15.5t-54 11t-62 6.5t-62.5 2q-36 0 -75 -3t-74.5 -8.5t-64.5 -11.5t-45 -12
q-9 26 -46.5 57t-87.5 57.5t-106 44.5t-102 18q-5 0 -9 -0.5t-8 -0.5zM774 678q40 0 63.5 3t36 12t16 24.5t3.5 41.5q0 48 -41 78t-128 30q-54 0 -93 -9t-65.5 -31t-40.5 -58t-17 -91h266z" />
    <glyph glyph-name="f" unicode="f" horiz-adv-x="1195" 
d="M110 0q8 26 11 62t3 71q0 32 -4 64t-10 63q56 0 92.5 5t58.5 17.5t30.5 35.5t8.5 59v319q0 25 -4.5 40.5t-15.5 24.5t-29 12t-45 3q-15 0 -32.5 -2t-39.5 -6q5 29 7 63t2 69q0 32 -2 63t-7 57q43 -6 73 -6q24 0 41 2t27.5 9.5t15.5 22t5 40.5q0 48 -4.5 97.5t-13 93.5
t-19 78.5t-22.5 51.5q33 4 70.5 27t71 55t57.5 68t30 66q22 -15 71 -20t106 -5q88 0 146 19t89 51q14 -19 38 -35t55 -27.5t67 -18t74 -6.5q53 0 79 4.5t41 8.5q-12 -32 -18.5 -87t-6.5 -111q0 -30 1.5 -60.5t5 -57.5t8 -48.5t10.5 -33.5q-25 12 -66 17.5t-98 5.5t-101 -5.5
t-74 -17.5q0 119 -21.5 173.5t-83.5 54.5q-56 0 -86 -42t-30 -140v-133q0 -25 6 -43.5t24.5 -31t52 -18.5t89.5 -6q72 0 192 18q-5 -26 -7 -61t-2 -72q0 -85 9 -142q-63 7 -110 10t-84 3q-57 0 -90.5 -2.5t-51 -10.5t-22.5 -23t-5 -40v-315q0 -36 27 -59t70.5 -35.5
t99.5 -17.5t115 -5q-6 -21 -9.5 -52t-3.5 -66q0 -38 3 -76.5t10 -65.5q-32 5 -90 9.5t-127.5 8t-143 5.5t-136.5 2q-48 0 -103 -1.5t-107.5 -5t-97 -8t-70.5 -10.5z" />
    <glyph glyph-name="g" unicode="g" horiz-adv-x="1533" 
d="M131 6q27 3 60 9.5t67.5 17t66.5 26t57.5 37t40.5 49t15 62.5q0 33 -16 62.5t-41.5 54t-58.5 43.5t-67.5 32t-66.5 20t-57 7q12 12 21 33.5t14 49t7.5 60t2.5 66.5q0 36 -3 70.5t-8.5 64.5t-14 52.5t-19.5 33.5q41 8 90 30.5t93.5 53.5t77.5 67.5t42 72.5
q22 -9 58.5 -15.5t81.5 -11t94.5 -6.5t98.5 -2q38 0 76 1t73 4q37 39 48 100t11 136q0 23 -0.5 41.5t-2 35.5t-4.5 34t-7 38q9 -5 32 -9.5t56 -8t73.5 -5.5t85.5 -2q23 0 55.5 1.5t66.5 5t64 8t47 10.5q-6 -11 -11.5 -31t-9.5 -44.5t-6.5 -51t-2.5 -48.5q0 -39 2 -64.5
t5 -44.5t6.5 -34t6.5 -32q-15 3 -36 5.5t-43 5t-42.5 3.5t-33.5 1q-73 0 -117.5 -26.5t-50.5 -83.5q24 -27 55.5 -50.5t65.5 -41t69 -28.5t68 -14q-11 -12 -19.5 -35t-14 -52.5t-8.5 -64t-3 -69.5q0 -34 3 -66.5t8.5 -60t14.5 -49t21 -33.5q-9 2 -20 2.5t-20 0.5
q-47 0 -95 -19.5t-86.5 -48.5t-63.5 -63t-27 -63q-13 14 -40 24t-62 16t-76.5 8.5t-83.5 2.5q-37 0 -60 -5.5t-36 -15t-17.5 -21.5t-4.5 -25q0 -19 7.5 -33t24.5 -23t46 -13.5t72 -4.5q48 0 100.5 3t99 9t82.5 15.5t52 22.5q12 -35 47 -70t79.5 -64t92 -47t84.5 -18
q-11 -10 -19 -30.5t-13 -47t-7.5 -56t-2.5 -57.5q0 -29 3 -57.5t8.5 -53t13.5 -42.5t18 -26q-45 0 -93.5 -15.5t-92 -41t-76.5 -57t-46 -62.5q-14 6 -48 12.5t-81 12.5t-102.5 9.5t-112.5 3.5q-60 0 -120 -2.5t-111.5 -7.5t-89.5 -12t-53 -16q-6 28 -41 59t-82 57t-97.5 43
t-87.5 17q11 8 19.5 28t14.5 47t9 57t3 57q0 26 -3 56t-8.5 57t-14 48t-19.5 30zM562 662q0 -57 14 -95t38.5 -60.5t58 -32t71.5 -9.5t71.5 9.5t58 32t38.5 60.5t14 95t-14 95t-38.5 60.5t-58 32t-71.5 9.5t-71.5 -9.5t-58 -32t-38.5 -60.5t-14 -95zM580 -182
q0 -75 52.5 -116t155.5 -41t155.5 41t52.5 116t-52.5 116t-155.5 41t-155.5 -41t-52.5 -116z" />
    <glyph glyph-name="h" unicode="h" horiz-adv-x="1706" 
d="M126 0q8 26 11 62t3 71q0 32 -4 64t-10 63q56 0 92.5 5t58.5 17.5t30.5 35.5t8.5 59v168q0 32 -4.5 64t-13 58.5t-21.5 44.5t-30 23q36 12 52.5 54.5t16.5 123.5v297q-1 43 -11 68.5t-27.5 39t-43 18t-57.5 4.5h-31q8 20 14 55.5t6 74.5q0 38 -5.5 73.5t-14.5 56.5
q19 -3 46 -5t59 -3.5t68 -2.5t74 -1q51 0 103 2t99.5 6t88 11t67.5 18q-20 -39 -32.5 -87t-19.5 -102t-9 -113t-2 -120v-321q39 16 64.5 41t42 53t25 55.5t13.5 48.5q13 -8 39.5 -14.5t61 -11t73.5 -7t76 -2.5q33 0 67 2t64 6.5t54 11t36 15.5q32 -85 80.5 -144t129.5 -83
q-16 -20 -28 -43t-20.5 -52.5t-12.5 -67.5t-4 -88v-225q0 -36 8.5 -59t29 -35.5t53 -17.5t80.5 -5q-3 -12 -6 -25t-5 -29.5t-3.5 -38t-1.5 -50.5t3.5 -63t12.5 -54q-31 5 -72 9.5t-87.5 8t-97.5 5.5t-102 2q-41 0 -84.5 -1.5t-84.5 -5t-76.5 -8t-59.5 -10.5q3 12 5.5 28
t4 35t2.5 39t1 38q0 10 -1 27t-2.5 34.5t-4 33.5t-5.5 25q34 0 56.5 3.5t36.5 15.5t20 35.5t6 62.5v208q0 39 -8 74t-24.5 61.5t-42.5 42t-63 15.5q-25 0 -66.5 -8.5t-82 -29t-70 -55t-29.5 -85.5v-223q0 -65 40 -91t112 -26q-6 -21 -9.5 -52t-3.5 -66q0 -38 3 -76.5
t10 -65.5q-64 10 -152 17.5t-215 7.5q-48 0 -98.5 -1.5t-97 -5t-86.5 -8t-66 -10.5z" />
    <glyph glyph-name="i" unicode="i" horiz-adv-x="851" 
d="M127 1185q6 11 11.5 33t9 51t6 62.5t2.5 68.5q0 32 -2.5 62.5t-6.5 57t-9.5 47.5t-11.5 33q18 -6 47.5 -11.5t66 -9.5t77 -6.5t79.5 -2.5q36 0 78.5 1.5t82 5.5t71.5 9.5t48 13.5q-6 -13 -10.5 -34t-8 -47.5t-5 -57t-1.5 -61.5q0 -32 1.5 -63t5 -59.5t8 -52.5t10.5 -40
q-16 5 -46.5 8.5t-69 6t-80.5 4t-81 1.5t-80 -1.5t-78.5 -4t-67.5 -6t-46 -8.5zM47 0q8 26 11 62t3 71q0 32 -4 64t-10 63q56 0 98.5 5t71 17.5t43 35.5t14.5 59v278q-1 43 -15.5 68.5t-38.5 39t-55.5 18t-66.5 4.5h-32q8 20 14 55.5t6 74.5q0 38 -5.5 73.5t-14.5 56.5
q85 -4 158.5 -6t138.5 -2q121 0 209 9.5t151 33.5q-20 -39 -35 -74.5t-25.5 -75t-16 -86.5t-5.5 -108l-1 -359q0 -36 15.5 -59t42.5 -35.5t64 -17.5t80 -5q-6 -21 -9.5 -52t-3.5 -66q0 -38 2.5 -76.5t10.5 -65.5q-27 5 -74 9.5t-102.5 8t-116 5.5t-114.5 2
q-48 0 -104.5 -1.5t-111 -5t-100.5 -8t-72 -10.5z" />
    <glyph glyph-name="j" unicode="j" horiz-adv-x="856" 
d="M192 1185q6 11 11.5 33t9 51t6 62.5t2.5 68.5q0 32 -2.5 62.5t-6.5 57t-9.5 47.5t-11.5 33q18 -6 45 -11.5t60.5 -9.5t71.5 -6.5t77 -2.5q36 0 73 1.5t70 5.5t60 9.5t43 13.5q-6 -13 -10.5 -34t-8 -47.5t-5 -57t-1.5 -61.5q0 -32 1.5 -63t5 -59.5t8 -52.5t10.5 -40
q-16 5 -42.5 8.5t-60 6t-71.5 4t-77 1.5t-76.5 -1.5t-70 -4t-59 -6t-42.5 -8.5zM51 -136q31 0 60.5 2.5t54.5 6.5t42.5 8t24.5 7q0 -17 8.5 -31t21.5 -23.5t28.5 -15t30.5 -5.5q38 0 54.5 24t16.5 69q0 50 -21.5 70.5t-53.5 20.5q-8 0 -16 -1t-16 -3q5 6 8 26.5t4.5 49
t2 61.5t0.5 64q0 46 -0.5 86t-5.5 70.5t-16.5 50.5t-33.5 26q18 9 29.5 20.5t17.5 32.5t8.5 54t2.5 85v36q0 43 -10 68.5t-28 39t-44 18t-57 4.5h-31q8 20 14 55.5t6 74.5q0 38 -5.5 73.5t-14.5 56.5q31 -5 80 -7t108 -2q56 0 116.5 2.5t116.5 7.5t104 13.5t80 20.5
q-20 -39 -32.5 -88.5t-19.5 -105.5t-9 -116.5t-2 -121.5q0 -66 2 -106.5t8.5 -63.5t18.5 -33.5t32 -17.5q-23 -6 -35 -32.5t-17.5 -63t-6.5 -78.5t-1 -79q0 -34 2.5 -80.5t7 -98.5t11.5 -105t16.5 -98t22 -79t27.5 -48q-8 1 -15.5 1h-15.5q-62 0 -122.5 -19.5t-112 -50.5
t-91 -69.5t-60.5 -76.5q-18 7 -53 12.5t-75.5 9.5t-82 6t-71.5 2q-130 0 -211 -30q5 17 8.5 41t5.5 51.5t3 57t1 56.5q0 33 -1.5 65.5t-3.5 62t-5.5 54t-7.5 42.5q12 -5 33 -8t47.5 -5t57 -2.5t60.5 -0.5z" />
    <glyph glyph-name="k" unicode="k" horiz-adv-x="1703" 
d="M110 0q8 26 11 62t3 71q0 32 -4 64t-10 63q56 0 92.5 5t57.5 17.5t29 35.5t8 59v168q0 32 -4.5 64t-13 58.5t-21.5 44.5t-30 23q36 12 52.5 54.5t16.5 123.5v297q-1 43 -11 68.5t-27.5 39t-43 18t-57.5 4.5h-31q8 20 14 55.5t6 74.5q0 38 -5.5 73.5t-14.5 56.5
q19 -3 46 -5t59 -3.5t68 -2.5t74 -1q51 0 103 2t99.5 6t88 11t67.5 18q-20 -39 -32.5 -87t-19.5 -102t-9 -113t-2 -120l-1 -553q23 -3 48.5 -3h64.5q25 0 60.5 9.5t67.5 27.5t54.5 43.5t22.5 58.5q0 17 -22 30t-61 13q-24 0 -54 -6q5 20 7.5 46.5t2.5 52.5q0 45 -3 85.5
t-9 72.5q26 -7 67 -13.5t90.5 -11t103 -7.5t104.5 -3q45 0 93.5 2.5t91.5 7t77 11t51 14.5q-10 -35 -14 -81t-4 -94q0 -42 4 -79t12 -63q-48 0 -109.5 -11t-120 -33.5t-105.5 -56t-65 -78.5q15 -27 50 -45t78 -28.5t88.5 -14.5t82.5 -4q0 -36 13.5 -68.5t38 -58t60.5 -40.5
t81 -15q-8 -25 -14 -66.5t-6 -86.5q0 -48 5 -90.5t15 -66.5q-14 6 -40.5 10.5t-60.5 8t-71.5 5t-72.5 1.5q-69 0 -113 -6t-77 -19q0 41 -11 77.5t-29 63.5t-41.5 43t-48.5 16q13 22 20 45.5t7 49.5q0 30 -18.5 61t-56 56t-94 41t-132.5 16q-50 0 -108 -12v-80q0 -36 13 -59
t37.5 -35.5t59 -17.5t77.5 -5q-6 -21 -9.5 -52t-3.5 -66q0 -38 2.5 -76.5t10.5 -65.5q-27 5 -72.5 9.5t-99.5 8t-112.5 5.5t-112.5 2q-48 0 -98.5 -1.5t-97 -5t-86.5 -8t-66 -10.5z" />
    <glyph glyph-name="l" unicode="l" horiz-adv-x="859" 
d="M90 0q8 26 11 62t3 71q0 32 -4 64t-10 63q56 0 92.5 5t57.5 17.5t29 35.5t8 59v168q0 32 -3.5 64t-11.5 58t-21.5 44.5t-32.5 23.5q21 6 34.5 16.5t21 28.5t10.5 45.5t3 67.5v317q-1 43 -11 68.5t-27.5 39t-43 18t-57.5 4.5h-31q8 20 14 55.5t6 74.5q0 38 -5.5 73.5
t-14.5 56.5q19 -3 46 -5t59 -3.5t68 -2.5t74 -1q51 0 103 2t99.5 6t88 11t67.5 18q-21 -39 -33 -87t-19 -102t-9 -113t-2 -120l-1 -312q0 -40 3.5 -67.5t11.5 -45.5t21 -28t33 -15q-21 -6 -34.5 -24.5t-21 -44.5t-10.5 -57.5t-3 -63.5v-168q0 -36 13 -59t37.5 -35.5
t59 -17.5t77.5 -5q-6 -21 -9.5 -52t-3.5 -66q0 -38 2.5 -76.5t10.5 -65.5q-27 5 -72.5 9.5t-99.5 8t-112.5 5.5t-112.5 2q-48 0 -98.5 -1.5t-97 -5t-86.5 -8t-66 -10.5z" />
    <glyph glyph-name="m" unicode="m" horiz-adv-x="2389" 
d="M127 0q8 26 11 62t3 71q0 32 -4 64t-10 63q56 0 92.5 5t58.5 17.5t30.5 35.5t8.5 59v278q-1 43 -11 68.5t-27.5 39t-43 18t-57.5 4.5h-31q8 20 14 55.5t6 74.5q0 38 -5.5 72.5t-14.5 55.5q37 -5 91 -8t114 -3q44 0 88.5 2t86.5 6.5t79 11.5t66 18q-7 -20 -9.5 -40.5
t-2.5 -41.5q0 -28 3.5 -55.5t8.5 -53.5q41 15 67.5 40.5t43.5 54t26 57t15 49.5q13 -8 39.5 -14.5t61 -11t73.5 -7t76 -2.5q33 0 67 2t64 6.5t54 11t36 15.5q24 -66 57 -115t82 -81q37 16 61.5 41t40.5 52.5t24.5 54.5t13.5 48q13 -8 39.5 -14.5t61 -11t73.5 -7t76 -2.5
q33 0 67 2t64 6.5t54 11t36 15.5q32 -85 80.5 -144t129.5 -83q-16 -20 -28 -43t-20.5 -52.5t-12.5 -67.5t-4 -88v-225q0 -36 8.5 -59t29 -35.5t53 -17.5t80.5 -5q-3 -12 -6 -25t-5 -29.5t-3.5 -38t-1.5 -50.5t3.5 -63t12.5 -54q-31 5 -72 9.5t-87.5 8t-97.5 5.5t-102 2
q-41 0 -84.5 -1.5t-84.5 -5t-76.5 -8t-59.5 -10.5q3 12 5.5 28t4 35t2.5 39t1 38q0 10 -1 27t-2.5 34.5t-4 33.5t-5.5 25q34 0 56.5 3.5t36.5 15.5t20 35.5t6 62.5v208q0 39 -8 74t-24.5 61.5t-42.5 42t-63 15.5q-21 0 -55 -6t-69.5 -20.5t-66.5 -38t-46 -58.5
q-1 -13 -1 -26v-27v-225q0 -36 8.5 -59t29 -35.5t53 -17.5t80.5 -5q-3 -12 -6 -25t-5 -29.5t-3.5 -38t-1.5 -50.5t3.5 -63t12.5 -54q-31 5 -72 9.5t-87.5 8t-97.5 5.5t-102 2q-41 0 -84.5 -1.5t-84.5 -5t-76.5 -8t-59.5 -10.5q3 12 5.5 28t4 35t2.5 39t1 38q0 10 -1 27
t-2.5 34.5t-4 33.5t-5.5 25q34 0 56.5 3.5t36.5 15.5t20 35.5t6 62.5v208q0 39 -8 74t-24.5 61.5t-42.5 42t-63 15.5q-21 0 -56 -6.5t-71 -21.5t-67 -39.5t-45 -60.5l1 -273q0 -65 40 -91t112 -26q-6 -21 -9.5 -52t-3.5 -66q0 -38 3 -76.5t10 -65.5q-64 10 -152 17.5
t-215 7.5q-48 0 -98.5 -1.5t-97 -5t-86.5 -8t-66 -10.5z" />
    <glyph glyph-name="n" unicode="n" horiz-adv-x="1704" 
d="M139 0q8 26 11 62t3 71q0 32 -4 64t-10 63q56 0 92.5 5t58.5 17.5t30.5 35.5t8.5 59v278q-1 43 -11 68.5t-27.5 39t-43 18t-57.5 4.5h-31q8 20 14 55.5t6 74.5q0 38 -5.5 72.5t-14.5 55.5q37 -5 91 -8t114 -3q44 0 88.5 2t86.5 6.5t79 11.5t66 18q-7 -20 -9.5 -40.5
t-2.5 -41.5q0 -29 4 -57t9 -55q44 14 72.5 39.5t46 54.5t27 58.5t15.5 51.5q13 -8 39.5 -14.5t61 -11t73.5 -7t76 -2.5q33 0 67 2t64 6.5t54 11t36 15.5q32 -85 80.5 -144t129.5 -83q-16 -20 -28 -43t-20.5 -52.5t-12.5 -67.5t-4 -88v-225q0 -36 10.5 -59t32 -35.5t56 -17.5
t82.5 -5q-3 -12 -6 -25t-5 -29.5t-3.5 -38t-1.5 -50.5t3.5 -63t12.5 -54q-31 5 -73.5 9.5t-91 8t-101 5.5t-103.5 2q-41 0 -84.5 -1.5t-84.5 -5t-76.5 -8t-59.5 -10.5q3 12 5.5 28t4 35t2.5 39t1 38q0 10 -1 27t-2.5 34.5t-4 33.5t-5.5 25q34 0 56.5 3.5t36.5 15.5t20 35.5
t6 62.5v208q0 39 -8 74t-24.5 61.5t-42.5 42t-63 15.5q-25 0 -66.5 -8.5t-82 -29t-70 -55t-29.5 -85.5h-1l1 -223q0 -65 40 -91t112 -26q-6 -21 -9.5 -52t-3.5 -66q0 -38 3 -76.5t10 -65.5q-64 10 -152 17.5t-215 7.5q-48 0 -98.5 -1.5t-97 -5t-86.5 -8t-66 -10.5z" />
    <glyph glyph-name="o" unicode="o" horiz-adv-x="1535" 
d="M114 166q11 16 21 41t17.5 65.5t12 100t4.5 145.5q0 90 -4.5 146t-12 91.5t-17.5 57.5t-20 43q40 4 91 23.5t98.5 49.5t84.5 69t49 82q18 -8 52 -14.5t79 -11t98 -7t110 -2.5q52 0 101 3.5t90 8.5t71 11t45 12q12 -43 50 -82t86.5 -69t99 -49.5t87.5 -23.5
q-10 -20 -19.5 -41.5t-17 -57t-12 -91t-4.5 -143.5q0 -87 3 -147.5t9 -101.5t16.5 -66t25.5 -42q-25 0 -57 -7.5t-66.5 -20t-68 -29.5t-61.5 -36.5t-48 -40.5t-27 -42q-19 7 -51 13t-74 11t-92 8t-105 3q-54 0 -103.5 -3t-91 -7.5t-73 -11t-48.5 -13.5q-17 37 -57 69t-88 56
t-97.5 37.5t-85.5 13.5zM569 522q0 -85 10.5 -146t34.5 -100t62 -57.5t93 -18.5q58 0 95 24.5t58 67.5t29 102t8 128t-8 127.5t-29 101t-58 66t-95 23.5q-55 0 -93 -18t-62 -56.5t-34.5 -98.5t-10.5 -145z" />
    <glyph glyph-name="p" unicode="p" horiz-adv-x="1535" 
d="M303 -93q0 70 -2.5 129.5t-9.5 103.5t-19.5 71.5t-33.5 34.5q20 10 32.5 33t20 69t10 120t2.5 187q-1 43 -11 68.5t-27.5 39t-43 18t-57.5 4.5h-31q8 20 14 55.5t6 74.5q0 38 -5.5 72.5t-14.5 55.5q29 -4 61.5 -6t67.5 -2q72 0 146 10t138 35q3 -45 24 -88t54 -79
q24 10 49 26t47.5 37.5t40.5 47.5t27 56q11 -7 32.5 -13t50 -11t61 -8t65.5 -3q63 0 115 9t77 26q17 -36 47 -71.5t70.5 -65t90 -49.5t105.5 -24q-12 -26 -27.5 -106t-15.5 -221q0 -142 15.5 -222t27.5 -106q-56 -4 -105.5 -26.5t-90 -55t-70.5 -70.5t-47 -73
q-22 14 -67.5 24.5t-106.5 10.5q-63 0 -113 -10.5t-74 -24.5q-12 35 -53 71.5t-111 65.5v-299q0 -36 23.5 -59t64 -35.5t93 -17.5t111.5 -5q-6 -21 -9.5 -52t-3.5 -66q0 -38 3 -77t10 -66q-32 5 -85 9.5t-117 8.5t-133 6t-132 2q-48 0 -100 -2t-100.5 -5t-90 -8t-67.5 -11
q8 26 11 62.5t3 71.5q0 32 -4 64t-10 63q45 0 77 5t53 17.5t30.5 35.5t9.5 59zM678 542q0 -63 9 -116.5t31 -92.5t59.5 -61t95.5 -22q55 0 93 17t62 52.5t34.5 90.5t10.5 132t-10.5 131.5t-34.5 89.5t-62 51t-93 16q-58 0 -95.5 -21.5t-59.5 -60t-31 -91t-9 -115.5z" />
    <glyph glyph-name="q" unicode="q" horiz-adv-x="1704" 
d="M121 215q12 26 27.5 106t15.5 222q0 141 -15.5 221t-27.5 106q55 4 109 24t100.5 49.5t81.5 65t52 71.5q12 -9 32.5 -15.5t47 -11t56.5 -6.5t61 -2q33 0 65.5 3t61 8t50 11t32.5 13q10 -33 27.5 -59.5t39.5 -47t46.5 -34.5t48.5 -22q32 35 52 77.5t23 85.5q32 -12 70 -21
t79 -14t83 -7.5t82 -2.5q39 0 74.5 2t64.5 6q-9 -21 -14.5 -55.5t-5.5 -72.5q0 -39 6 -74.5t14 -55.5h-32q-35 0 -65.5 -4.5t-53 -18t-36 -39t-13.5 -68.5q0 -72 2.5 -141t10 -125t20 -94.5t32.5 -48.5q-21 -7 -33.5 -34.5t-19.5 -71.5t-9.5 -103.5t-2.5 -129.5l2 -79
q0 -36 22 -59t58 -35.5t80.5 -17.5t89.5 -5q-6 -31 -10 -63t-4 -64q0 -35 3 -71.5t11 -62.5q-27 6 -80.5 11t-117 8t-128 5t-112.5 2q-63 0 -132 -2t-133 -6t-117 -8.5t-85 -9.5q7 27 10 66t3 77q0 35 -3.5 66t-9.5 52q58 0 109.5 5t90 17.5t60.5 35.5t22 59v299
q-70 -29 -109 -65.5t-50 -71.5q-24 14 -74 24.5t-113 10.5q-61 0 -109 -10.5t-70 -24.5q-17 35 -52 73t-81 70.5t-100.5 55t-109.5 26.5zM585 542q0 -77 10.5 -132t34.5 -90.5t62 -52.5t93 -17q58 0 95 22t58 61t29 92.5t8 116.5t-8 115.5t-29 91t-58 60t-95 21.5
q-55 0 -93 -16t-62 -51t-34.5 -89.5t-10.5 -131.5z" />
    <glyph glyph-name="r" unicode="r" horiz-adv-x="1362" 
d="M110 0q8 26 11 62t3 71q0 32 -4 64t-10 63q56 0 92.5 5t58.5 17.5t30.5 35.5t8.5 59v278q-1 43 -11 68.5t-27.5 39t-43 18t-57.5 4.5h-31q8 20 14 55.5t6 74.5q0 38 -5.5 72.5t-14.5 55.5q29 -4 69.5 -6t87.5 -2q48 0 99.5 2.5t100.5 7.5t92.5 14t75.5 21
q-7 -20 -9.5 -40.5t-2.5 -42.5q0 -31 4.5 -62t9.5 -60q43 12 90.5 34.5t89 50.5t70.5 59t36 61q29 -17 75.5 -26t106.5 -9q24 0 50 1.5t50.5 5t45 10.5t33.5 18q-8 -20 -12.5 -50t-7 -64.5t-3.5 -70t-1 -66.5t2 -70.5t5 -76t7.5 -63.5t9.5 -34q-33 8 -82.5 13.5t-103.5 5.5
t-102 -5.5t-78 -13.5q0 107 -24.5 150t-72.5 43q-24 0 -52.5 -13.5t-53 -39.5t-42.5 -63.5t-21 -85.5l1 -199q0 -36 20.5 -59t56.5 -35.5t86 -17.5t109 -5q-6 -21 -9.5 -52t-3.5 -66q0 -38 3 -76.5t10 -65.5q-32 5 -79 9.5t-103 8t-119 5.5t-126 2q-48 0 -107.5 -1.5
t-117.5 -5t-107.5 -8t-75.5 -10.5z" />
    <glyph glyph-name="s" unicode="s" horiz-adv-x="1195" 
d="M115 22q8 21 12.5 63.5t4.5 94.5q0 42 -5 85t-12 70q12 -6 34.5 -10.5t50 -8t58 -5t58.5 -1.5q54 0 100.5 6.5t74.5 18.5q0 -29 8.5 -54.5t27 -45t48 -31t70.5 -11.5q54 0 86.5 21t32.5 69q0 38 -25.5 66t-71 46.5t-108.5 27.5t-137 9q-23 0 -50.5 -0.5t-53.5 -2.5
t-47.5 -5.5t-31.5 -8.5q0 26 -18.5 55t-44.5 54t-54.5 43t-48.5 22q8 9 14 25t10 36.5t6 43t2 43.5q0 45 -7.5 88.5t-24.5 69.5q36 7 72 24.5t67.5 42t56 55t36.5 63.5q10 -6 40 -12t71 -11t88 -8t91 -3q81 0 129 14t61 40q14 -19 42.5 -33.5t63 -24t71.5 -14t70 -4.5
q20 0 36.5 2t29.5 5l-5.5 -38.5t-4 -34t-2.5 -33.5t-1 -37q0 -38 2.5 -75t10.5 -66q-17 11 -57.5 15.5t-91.5 4.5q-28 0 -57.5 -1.5t-55 -4t-45 -6t-27.5 -8.5q0 66 -46 103.5t-122 37.5q-63 0 -88.5 -22.5t-25.5 -56.5q0 -33 33.5 -63t88.5 -52.5t124 -35.5t141 -13
q18 0 36.5 1t35.5 3t31.5 5.5t23.5 8.5q3 -30 22.5 -59t46 -54t54 -43.5t47.5 -26.5q-13 -20 -20.5 -60.5t-7.5 -86.5q0 -42 6 -80.5t22 -60.5q-36 -10 -70.5 -27t-64.5 -40t-54.5 -51.5t-39.5 -61.5q-40 14 -112 24t-166 10q-42 0 -72 -3t-51 -8.5t-35 -13.5t-23 -19
q-15 9 -37.5 15.5t-50 10.5t-57 6t-57.5 2q-51 0 -93 -2t-68 -12z" />
    <glyph glyph-name="t" unicode="t" horiz-adv-x="1195" 
d="M197 206q33 40 44 102t11 149v289q-1 18 -5.5 32.5t-15 25t-28.5 16.5t-45 6q-15 0 -32.5 -2t-39.5 -6q5 29 7 63t2 69q0 32 -2 63t-7 57q10 -7 25 -11.5t30 -7.5t28 -4.5t20 -1.5q29 0 43.5 22.5t14.5 78.5q0 9 -0.5 25t-1.5 33t-3.5 32t-6.5 23q8 -2 16 -2h17
q51 0 107.5 17t110 37t99.5 37t76 17q-8 -24 -13 -53t-8 -58t-4.5 -56.5t-1.5 -46.5q0 -33 8 -53.5t28.5 -32t57 -16t93.5 -4.5q24 0 56.5 0.5t67.5 3t69.5 7.5t63.5 14q-10 -26 -14 -61t-4 -72q0 -42 4 -78t14 -64q-34 3 -74.5 7t-80.5 7.5t-74 6t-55 2.5q-50 0 -82.5 -4.5
t-51.5 -14t-26.5 -24t-7.5 -33.5v-268q0 -39 4.5 -82.5t16.5 -80.5t33 -61.5t54 -24.5q36 0 60.5 14.5t39.5 40.5t21.5 61.5t6.5 78.5q22 -5 59 -10t76 -5q38 0 71.5 5t51.5 10q-8 -22 -11.5 -61.5t-3.5 -84.5t3 -84t12 -58h-10q-37 0 -79.5 -11.5t-81.5 -30.5t-71.5 -42.5
t-49.5 -47.5q-8 6 -30.5 10.5t-52 8t-62.5 5t-63 1.5t-62.5 -1.5t-63.5 -5t-56.5 -8t-40.5 -10.5q-9 35 -27.5 68.5t-44.5 61.5t-58.5 48t-69.5 28z" />
    <glyph glyph-name="u" unicode="u" horiz-adv-x="1538" 
d="M161 206q32 40 44 102t11 149l-2 198q-1 43 -10 68.5t-26 39t-42 18t-57 4.5h-31q8 20 14 55.5t6 74.5q0 38 -5.5 73.5t-14.5 56.5q31 -5 80 -7t108 -2q56 0 116.5 2.5t116.5 7.5t104 13.5t80 20.5q-20 -39 -32.5 -88.5t-19.5 -105.5t-9 -116.5t-2 -121.5v-174
q0 -39 5 -75t20 -64.5t42 -45.5t71 -17q45 0 91.5 9t85 31.5t62.5 60.5t24 95v187q-1 38 -6.5 63t-21.5 40t-44.5 21t-76.5 6h-21q8 20 14 55.5t6 74.5q0 38 -5.5 73.5t-14.5 56.5q31 -5 80 -7t108 -2q56 0 116.5 2.5t116.5 7.5t104 13.5t80 20.5q-21 -24 -34 -57.5
t-19.5 -74t-8.5 -86.5t-2 -93q0 -31 0.5 -61.5t0.5 -59.5l-1 -258q0 -41 2.5 -66.5t17.5 -39.5t47.5 -19t92.5 -5q-8 -23 -12.5 -56.5t-4.5 -67.5q0 -38 3.5 -75.5t13.5 -60.5q-24 11 -78 18t-118 7q-72 0 -131 -7t-91 -18q0 35 -6.5 62t-16.5 48t-23 36t-26 26
q-42 -8 -81 -27t-71.5 -43.5t-55.5 -51.5t-32 -50q-8 6 -30.5 10.5t-52 8t-62.5 5t-63 1.5t-62.5 -1.5t-63.5 -5t-56.5 -8t-40.5 -10.5q-9 35 -27.5 68.5t-44.5 61.5t-58.5 48t-69.5 28z" />
    <glyph glyph-name="v" unicode="v" horiz-adv-x="1364" 
d="M476 0q1 7 1.5 16.5t0.5 17.5q0 43 -17 103t-51 130q-35 72 -73 114t-75 53q17 6 17 32q0 13 -1.5 35.5t-9.5 52t-24 64.5t-46 73q-17 22 -36.5 41.5t-46 34.5t-61.5 24t-83 9q5 29 8.5 63.5t3.5 76.5q0 37 -3 71.5t-9 58.5q15 -6 52.5 -10.5t89.5 -7.5t112 -5t120 -2
q64 0 123 0.5t109.5 3t90 7.5t63.5 14q-6 -25 -9 -54t-3 -66q0 -42 2.5 -81.5t7.5 -68.5q-75 0 -107.5 -16t-32.5 -51q0 -27 18 -71t45 -100t57 -121.5t54 -135.5q26 63 57 125t57.5 118t44.5 104t18 84q0 40 -29 52t-95 12q5 29 7.5 68.5t2.5 81.5q0 72 -12 120
q13 -9 43.5 -14t70.5 -7.5t85.5 -3t89.5 -0.5q49 0 95 1.5t83.5 5t64 8t36.5 10.5q-5 -20 -7.5 -52t-2.5 -68q0 -42 2.5 -81.5t7.5 -68.5q-24 0 -50 -7t-51.5 -21.5t-49 -36.5t-40.5 -51q-24 -35 -38.5 -67.5t-22 -61t-9.5 -51.5t-2 -38q0 -26 17 -32q-37 -8 -72.5 -41.5
t-63 -85t-44.5 -118t-17 -139.5q0 -14 1.5 -26.5t3.5 -23.5q-9 5 -38 9.5t-66.5 8t-76.5 5.5t-67 2q-31 0 -63.5 -2.5t-62 -6t-54.5 -8t-40 -8.5z" />
    <glyph glyph-name="w" unicode="w" horiz-adv-x="2046" 
d="M490 0q1 7 1.5 16.5t0.5 17.5q0 43 -12 103t-45 130q-34 72 -71.5 114t-73.5 53q17 6 17 32q0 13 -1.5 35.5t-9 52t-23.5 64.5t-45 73q-17 22 -43.5 43t-56.5 38t-61 27.5t-57 10.5q5 29 8.5 63.5t3.5 76.5q0 72 -12 120q29 -11 99.5 -18t191.5 -7q62 0 131 0.5t131.5 3
t112 7.5t73.5 14q-6 -25 -9 -54t-3 -66q0 -84 10 -140q-72 0 -104.5 -16t-32.5 -51q0 -27 17.5 -72.5t43.5 -103t55.5 -124.5t53.5 -138q25 64 55 127t56 121t44 107.5t18 85.5q0 40 -29 52t-92 12q4 29 6.5 63.5t2.5 76.5q0 37 -3 66.5t-8 53.5q48 -10 112.5 -17.5
t149.5 -7.5q127 0 206.5 7.5t104.5 17.5q-6 -25 -9 -54t-3 -66q0 -84 10 -140q-44 0 -72 -4t-44.5 -12t-23 -20.5t-6.5 -30.5q0 -27 17.5 -72.5t43.5 -103t55.5 -124.5t53.5 -138q25 64 55 127t56 121t44 107.5t18 85.5q0 40 -32.5 52t-89.5 12q10 56 10 140q0 72 -12 120
q13 -9 44 -14t71.5 -7.5t86.5 -3t88 -0.5q37 0 82 2t86 5t72.5 7.5t42.5 10.5q-6 -25 -8 -54t-2 -66q0 -84 10 -140q-55 0 -108.5 -33t-95.5 -93q-24 -34 -38 -67t-21.5 -61.5t-9.5 -51.5t-2 -38q0 -26 17 -32q-27 -8 -61.5 -42.5t-66 -87t-53 -118.5t-21.5 -136
q0 -14 1.5 -26.5t3.5 -23.5q-9 5 -37.5 9.5t-65 8t-74.5 5.5t-66 2q-30 0 -61.5 -2.5t-60.5 -6t-53.5 -8t-39.5 -8.5q1 7 1.5 16.5t0.5 17.5q0 27 -4.5 61.5t-15.5 74t-30 83t-48 88.5q-24 -33 -42 -72.5t-30 -78.5t-18 -75.5t-6 -64.5q0 -14 1.5 -26.5t3.5 -23.5
q-9 5 -37.5 9.5t-65 8t-74.5 5.5t-65 2q-30 0 -61.5 -2.5t-61 -6t-53.5 -8t-39 -8.5z" />
    <glyph glyph-name="x" unicode="x" horiz-adv-x="1364" 
d="M54 4q8 27 10.5 60t2.5 73q0 34 -3 69t-10 57q81 0 140.5 16.5t108.5 49.5t92.5 82.5t92.5 115.5q-43 45 -96.5 95t-110 92t-113 69.5t-104.5 27.5q5 24 9 55.5t4 66.5q0 42 -3.5 75t-9.5 62q25 -11 66 -16.5t88.5 -8t97.5 -3t95 -0.5q48 0 97.5 1t94.5 4t83 8.5t64 14.5
q-10 -25 -13.5 -53t-3.5 -65q0 -34 5.5 -59t13.5 -42q-53 0 -72 -12.5t-19 -33.5q0 -16 11 -34.5t29 -38.5t40.5 -40.5t45.5 -40.5q19 18 39.5 39t38 42.5t28.5 42t11 37.5q0 23 -14.5 31.5t-36.5 8.5q-4 0 -7.5 -0.5t-8.5 -0.5q3 20 5.5 46.5t2.5 54.5q0 14 -0.5 30.5
t-1.5 33t-3 31t-4 23.5q21 -12 86.5 -20t162.5 -8q93 0 145.5 8t77.5 20q-3 -11 -6 -28t-5.5 -36t-4 -38t-1.5 -35q0 -35 1 -66.5t8 -55.5q-83 0 -140 -23.5t-100.5 -63t-77.5 -90.5t-70 -106q45 -48 92.5 -94.5t97.5 -84t102.5 -61t108.5 -25.5q-5 -22 -10 -53.5t-5 -63.5
q0 -42 4.5 -77.5t10.5 -64.5q-29 6 -65 10.5t-76.5 8t-83.5 5t-84 1.5q-94 0 -177.5 -7.5t-143.5 -17.5q6 25 10.5 55.5t4.5 67.5q0 20 -5 41t-10 35q36 0 54 13.5t18 33.5q0 16 -10 33t-27.5 35t-40.5 37.5t-49 40.5q-26 -23 -48.5 -43t-39.5 -38t-27 -35t-10 -33
q0 -24 17 -34.5t53 -10.5q5 0 9 0.5t9 0.5q-5 -14 -8.5 -35t-3.5 -41q0 -37 4 -67.5t10 -55.5q-23 5 -55.5 9.5t-70 8t-77.5 5.5t-79 2q-75 0 -143.5 -7t-113.5 -18z" />
    <glyph glyph-name="y" unicode="y" horiz-adv-x="1364" 
d="M10 -120q12 -5 34 -8t50 -5t59.5 -2.5t62.5 -0.5t60.5 0.5t54.5 2.5t44 5t28 8q0 -48 24 -76.5t66 -28.5q38 0 62 32t24 79q0 55 -28.5 86t-76.5 31q-14 0 -29 -3q1 7 1.5 16.5t0.5 17.5q0 43 -12 103t-46 130q-35 72 -73 114.5t-75 53.5q17 6 17 31q0 13 -1.5 35.5
t-9.5 52t-24 64.5t-46 73q-17 22 -39 43t-47.5 38t-52.5 27.5t-54 10.5q5 29 8.5 63.5t3.5 76.5q0 72 -12 120q15 -6 35.5 -10.5t51.5 -8t75 -5t106 -1.5q64 0 134.5 0.5t134.5 3t114.5 7.5t74.5 14q-6 -25 -9 -54t-3 -66q0 -84 10 -140q-75 0 -107.5 -16t-32.5 -51
q0 -27 18 -72t45 -102.5t57 -124.5t54 -138q26 63 57 126.5t57.5 121t44.5 107t18 85.5q0 40 -29 52t-95 12q10 56 10 140q0 72 -12 120q13 -9 44.5 -14t73 -7.5t88.5 -3t90 -0.5q38 0 84 1.5t88 5t74.5 8t43.5 10.5q-6 -25 -8 -54t-2 -66q0 -84 10 -140q-57 0 -112 -33
t-97 -93q-24 -35 -38.5 -67.5t-22 -61t-9.5 -51.5t-2 -38q0 -25 17 -31q-43 -12 -86 -62t-87 -150q-16 -37 -36 -89t-40 -110.5t-38.5 -119t-33 -113t-23.5 -92.5t-9 -59q-28 -3 -71 -15t-90 -35t-93 -57.5t-80 -82.5q-36 14 -87 22t-112 8q-66 0 -121.5 -7.5t-97.5 -22.5
q5 17 8.5 41t5.5 51.5t3 57t1 56.5q0 33 -1.5 65.5t-3.5 62t-5.5 54t-7.5 42.5z" />
    <glyph glyph-name="z" unicode="z" horiz-adv-x="1370" 
d="M120 -10q7 12 12.5 31t9.5 42.5t6 50t2 52.5q0 28 -2 60t-6 62t-9.5 55.5t-12.5 40.5q50 10 114 34.5t132 58.5t136 76t127 86.5t104 89.5t67 86q-19 30 -60 44t-90 14q-42 0 -71.5 -16.5t-48 -44.5t-26.5 -65.5t-8 -79.5q-28 12 -65.5 18.5t-91.5 6.5q-63 0 -123 -6.5
t-96 -18.5q9 29 14.5 75t5.5 98q0 63 -6 122.5t-14 107.5q38 -9 95.5 -14t126 -7.5t144 -3t150.5 -0.5q88 0 183.5 2t182.5 6.5t158 11t110 15.5q-16 -43 -23 -103.5t-7 -135.5q0 -56 5 -98t13 -85q-40 -5 -97.5 -28.5t-122.5 -58.5t-132.5 -77.5t-127 -86.5t-106.5 -85
t-71 -72q15 -35 57 -52.5t102 -17.5q46 0 77 13.5t49.5 40t26 66t7.5 90.5q63 -26 174 -26q27 0 56.5 2t57 5t50.5 8t37 11q-4 -14 -8.5 -38.5t-8 -54t-6 -60.5t-2.5 -58q0 -67 7.5 -112.5t17.5 -66.5q-44 6 -106 10.5t-135 8t-153 5t-159 1.5q-89 0 -183 -2.5t-178.5 -7
t-153 -11t-107.5 -14.5z" />
    <glyph glyph-name="braceleft" unicode="{" horiz-adv-x="1021" 
d="M260 -12q11 15 19 43t12.5 64t6.5 76.5t2 81.5v185q0 63 -11 102.5t-32 61t-52 29t-70 7.5q7 14 9.5 34t2.5 42t-2.5 42t-9.5 34q39 0 70 7.5t52 29t32 61t11 102.5v210q0 40 -2 81t-6.5 76.5t-12.5 64t-19 43.5q5 -1 9.5 -1h9.5q44 0 87 18.5t78.5 46.5t59 60.5
t29.5 60.5q15 -5 34.5 -9.5t42 -8t46.5 -5.5t47 -2q52 0 95.5 6.5t71.5 18.5q-7 -20 -11 -56.5t-4 -78.5q0 -23 4.5 -43t10.5 -32q-66 0 -103.5 -11.5t-56.5 -38.5t-24 -71t-5 -110v-269q0 -62 -13.5 -101.5t-35.5 -64t-51 -38t-60 -22.5q31 -9 60 -22.5t51 -38t35.5 -64.5
t13.5 -101v-244q0 -66 5 -110t24 -71t56.5 -38.5t103.5 -11.5q-6 -21 -10.5 -57t-4.5 -78q0 -24 4 -44t11 -31q-28 12 -71.5 18.5t-95.5 6.5q-23 0 -47 -2t-46.5 -5.5t-42 -8t-34.5 -9.5q-6 29 -29.5 61.5t-59 60.5t-79 46t-88.5 18q-5 0 -9 -0.5t-8 -0.5z" />
    <glyph glyph-name="bar" unicode="|" horiz-adv-x="681" 
d="M157 -150q8 55 12.5 106t7 100.5t3 99t0.5 101.5v1019v124.5t-2.5 116.5t-7 94.5t-13.5 58.5q17 -6 40 -10t48 -6t50 -3t46 -1t45.5 1t49.5 3t48 6t41 10q-9 -18 -13.5 -58.5t-7 -94.5t-2.5 -116.5v-124.5v-1019q0 -52 0.5 -101.5t3 -99t7 -100.5t12.5 -106
q-14 4 -38.5 7.5t-51.5 6.5t-52.5 4.5t-42.5 1.5t-42.5 -1.5t-52 -4.5t-50.5 -6.5t-38 -7.5z" />
    <glyph glyph-name="braceright" unicode="}" horiz-adv-x="1021" 
d="M761.016 -12q-10.999 15 -18.999 43q-7.99902 28 -12.499 64t-6.49902 76.5q-2 40.5 -2 81.5v185q0 63 10.999 102.5t31.998 61t51.9971 29t69.9951 7.5q-6.99902 14 -9.49902 34t-2.5 42t2.5 42t9.49902 34q-38.9971 0 -69.9951 7.5t-51.9971 29t-31.998 61
t-10.999 102.5v210q0 40 2 81q1.99902 41 6.49902 76.5t12.499 64q8 28.5 18.999 43.5q-4.99902 -1 -9.49902 -1h-9.5q-43.9971 0 -86.9941 18.5t-78.4951 46.5t-58.9971 60.5q-23.498 32.5 -29.498 60.5q-14.999 -5 -34.498 -9.5q-19.498 -4.5 -41.9971 -8
q-22.498 -3.5 -46.4971 -5.5t-46.9971 -2q-51.9971 0 -95.4941 6.5t-71.4961 18.5q7 -20 11 -56.5q3.99902 -36.5 3.99902 -78.5q0 -23 -4.49902 -43q-4.5 -20 -10.5 -32q65.9961 0 103.494 -11.5t56.4961 -38.5q18.999 -27 23.999 -71t5 -110v-269q0 -62 13.499 -101.5
t35.498 -64q21.998 -24.5 50.9961 -38t59.9971 -22.5q-30.999 -9 -59.9971 -22.5t-50.9961 -38q-21.999 -24.5 -35.498 -64.5t-13.499 -101v-244q0 -66 -5 -110t-23.999 -71q-18.998 -27 -56.4961 -38.5t-103.494 -11.5q6 -21 10.5 -57q4.49902 -36 4.49902 -78
q0 -24 -3.99902 -44q-4 -20 -11 -31q27.999 12 71.4961 18.5t95.4941 6.5q22.998 0 46.9971 -2t46.4971 -5.5q22.499 -3.5 41.9971 -8q19.499 -4.5 34.498 -9.5q6 29 29.498 61.5q23.499 32.5 58.9971 60.5t78.9951 46t88.4941 18q5 0 9 -0.5q3.99902 -0.5 7.99902 -0.5z
" />
    <glyph glyph-name="asciitilde" unicode="~" horiz-adv-x="1533" 
d="M86 498q7 9 12.5 28t9 43.5t5 53.5t1.5 59q0 25 -2 49t-6 44t-9 33.5t-11 16.5q85 0 149.5 28t109.5 71t71.5 92.5t36.5 93.5q93 -4 160.5 -22t118 -43t88.5 -53.5t72 -52t68.5 -39t77.5 -15.5q25 0 43 9.5t29 24t16 33t5 36.5q0 39 -4.5 75.5t-14.5 59.5q20 -16 66 -21
t98 -5q29 0 58 2t52.5 5.5t39.5 8t20 10.5q-8 -9 -13.5 -28t-8.5 -43.5t-4.5 -53.5t-1.5 -59q0 -25 2 -49t6 -44t9 -33.5t11 -16.5q-86 0 -150 -28t-109 -71t-71.5 -93t-36.5 -93q-93 4 -160.5 22t-118 43t-88.5 53.5t-72 52t-68.5 39t-77.5 15.5q-26 0 -44 -9.5t-29 -24
t-15.5 -33t-4.5 -36.5q0 -39 4.5 -75.5t14.5 -59.5q-10 7 -27.5 12t-39 8t-46.5 4.5t-51 1.5q-29 0 -58 -2t-52.5 -5.5t-39.5 -8t-20 -10.5z" />
    <glyph glyph-name="nonbreakingspace" unicode="&#xa0;" horiz-adv-x="838" 
 />
    <glyph glyph-name="exclamdown" unicode="&#xa1;" horiz-adv-x="705" 
d="M239 1000.03q0 -3 -0.5 -6.5t-0.5 -8.5q0 -12.999 0.5 -28.998t0.5 -34.998q0 -29.998 -3 -63.4961t-13.5 -63.9961t-31 -53.9961q-20.5 -23.499 -55.5 -34.498q18 -3 28.5 -27.498q10.5 -24.499 10.5 -83.4951q0 -37.998 -5 -92.4941q-5 -54.4971 -15 -129.492
q-5 -35.998 -12.5 -89.4951q-7.5 -53.4961 -16.5 -108.493q-9 -54.9961 -19 -102.493q-10 -47.498 -19 -71.4961q18 6 50 11.999q32 6 70 11.5q38 5.49902 78 8.49902t75 3q39 0 82 -3t82 -8.49902q39 -5.5 71 -11.5q32 -5.99902 50 -11.999q-14 50.9971 -26 108.993
q-12 57.9971 -22 116.993t-17 115.493q-7 56.4961 -12 105.493t-7.5 87.4951q-2.5 38.4971 -2.5 59.4961q0 58.9961 10.5 83.4951q10.5 24.498 28.5 27.498q-33 11.999 -53.5 39.9971q-20.5 27.999 -32 63.4961q-11.5 35.498 -16 72.9961t-4.5 68.4961q0 31.998 3 49.9971
q-21 -6 -47.5 -10.5t-80.5 -4.5t-80.5 4.5t-47.5 10.5zM119 1440q11 -22.999 20 -68.4961t9 -111.493q0 -30.998 -2.5 -59.9961t-6.5 -53.9971q-4 -24.998 -9.5 -44.4971t-11.5 -31.498q18 6 45 11.499q27 5.5 61 9.5t72 6.49902q38 2.5 77 2.5q36 0 73 -1.5t70 -5.49902
q33 -4 59.5 -9.5q26.5 -5.49902 42.5 -13.499q-13 23.999 -19 76.9951q-6 52.9971 -6 112.993q0 56.9971 6 103.494t19 76.4951q-16 -5 -42.5 -9.49902q-26.5 -4.5 -60 -8t-71.5 -5.5q-38 -1.99902 -77 -1.99902t-76.5 1.99902q-37.5 2 -70.5 5.5t-59 8
q-26 4.49902 -42 9.49902z" />
    <glyph glyph-name="cent" unicode="&#xa2;" horiz-adv-x="1525" 
d="M182 166q16 17 26.5 55t17 87t9 104t2.5 106q0 50 -3 103t-10 100t-17 84t-25 55q40 4 90 23t96.5 48t84 67.5t53.5 81.5q22 -12 69 -21.5t107 -12.5q-2 43 -5.5 92t-8.5 92.5t-12.5 76t-17.5 43.5q21 -8 60.5 -11.5t88.5 -3.5q29 0 58 0.5t54 2.5t44.5 4.5t28.5 7.5
q-9 -14 -17.5 -43.5t-15 -68.5t-12 -83.5t-9.5 -86.5q47 14 70 32q14 -19 38 -34.5t55 -27t67 -17.5t74 -6q53 0 79 4.5t41 8.5q-12 -32 -18.5 -87t-6.5 -111q0 -30 1.5 -60.5t5 -57.5t8 -48.5t10.5 -33.5q-25 12 -66 17.5t-98 5.5t-101 -5.5t-74 -17.5q-8 106 -47 159.5
t-122 53.5q-41 0 -77 -13t-62.5 -47.5t-42 -93.5t-15.5 -151q0 -104 14.5 -167.5t39 -99t58.5 -47.5t73 -12q52 0 87 18.5t56 48.5t31 69.5t13 81.5q35 -13 81.5 -17.5t94.5 -4.5q43 0 83.5 4.5t73.5 17.5q-5 -15 -9 -36.5t-6.5 -44t-3.5 -44.5t-1 -39q0 -31 1.5 -54.5
t4.5 -42.5t6.5 -35t7.5 -31q-8 1 -16 1.5t-16 0.5q-42 0 -89.5 -10t-93 -26t-86 -36.5t-67.5 -42.5q-14 5 -31 10.5t-38 10.5q3 -42 7.5 -86.5t11 -84t14.5 -70t18 -43.5q-9 4 -30.5 7t-49 4.5t-58.5 2.5t-58 1q-49 0 -86 -3.5t-58 -11.5q10 11 18 41.5t14.5 71t11 87
t7.5 89.5q-39 -5 -72.5 -12t-54.5 -14q-4 17 -23.5 37t-49 39.5t-65.5 37.5t-73 32t-72.5 22t-63.5 8h-11z" />
    <glyph glyph-name="sterling" unicode="&#xa3;" horiz-adv-x="1529" 
d="M40 0q6 25 10.5 60.5t4.5 73.5q0 35 -5 68.5t-10 57.5q79 0 125.5 11t70 44t30 93.5t6.5 159.5q0 46 -15 68.5t-59 22.5q-18 0 -40 -3t-54 -10q5 24 7.5 49t2.5 60q0 31 -1.5 51t-8.5 42q60 -18 92 -18q22 0 37 15t24 38t13 50t4 51q0 38 -6 75.5t-15.5 69.5t-21.5 57
t-24 38q33 4 70.5 27t71 55t57.5 68t30 66q22 -15 71 -20t106 -5q88 0 146 19t89 51q14 -19 38 -35t55 -27.5t67 -18t74 -6.5q40 0 68.5 1.5t49 3.5t35.5 4t27 4q-11 -32 -18 -66.5t-7 -91.5q0 -60 7 -98t18 -62q-66 23 -224 23q-57 0 -101 -5.5t-74 -17.5q0 33 -4.5 60.5
t-16.5 47t-32.5 30t-51.5 10.5q-28 0 -53 -11t-43.5 -38t-29.5 -72.5t-11 -115.5q0 -58 5.5 -92.5t20.5 -52.5t41 -23.5t67 -5.5q19 0 45 1.5t56.5 3.5t64 5.5t66.5 7.5q-7 -22 -8.5 -42t-1.5 -51q0 -35 1.5 -60t8.5 -49q-34 3 -67.5 5.5t-64.5 4t-57 2.5t-45 1
q-33 0 -54 -4.5t-34 -15t-18 -29.5t-5 -47l1 -292q26 -16 58 -28.5t64.5 -20.5t63 -12.5t54.5 -4.5q60 0 103 12t70.5 42t41 79.5t13.5 124.5q0 45 -4 86.5t-9 65.5q39 -14 90 -19.5t97 -5.5q52 0 99 7t79 18q-4 -11 -9.5 -35.5t-12 -59t-13 -75.5t-11.5 -84t-8.5 -85.5
t-3.5 -79.5q0 -58 9 -110.5t28 -85.5q-19 4 -65.5 7.5t-108 6t-131.5 5t-137 4t-124.5 2t-93.5 0.5q-27 0 -70 -0.5t-95.5 -1t-111.5 -2l-118 -3t-115 -3.5t-102.5 -4.5t-80.5 -5t-49 -5.5z" />
    <glyph glyph-name="currency" unicode="&#xa4;" horiz-adv-x="1700" 
d="M156 287q16 1 43.5 14.5t60.5 34.5t68 46.5t66 51.5q-35 60 -54 127t-19 142t19.5 142t54.5 127q-32 25 -67 51t-68 47t-60.5 35t-43.5 15q15 5 39.5 24t53.5 44.5t59 56t56 59.5t44.5 53.5t24.5 39.5q1 -17 14.5 -44.5t34.5 -60.5t46.5 -68.5t51.5 -66.5q60 35 127 54.5
t142 19.5t141.5 -19.5t126.5 -54.5q25 31 51 66t47 68t35 60.5t15 44.5q5 -15 24 -39.5t44.5 -53.5t56 -59.5t59.5 -56t53.5 -44.5t39.5 -24q-17 -1 -44.5 -15t-60.5 -35t-68 -47t-66 -51q35 -60 54.5 -126.5t19.5 -141.5t-19.5 -141.5t-54.5 -126.5q31 -26 66 -51.5
t68 -46.5t60.5 -34.5t44.5 -14.5q-15 -6 -40 -24.5t-53.5 -44.5t-59 -56t-56 -59t-44 -53.5t-24.5 -38.5q-1 16 -15 43t-35 60t-46.5 68t-50.5 66q-60 -35 -127 -54.5t-142 -19.5t-142 19t-127 54q-26 -31 -51.5 -66t-46.5 -68t-34.5 -60.5t-14.5 -43.5q-6 15 -24.5 39.5
t-44.5 53.5t-56 59t-59 56t-53.5 44.5t-39.5 24.5zM585 703q0 -55 20.5 -103t56.5 -84t84 -56.5t103 -20.5t103 20.5t84 56.5t56.5 84t20.5 103t-20.5 103t-56.5 84t-84 56.5t-103 20.5t-103 -20.5t-84 -56.5t-56.5 -84t-20.5 -103z" />
    <glyph glyph-name="yen" unicode="&#xa5;" horiz-adv-x="1877" 
d="M257 372q5 24 7.5 47.5t2.5 58.5q0 31 -1.5 49.5t-8.5 40.5q66 -9 118 -12t94 -3q201 0 201 49q0 38 -52 59t-137 21q-18 0 -43.5 -0.5t-55.5 -1t-62 -2.5t-63 -5q5 24 7.5 47t2.5 58q0 31 -1.5 49.5t-8.5 40.5q64 -12 120 -12q47 0 76 9t29 28q0 25 -19.5 56t-51.5 63
t-73.5 62t-85 53.5t-85.5 38t-76 14.5h-8q5 24 7.5 55.5t2.5 67.5q0 39 -2.5 75.5t-7.5 61.5q37 -6 86.5 -12t105.5 -11.5t116.5 -8.5t121.5 -3q62 0 122 2t114.5 6.5t102 11t84.5 15.5q-3 -17 -5.5 -53.5t-2.5 -81.5q0 -18 0.5 -38t1.5 -37.5t2.5 -30.5t3.5 -19
q-33 0 -64 -2t-54 -10t-37 -23.5t-14 -43.5q0 -29 27 -69.5t65 -88.5t80 -100.5t72 -104.5q34 48 78 100t83 101.5t66 92.5t27 74q0 28 -16 43t-41 22t-56 8t-62 1q1 6 2.5 19.5t2.5 30.5t2 36.5t1 38.5q0 45 -2.5 81.5t-5.5 53.5q85 -19 173.5 -27t179.5 -8q94 0 181.5 8
t168.5 27q-6 -25 -8 -61.5t-2 -75.5q0 -36 2.5 -67.5t7.5 -55.5q-42 -6 -88 -25.5t-90.5 -46.5t-84 -58.5t-70 -62.5t-48 -58.5t-17.5 -45.5q0 -17 26.5 -25t67.5 -8q27 0 58 3t63 10q-3 -11 -5 -20t-3 -18.5t-1.5 -20.5t-0.5 -26q0 -35 1.5 -59t8.5 -48q-31 3 -68 5
t-72.5 3.5t-66 2t-47.5 0.5q-81 0 -120 -21t-39 -59q0 -49 161 -49q18 0 47.5 0.5t64 2t71 4.5t69.5 8q-7 -22 -8.5 -40.5t-1.5 -49.5q0 -35 1.5 -58.5t8.5 -47.5q-34 3 -71 5t-71.5 3t-63.5 1.5t-48 0.5q-66 -2 -106.5 -6.5t-63 -12.5t-30 -19.5t-7.5 -27.5q0 -26 61 -41
t179 -15q-5 -24 -7.5 -56.5t-2.5 -67.5q0 -37 3 -74t9 -62q-38 5 -88 9.5t-108 8t-121.5 5.5t-128.5 2q-58 0 -120 -1.5t-120 -5t-108 -8t-83 -10.5q6 25 9 62t3 74q0 35 -2.5 67.5t-7.5 56.5q68 0 112 5t69.5 13.5t35 18.5t9.5 19q0 18 -11 31t-43 20.5t-90 11t-152 3.5
q-36 0 -83.5 -2t-105.5 -8z" />
    <glyph glyph-name="brokenbar" unicode="&#xa6;" horiz-adv-x="681" 
d="M157 855q8 55 12.5 89t7 56t3 37t0.5 33v406v50.5t-2.5 52t-7 49.5t-13.5 42q17 -6 40 -10t48 -6t50 -3t46 -1t45.5 1t49.5 3t48 6t41 10q-9 -18 -13.5 -42t-7 -49.5t-2.5 -52v-50.5v-406q0 -18 0.5 -33t3 -37t7 -56t12.5 -89q-14 4 -38.5 7.5t-51.5 6.5t-52.5 4.5
t-42.5 1.5t-42.5 -1.5t-52 -4.5t-50.5 -6.5t-38 -7.5zM180 471v50.5t-2.5 52t-7 49.5t-13.5 42q17 -6 40 -10t48 -6t50 -3t46 -1t45.5 1t49.5 3t48 6t41 10q-9 -18 -13.5 -42t-7 -49.5t-2.5 -52v-50.5v-406q0 -18 0.5 -33t3 -37t7 -56t12.5 -89q-14 4 -38.5 7.5t-51.5 6.5
t-52.5 4.5t-42.5 1.5t-42.5 -1.5t-52 -4.5t-50.5 -6.5t-38 -7.5q8 55 12.5 89t7 56t3 37t0.5 33v406z" />
    <glyph glyph-name="section" unicode="&#xa7;" horiz-adv-x="1698" 
d="M235 -5q60 -9 114.5 -12t106.5 -3q48 0 89.5 4t79.5 11q0 -44 16 -83.5t47 -68.5t77.5 -46t107.5 -17q43 0 82.5 9t68.5 27.5t46.5 47t17.5 68.5q0 87 -83.5 141t-254.5 54q-90 0 -154.5 -7t-109.5 -18q-2 17 -17.5 39t-40 45.5t-55.5 45.5t-63.5 39.5t-65.5 28t-60 10.5
h-9q13 4 22.5 22t15.5 43.5t9 55.5t3 58q0 41 -2.5 80.5t-7 73.5t-11 59.5t-14.5 39.5h8q24 0 51 10t55 27t55 41t50 51q-20 18 -43 33t-46.5 25t-46 15.5t-41.5 5.5h-7q13 5 22.5 23t15.5 44t9 57.5t3 64.5q0 39 -2.5 75.5t-7 67t-11 54t-14.5 36.5h6q27 0 60 15t66 39.5
t64.5 55t56 62.5t40.5 62.5t18 53.5q13 -9 32 -18.5t47.5 -18t68.5 -13.5t96 -5q33 0 67 4t65.5 11.5t59 17.5t46.5 22q28 -29 60.5 -48.5t67 -31.5t69.5 -17t68 -5q29 0 55.5 3.5t49.5 8.5q-2 -8 -5.5 -25t-6.5 -40.5t-5.5 -51.5t-2.5 -56q0 -72 7 -126.5t13 -75.5
q-48 9 -93 12t-88 3q-42 0 -79 -4t-70 -11q0 45 -19 84t-53 68.5t-81.5 46t-104.5 16.5q-38 0 -74.5 -6.5t-65.5 -23t-47 -43.5t-18 -69q0 -39 18.5 -73t63 -58.5t119 -39t187.5 -14.5q36 0 69.5 2t61.5 5.5t49.5 8t33.5 9.5q2 -17 17.5 -39t40 -45.5t55.5 -45.5t63.5 -39.5
t65.5 -28t60 -10.5h9q-13 -4 -22.5 -22t-15.5 -43.5t-9 -55.5t-3 -58q0 -41 2.5 -80.5t7 -73.5t11 -60t14.5 -39q-26 0 -54.5 -9t-58 -26t-57.5 -40.5t-52 -51.5q19 -18 42 -33t46.5 -26t46 -17t42.5 -6q2 0 5 0.5t5 0.5q-13 -5 -22.5 -23t-15.5 -44t-9 -57.5t-3 -64.5
q0 -42 2 -82t6.5 -73t11 -58.5t15.5 -39.5h-7q-29 0 -63.5 -14t-70 -37.5t-69 -53t-59.5 -60.5t-43 -60.5t-19 -52.5q-14 9 -32.5 17t-47 14.5t-68.5 10t-96 3.5q-33 0 -67 -2.5t-65.5 -8t-59 -14t-46.5 -20.5q-25 22 -64.5 44.5t-86.5 40.5t-98 29t-100 11q-16 0 -31.5 -1
t-29.5 -4q3 17 11.5 53.5t8.5 99.5q0 42 -2 71t-5 50t-6.5 35zM610 628q0 -53 20 -94t57 -69.5t90 -43.5t118 -15q87 0 136 47t49 135q0 52 -20 93.5t-57 70t-90 43.5t-118 15q-87 0 -136 -47t-49 -135z" />
    <glyph glyph-name="dieresis" unicode="&#xa8;" horiz-adv-x="1360" 
d="M751 1214q11 25 18.5 70t7.5 114q0 63 -8 112t-19 74q15 -6 40 -11t55.5 -8.5t64.5 -5.5t69 -2q33 0 66 1.5t63 5t54 8.5t38 12q-11 -26 -17 -74.5t-6 -111.5q0 -118 23 -184q-14 4 -38 8t-54 7.5t-64.5 5.5t-69.5 2q-72 0 -132 -7.5t-91 -15.5zM121 1214q11 25 18.5 70
t7.5 114q0 63 -8 112t-19 74q15 -6 40 -11t55.5 -8.5t64.5 -5.5t69 -2q33 0 66 1.5t63 5t54 8.5t38 12q-11 -26 -17 -74.5t-6 -111.5q0 -118 23 -184q-14 4 -38 8t-54 7.5t-64.5 5.5t-69.5 2q-72 0 -132 -7.5t-91 -15.5z" />
    <glyph glyph-name="copyright" unicode="&#xa9;" horiz-adv-x="2042" 
d="M83 694q0 122 30 234.5t86.5 210t138.5 177.5t186.5 137t229.5 88.5t267 31.5t267 -31.5t229 -88.5t186 -137t138.5 -178t86.5 -210.5t30 -234.5q0 -180 -66.5 -338t-188.5 -276t-295 -186t-387 -68q-143 0 -267.5 31t-229 87.5t-186.5 135.5t-138.5 175.5t-86.5 208
t-30 231.5zM266 693q0 -143 52 -268.5t149.5 -219t237.5 -147.5t316 -54t316 54t237.5 147.5t149.5 219t52 268.5q0 145 -52 273t-149.5 222.5t-237.5 149.5t-316 55q-172 0 -311.5 -54.5t-238 -149t-152 -222t-53.5 -272.5v-2zM510 397q7 9 14.5 24.5t13.5 39.5t9.5 59
t3.5 83q0 35 -21 55t-56 25q21 4 36 16.5t25 30.5t14.5 39t4.5 43q0 51 -12 93.5t-32 61.5h9q36 0 81.5 20t86.5 49.5t71 63t36 61.5q10 -8 24.5 -14.5t36.5 -11.5t52.5 -7.5t73.5 -2.5q40 0 80.5 8t64.5 28q8 -32 24 -62t39 -52q11 12 18.5 27t13 30t9 28t6.5 22
q20 -12 61.5 -19.5t87.5 -7.5q31 0 59.5 4t49.5 13q-2 -7 -5 -30.5t-6 -54.5t-5.5 -64t-2.5 -59q0 -66 6.5 -116.5t12.5 -69.5q-48 6 -91.5 10t-85.5 4q-43 0 -77.5 -4t-68.5 -10v18q0 54 -10 86t-29 49t-45 22.5t-57 5.5q-27 0 -51.5 -9.5t-43.5 -37t-30.5 -77.5
t-11.5 -131q0 -132 38.5 -202t98.5 -70q37 0 63 9t42 33t24.5 65t11.5 105q35 -13 75.5 -17t88.5 -4t89.5 5.5t69.5 15.5q-4 -7 -7.5 -20.5t-6 -30.5t-4 -36t-1.5 -37q0 -24 5.5 -50.5t13.5 -49.5q-68 -1 -117 -24.5t-81 -54.5t-49 -62.5t-21 -48.5q-26 13 -77.5 25
t-132.5 12q-91 0 -148 -11.5t-80 -25.5q-8 32 -38.5 65t-71 60.5t-86 46.5t-82.5 23z" />
    <glyph glyph-name="ordfeminine" unicode="&#xaa;" horiz-adv-x="1362" 
d="M335 755q-14 22 -33.5 44t-42.5 40t-47 29.5t-47 12.5q10 18 15 42t5 49q0 26 -6 49t-14 39q21 7 38 23t30 36t21 41t10 38q8 -1 16.5 -1h17.5q57 0 138 13t172 31q46 9 75.5 22t47 29.5t24.5 36t7 40.5q0 39 -20 60.5t-68 21.5q-63 0 -93 -31.5t-30 -103.5q-26 6 -64 9
t-83 3q-23 0 -51.5 -1t-56.5 -2.5t-52 -3.5t-37 -5q4 22 8 51t4 64q0 17 -0.5 30t-1.5 26t-3.5 26.5t-6.5 30.5q34 0 78.5 6.5t87.5 17.5t79.5 26.5t53.5 32.5q14 -7 28 -12t31.5 -8.5t40.5 -5.5t56 -2q75 0 128 7.5t76 20.5q13 -26 37.5 -47t53 -37t58.5 -24.5t53 -8.5h6
q-7 -17 -12 -48.5t-8 -70t-5 -82t-3 -85.5t-1 -78.5v-62.5q0 -33 5.5 -53t22 -31.5t46.5 -15.5t78 -4q-3 -9 -6 -23.5t-5 -30t-3.5 -32t-1.5 -29.5q0 -31 4 -57t12 -44q-20 9 -63 14.5t-94 5.5q-57 0 -101.5 -6t-70.5 -14q-6 45 -24.5 71.5t-37.5 40.5q-27 -9 -50.5 -24
t-41 -32t-29 -34t-14.5 -30q-18 5 -33 10t-30 9t-32.5 6.5t-41.5 2.5q-25 0 -53 -2.5t-55 -6.5t-51 -9t-40 -10zM601 949q27 0 53 10.5t47.5 33.5t35.5 60t17 91q-64 -1 -108.5 -8t-72.5 -22t-41 -38.5t-13 -57.5q0 -20 7.5 -33t19 -21t26 -11.5t29.5 -3.5z" />
    <glyph glyph-name="guillemotleft" unicode="&#xab;" horiz-adv-x="1537" 
d="M1212 178q0 28 -29.5 73.5t-76 97.5t-103.5 106.5t-112.5 101.5t-103.5 81t-76 46q28 12 76 46t103.5 81t112.5 101.5t103.5 106.5t76 97.5t29.5 73.5q3 -5 13 -10.5t24 -10t29.5 -7t30.5 -2.5q13 0 29.5 1t32.5 3.5t30.5 7t25.5 10.5q-6 -8 -10.5 -22t-8 -30t-5 -33
t-1.5 -32q0 -29 5.5 -47.5t12.5 -33.5q-31 -3 -58 -37.5t-51.5 -81.5t-47 -97.5t-44.5 -86.5q13 -24 27.5 -55t30.5 -63.5t33 -64t35 -56.5t37 -41t38 -17q-7 -15 -12.5 -33.5t-5.5 -47.5q0 -14 1.5 -31.5t4.5 -34t8 -30.5t11 -21q-10 6 -25 10t-31 7t-32.5 4t-29.5 1
q-14 0 -30 -3t-30 -7.5t-24 -10t-13 -9.5zM581 178q0 28 -29.5 73.5t-76 97.5t-103.5 106.5t-112.5 101.5t-103.5 81t-76 46q28 12 76 46t103.5 81t112.5 101.5t103.5 106.5t76 97.5t29.5 73.5q3 -5 13 -10.5t24 -10t29.5 -7t30.5 -2.5q13 0 29.5 1t32.5 3.5t30.5 7
t25.5 10.5q-6 -8 -10.5 -22t-8 -30t-5 -33t-1.5 -32q0 -29 5.5 -47.5t12.5 -33.5q-31 -3 -58 -37.5t-51.5 -81.5t-47 -97.5t-44.5 -86.5q13 -24 27.5 -55t30.5 -63.5t33 -64t35 -56.5t37 -41t38 -17q-7 -15 -12.5 -33.5t-5.5 -47.5q0 -14 1.5 -31.5t4.5 -34t8 -30.5t11 -21
q-10 6 -25 10t-31 7t-32.5 4t-29.5 1q-14 0 -30 -3t-30 -7.5t-24 -10t-13 -9.5z" />
    <glyph glyph-name="logicalnot" unicode="&#xac;" horiz-adv-x="1360" 
d="M134 735q6 17 10.5 63t4.5 102q0 15 -1 38.5t-3.5 48.5t-5 47.5t-5.5 35.5q37 -9 102.5 -14t142.5 -7.5t157 -3t146 -0.5q75 0 160 1t162 3.5t137 7.5t85 13q-4 -20 -8 -55t-7.5 -79.5t-5.5 -94.5t-2 -99q0 -141 5 -236t18 -143q-17 6 -61.5 10.5t-101.5 4.5
q-15 0 -38 -1t-47 -3t-46 -4.5t-34 -6.5q7 36 11.5 83.5t6.5 99t3 104.5t1 101q-63 6 -129.5 7.5t-147.5 1.5q-125 0 -209.5 -1.5t-141.5 -5t-93.5 -8t-64.5 -10.5z" />
    <glyph glyph-name="uni00AD" unicode="&#xad;" horiz-adv-x="1229" 
 />
    <glyph glyph-name="registered" unicode="&#xae;" horiz-adv-x="2042" 
d="M83 694q0 122 30 234.5t86.5 210t138.5 177.5t186.5 137t229.5 88.5t267 31.5t267 -31.5t229 -88.5t186 -137t138.5 -178t86.5 -210.5t30 -234.5q0 -180 -66.5 -338t-188.5 -276t-295 -186t-387 -68q-143 0 -267.5 31t-229 87.5t-186.5 135.5t-138.5 175.5t-86.5 208
t-30 231.5zM266 693q0 -143 52 -268.5t149.5 -219t237.5 -147.5t316 -54t316 54t237.5 147.5t149.5 219t52 268.5q0 145 -52 273t-149.5 222.5t-237.5 149.5t-316 55q-172 0 -311.5 -54.5t-238 -149t-152 -222t-53.5 -272.5v-2zM537 231q9 19 12.5 48t3.5 58q0 23 -5.5 46.5
t-10.5 41.5q45 0 68.5 13.5t23.5 55.5q0 90 -11 144.5t-31 59.5q10 2 18 15t13 33t8 44.5t3 49.5q0 53 -23.5 71.5t-68.5 18.5q9 20 12.5 45t3.5 55t-5.5 56t-10.5 48q8 -4 34.5 -7t63 -5.5t79 -4.5t83 -3t75 -1.5t55.5 -0.5q63 0 134 1t135 4t112.5 7t65.5 10q6 -19 23 -41
t39.5 -41t47 -32t46.5 -14q-4 -8 -8 -24.5t-7.5 -37t-5.5 -43.5t-2 -43q0 -48 6.5 -89t16.5 -63q-25 -4 -51 -13t-51.5 -22t-49 -28t-42.5 -31q26 -16 54.5 -23.5t51.5 -7.5q0 -63 20.5 -102t71.5 -54q-5 -18 -10.5 -41.5t-5.5 -46.5q0 -28 6 -57.5t10 -48.5q-6 3 -26 6.5
t-45 5.5t-51 3.5t-45 1.5q-22 0 -49.5 -1t-53.5 -3.5t-47.5 -5.5t-32.5 -7q2 19 3 38t1 37q0 57 -15.5 101.5t-56.5 61.5q5 9 9 22t4 37q0 38 -26 60.5t-61 22.5q-22 0 -47 -3.5t-50 -8.5q-7 -16 -11 -41t-4 -64q0 -41 16 -55t44 -14q-3 -22 -6.5 -50t-3.5 -56
q0 -24 1.5 -48t8.5 -40q-38 8 -87.5 12.5t-118.5 4.5q-29 0 -65 -1t-71 -3.5t-65 -5.5t-46 -7zM930 735q29 -7 65 -10.5t61 -3.5q22 0 45 8.5t41.5 23.5t30.5 35.5t12 44.5q0 22 -7 43t-20.5 37.5t-32.5 26t-44 9.5q-13 0 -32 -1t-40 -3.5t-42.5 -6.5t-37.5 -10
q-2 -17 -3.5 -37t-1.5 -41q0 -31 2 -60.5t4 -54.5z" />
    <glyph glyph-name="macron" unicode="&#xaf;" horiz-adv-x="1360" 
d="M236 1262q11 17 18.5 53.5t7.5 85.5q0 48 -8 89.5t-19 58.5q32 -6 81 -11t108 -8.5t125.5 -5.5t134.5 -2q66 0 131.5 1.5t124 5t106.5 8.5t79 12q-11 -18 -17 -59t-6 -89q0 -90 23 -139q-31 4 -79 8t-107 7.5t-125.5 5.5t-134.5 2t-134 -2t-124.5 -5.5t-106 -7.5
t-78.5 -8z" />
    <glyph glyph-name="degree" unicode="&#xb0;" horiz-adv-x="1189" 
d="M411 715q-12 30 -42 56t-66.5 44.5t-74.5 29t-65 10.5q11 20 19.5 76.5t8.5 133.5q0 81 -9.5 129t-18.5 75q30 2 68.5 16t75 36.5t65 51t37.5 60.5q10 -7 29 -12.5t44.5 -9t56 -5t63.5 -1.5q29 0 57 2.5t52 6.5t42 9t26 10q9 -32 38 -60.5t66 -51t75.5 -36.5t66.5 -16
q-10 -26 -19 -74.5t-9 -126.5q0 -38 1.5 -72t5 -62t8.5 -48.5t13 -30.5q-28 0 -67 -12.5t-76.5 -32t-67 -45t-37.5 -50.5q-12 6 -31 11t-43 8.5t-52.5 6t-58.5 2.5t-58.5 -2.5t-52.5 -6.5t-42.5 -9t-27.5 -10zM598 902q21 0 44.5 9.5t43 30.5t32.5 55t13 82q0 82 -38 124
t-95 42t-95 -42t-38 -124q0 -48 13 -82t32.5 -55t43 -30.5t44.5 -9.5z" />
    <glyph glyph-name="plusminus" unicode="&#xb1;" horiz-adv-x="1360" 
d="M516 495q8 27 12.5 52.5t7 52t3 55.5t0.5 63q0 24 -1 47t-3 46q-23 2 -46 3t-47 1q-49 0 -91 -0.5t-81 -3t-76 -7t-75 -12.5q6 17 10.5 61.5t4.5 101.5q0 15 -1 38t-3 47t-4.5 46t-6.5 34q38 -8 75 -12.5t76 -7t81 -3t91 -0.5q24 0 47 1t46 4q2 22 3 45t1 47
q0 34 -0.5 63t-3 55.5t-7 52t-12.5 52.5q13 -3 34.5 -5.5t45.5 -5t47 -3.5t38 -1q57 0 101.5 4t61.5 11q-8 -27 -12.5 -52.5t-7 -52t-3 -55.5t-0.5 -63q0 -24 1.5 -47t3.5 -45q22 -2 45 -3.5t47 -1.5q49 0 91 0.5t81 3t76 7t75 12.5q-3 -13 -5.5 -34.5t-5 -45.5t-3.5 -47
t-1 -38q0 -57 4 -101.5t11 -61.5q-38 8 -75 12.5t-76 7t-81 3t-91 0.5q-24 0 -47 -1t-45 -3q-3 -23 -4 -46t-1 -47q0 -34 0.5 -63t3 -55.5t7 -52t12.5 -52.5q-17 7 -61.5 11t-101.5 4q-15 0 -38 -1t-47 -3t-46 -4.5t-34 -6.5zM119 0q6 17 10.5 63t4.5 102q0 15 -1 38t-3 47
t-4.5 46t-6.5 34q38 -8 75 -12.5t76 -7t81 -3t91 -0.5h476q49 0 91 0.5t81 3t76 7t75 12.5q-3 -13 -5.5 -34.5t-5 -45.5t-3.5 -47t-1 -38q0 -56 4 -102t11 -63q-38 8 -75 13t-76 7.5t-81 3.5t-91 1h-476q-49 0 -91 -1t-81 -3.5t-76 -7.5t-75 -13z" />
    <glyph glyph-name="twosuperior" unicode="&#xb2;" horiz-adv-x="1195" 
d="M107 595q3 13 7.5 37t8 54.5t6.5 65.5t3 71q0 52 -6 96.5t-19 69.5q23 1 52.5 7.5t60 17t60.5 24t53 28t37.5 30t14.5 30.5q0 8 -2 12q16 -4 37 -4q43 0 92 16t89.5 42t67.5 59t27 68q0 48 -30 77t-79 29q-38 0 -65.5 -15t-45 -42t-26 -64.5t-8.5 -83.5q-31 8 -73 14
t-87 6q-46 0 -89 -6t-86 -14q3 7 7.5 15.5t8 21t6.5 31t3 46.5q0 36 -7 74t-18 59q55 0 98 19.5t75.5 47.5t55 58.5t36.5 52.5q12 -8 38.5 -16t64 -14.5t84 -10.5t99.5 -4q44 0 93.5 3.5t93 9t75.5 13t41 15.5q0 -43 14 -97.5t39 -105t57.5 -90.5t70.5 -53
q-34 -14 -62.5 -39.5t-50.5 -57.5t-37.5 -68t-22.5 -70q-42 -3 -89.5 -14t-96 -28t-96 -38.5t-89.5 -46.5t-75.5 -52t-54.5 -54q43 -17 84 -24.5t89 -7.5q40 0 66 17.5t41.5 42.5t22 51t6.5 44q31 -7 68 -11t76 -4q42 0 82.5 3t83.5 12q-3 -13 -5.5 -38t-5 -56.5t-3.5 -65.5
t-1 -65q0 -45 5 -79t10 -51q-49 8 -109 13t-123 7.5t-124 3.5t-112 1q-82 0 -147.5 -0.5t-124.5 -3t-116.5 -7.5t-123.5 -14z" />
    <glyph glyph-name="threesuperior" unicode="&#xb3;" horiz-adv-x="1195" 
d="M381 588q-14 17 -37 40.5t-56.5 44.5t-78.5 35.5t-104 14.5q4 6 6.5 18.5t3.5 28t1.5 31t0.5 27.5q0 90 -12 144q38 -9 76 -10.5t80 -1.5q23 0 47.5 0.5t48 2t45 4t37.5 5.5q0 -47 14 -81.5t37 -57.5t52 -34t58 -11q72 0 103 32t31 78q0 49 -36 81t-96 32q-29 0 -55 -1.5
t-52 -3.5q5 18 8.5 42t3.5 48q0 27 -3.5 53t-8.5 47q36 -3 80 -3q28 0 55 9.5t48.5 27.5t34.5 43t13 55q0 48 -28.5 73.5t-91.5 25.5q-28 0 -57.5 -11t-54 -35.5t-40 -62.5t-15.5 -92q-32 5 -73 8.5t-89 3.5q-42 0 -80 -2.5t-76 -9.5q5 26 8.5 71t3.5 105q0 14 -1.5 30.5
t-3.5 32t-4 28.5t-3 19q59 0 104 13.5t79 32.5t56.5 40.5t36.5 37.5q12 -7 36 -13.5t55.5 -11.5t67.5 -8t73 -3t74 3t69 8t56.5 11.5t36.5 13.5q8 -21 30.5 -44t52 -42t62.5 -31.5t63 -12.5q-5 -8 -9 -24t-7.5 -36.5t-5.5 -42.5t-2 -41q0 -45 6.5 -75.5t17.5 -50.5
q-32 -12 -72 -38t-73 -68q16 -23 40 -40.5t49.5 -29.5t49 -18t38.5 -6q-5 -8 -9 -25.5t-6.5 -38.5t-3.5 -44t-1 -42q0 -49 3 -81.5t17 -58.5q-29 0 -65.5 -15t-72 -38t-64.5 -51t-42 -54q-11 6 -35 11t-55.5 9t-68 6t-72.5 2t-75 -1.5t-73.5 -5t-61.5 -9t-39 -12.5z" />
    <glyph glyph-name="acute" unicode="&#xb4;" horiz-adv-x="1020" 
d="M361 1190q10 11 21 39.5t21 66.5t19 83t16 89t11 84t4 68q0 23 -3 35q17 -6 45.5 -10.5t63 -8t73.5 -5t77 -1.5q36 0 75 1.5t75 4.5t65.5 7.5t45.5 11.5q-25 -19 -53.5 -55.5t-56 -81.5t-53.5 -94t-45.5 -93.5t-31 -80t-11.5 -53.5q0 -5 1 -7q-8 4 -26.5 7.5t-43.5 6.5
t-55 4.5t-61 1.5q-30 0 -58 -1.5t-51.5 -4.5t-40 -6.5t-23.5 -7.5z" />
    <glyph glyph-name="mu" unicode="&#xb5;" horiz-adv-x="1698" 
d="M240 107q0 70 -2.5 129.5t-9.5 103.5t-19.5 71.5t-33.5 34.5q20 9 32.5 39t20 75.5t10 103t2.5 122.5q0 37 -3 76.5t-8 75t-11.5 64t-13.5 43.5q23 -5 61.5 -7t84.5 -2q45 0 93 2.5t92.5 7.5t82 13.5t61.5 20.5q-20 -39 -32.5 -88.5t-19.5 -105.5t-9 -116.5t-2 -121.5
v-174q0 -39 5 -75t20 -64.5t42 -45.5t71 -17q34 0 70 12.5t68 34.5t57.5 52.5t37.5 66.5l-1 210q0 79 -1.5 140t-5.5 108.5t-11.5 83.5t-20.5 65q24 -7 62.5 -10t85.5 -3q44 0 91.5 3t92 9t82 15t61.5 21q-21 -39 -33 -88.5t-18.5 -105.5t-9 -116.5t-2.5 -121.5l-1 -258
q0 -41 7 -66.5t27.5 -39.5t58 -19t97.5 -5q-8 -23 -12.5 -56.5t-4.5 -67.5q0 -38 3.5 -75.5t13.5 -60.5q-24 11 -78 18t-118 7q-35 0 -70 -2t-66.5 -5.5t-57 -8t-41.5 -9.5q-3 25 -13 48.5t-23.5 44t-29.5 38t-31 31.5q-36 -11 -69 -30t-60 -41.5t-46 -46t-27 -44.5
q-14 9 -65 15.5t-142 8.5v-196q0 -61 2 -113t7.5 -98t16 -87t27.5 -80q-15 7 -39.5 12.5t-54 9.5t-61.5 6t-63 2q-88 0 -153 -7.5t-104 -22.5q9 15 18 73.5t16.5 147.5t12 201t4.5 235z" />
    <glyph glyph-name="mu" unicode="&#x3bc;" horiz-adv-x="1698" 
d="M240 107q0 70 -2.5 129.5t-9.5 103.5t-19.5 71.5t-33.5 34.5q20 9 32.5 39t20 75.5t10 103t2.5 122.5q0 37 -3 76.5t-8 75t-11.5 64t-13.5 43.5q23 -5 61.5 -7t84.5 -2q45 0 93 2.5t92.5 7.5t82 13.5t61.5 20.5q-20 -39 -32.5 -88.5t-19.5 -105.5t-9 -116.5t-2 -121.5
v-174q0 -39 5 -75t20 -64.5t42 -45.5t71 -17q34 0 70 12.5t68 34.5t57.5 52.5t37.5 66.5l-1 210q0 79 -1.5 140t-5.5 108.5t-11.5 83.5t-20.5 65q24 -7 62.5 -10t85.5 -3q44 0 91.5 3t92 9t82 15t61.5 21q-21 -39 -33 -88.5t-18.5 -105.5t-9 -116.5t-2.5 -121.5l-1 -258
q0 -41 7 -66.5t27.5 -39.5t58 -19t97.5 -5q-8 -23 -12.5 -56.5t-4.5 -67.5q0 -38 3.5 -75.5t13.5 -60.5q-24 11 -78 18t-118 7q-35 0 -70 -2t-66.5 -5.5t-57 -8t-41.5 -9.5q-3 25 -13 48.5t-23.5 44t-29.5 38t-31 31.5q-36 -11 -69 -30t-60 -41.5t-46 -46t-27 -44.5
q-14 9 -65 15.5t-142 8.5v-196q0 -61 2 -113t7.5 -98t16 -87t27.5 -80q-15 7 -39.5 12.5t-54 9.5t-61.5 6t-63 2q-88 0 -153 -7.5t-104 -22.5q9 15 18 73.5t16.5 147.5t12 201t4.5 235z" />
    <glyph glyph-name="paragraph" unicode="&#xb6;" horiz-adv-x="1875" 
d="M446 -260q87 0 150 2t103.5 18.5t59.5 55t19 111.5q0 7 -3 29.5t-11 48.5t-22 50t-37 33q33 16 48 61.5t15 125.5q0 25 -1.5 52t-3.5 58q-30 10 -62 13t-65 3q-19 0 -40 -2.5t-40.5 -7t-35.5 -10.5t-24 -13q-18 31 -48.5 65.5t-67.5 64t-79.5 51.5t-84.5 29q8 17 14 57
t9.5 89t5 99t1.5 88q0 24 -1 56.5t-2.5 68t-4 71t-6 66.5t-7.5 53.5t-9 32.5q20 1 46 11.5t53.5 28t54 39.5t47.5 45.5t35 47t16 44.5q24 -11 87.5 -17.5t148.5 -10.5t180.5 -5.5t184.5 -1.5q35 0 88 1t112.5 3.5t121 5.5t114.5 7t92 8.5t54 9.5q-7 -25 -11 -60.5t-4 -73.5
q0 -35 5 -68.5t10 -57.5q-59 0 -93.5 -26.5t-52.5 -74.5t-23 -114.5t-5 -146.5q0 -161 1 -279t3.5 -202t7 -137t12.5 -84.5t19.5 -45t27.5 -17.5q-42 -18 -55.5 -79t-13.5 -152q0 -19 1 -53t2.5 -75.5t4.5 -86t6.5 -83.5t8 -68.5t9.5 -40.5q-24 13 -65.5 19t-93.5 6
q-36 0 -72 -7t-62 -18q3 23 5.5 74t4 117.5t2.5 142t1.5 148t1 136.5t0.5 106q0 49 0.5 109t0.5 125t0.5 134.5t0.5 138.5q0 119 -1.5 227.5t-5.5 188.5q-23 4 -47 6t-49 2q-23 0 -46.5 -1t-46.5 -3q-4 -57 -7.5 -130.5t-5.5 -155.5t-4 -167.5t-3 -167t-2 -154t-1.5 -128.5
t-0.5 -91v-41q0 -61 1 -104t3.5 -74t6.5 -54.5t9 -45.5t11.5 -45.5t14.5 -56.5q-37 -8 -69.5 -33t-58.5 -58.5t-44.5 -72t-27.5 -72.5q-14 6 -37 10.5t-50.5 8t-57.5 5t-58 1.5q-66 0 -122 -7t-90 -18q3 12 5.5 32t5 43t3.5 46.5t1 42.5q0 35 -5 68.5t-10 57.5z" />
    <glyph glyph-name="periodcentered" unicode="&#xb7;" horiz-adv-x="680" 
d="M91 400q12 27 20.5 80.5t8.5 129.5q0 35 -2.5 68.5t-6.5 62.5t-9.5 52t-11.5 37q18 -6 45 -11.5t61 -9.5t72 -6.5t77 -2.5q36 0 73 1.5t70 5.5t59.5 9.5t42.5 13.5q-6 -14 -10.5 -37.5t-8 -52.5t-5 -62.5t-1.5 -67.5q0 -66 6 -120.5t19 -89.5q-16 5 -42.5 9.5t-60 8
t-71.5 5.5t-77 2t-76.5 -2t-70.5 -5.5t-59 -8t-42 -9.5z" />
    <glyph glyph-name="cedilla" unicode="&#xb8;" horiz-adv-x="1360" 
d="M287 -223q31 -5 68.5 -7.5t62.5 -2.5q41 0 71.5 9.5t51 32t30.5 59t10 90.5q0 9 -0.5 23t-1 29.5t-1.5 31t-2 26.5l275 1q-15 -23 -23 -51t-11.5 -57.5t-4 -57.5t-0.5 -50q0 -52 9 -90.5t41 -64.5q-46 -11 -80 -40.5t-58 -66.5t-39 -75t-23 -66q-28 6 -69 12.5t-114 6.5
q-66 0 -119.5 -5.5t-82.5 -13.5q8 11 14 33t10 49t6 55.5t2 52.5q0 43 -5.5 80t-16.5 57z" />
    <glyph glyph-name="onesuperior" unicode="&#xb9;" horiz-adv-x="1025" 
d="M130 585q6 20 10.5 48.5t4.5 57.5q0 32 -3 62t-12 52q40 0 84.5 5.5t81 19t60.5 36t24 56.5q0 72 -18 103t-52 35q34 3 52 30.5t18 57.5q0 53 -44.5 72.5t-126.5 19.5q-20 0 -44 -2.5t-36 -4.5q5 20 8 46.5t3 52.5q0 35 -3.5 68t-9.5 58h14q67 0 127.5 17t108.5 42.5
t80.5 54.5t42.5 53q22 -10 53 -17.5t60 -7.5q35 0 65 7t47 18l-4.5 -27t-5 -39t-4 -61t-1.5 -92v-270q0 -32 19.5 -52.5t53.5 -23.5q-34 -4 -53.5 -35t-19.5 -103q0 -34 17.5 -56.5t47.5 -36t71 -19t88 -5.5q-11 -29 -13 -55.5t-2 -58.5q0 -29 4 -57.5t11 -48.5
q-32 5 -75 9.5t-93.5 8t-106 5.5t-110.5 2q-63 0 -123.5 -1.5t-115 -5t-100.5 -8t-80 -10.5z" />
    <glyph glyph-name="ordmasculine" unicode="&#xba;" horiz-adv-x="1360" 
d="M421 742q-14 30 -46 56t-71 45t-79 30t-70 11q9 13 17.5 33.5t14.5 53.5t9.5 81.5t3.5 117.5q0 73 -4 118.5t-10 74t-14 46t-16 34.5q33 3 74 19t79.5 40.5t68.5 56t40 66.5q15 -7 42.5 -12.5t63.5 -9t79 -5.5t90 -2q42 0 81.5 2.5t72.5 7t57.5 9.5t36.5 10
q10 -35 41 -66.5t70 -56t80 -40.5t71 -19l-16 -34t-14 -45.5t-9.5 -73.5t-3.5 -116t2 -120t7.5 -82t14 -53.5t20.5 -34.5q-30 0 -72.5 -12.5t-83 -33t-72 -46t-39.5 -50.5q-15 6 -41 11t-60 9t-74.5 6t-84.5 2t-84 -2.5t-73.5 -6.5t-59 -9t-39.5 -10zM686 930q46 0 76 19
t47.5 52.5t24 80t6.5 100.5t-6.5 99.5t-24 79t-47.5 52t-76 18.5q-45 0 -75.5 -14t-50 -44t-28 -77.5t-8.5 -113.5t8.5 -114t28 -78.5t50 -45t75.5 -14.5z" />
    <glyph glyph-name="guillemotright" unicode="&#xbb;" horiz-adv-x="1537" 
d="M741 186q6 7 11 21t8 30.5t4.5 34t1.5 31.5q0 29 -5.5 47.5t-12.5 33.5q29 2 56.5 35t53 79t48.5 96.5t43 86.5q-14 23 -29 54.5t-30.5 64.5t-32 65.5t-34 58.5t-36.5 42.5t-39 17.5q7 15 12.5 33.5t5.5 47.5q0 15 -1.5 32t-5 33t-8 30t-10.5 22q10 -6 25 -10.5t31 -7
t32 -3.5t30 -1q15 0 30.5 2.5t29.5 7t24 10t13 10.5v-4q0 -29 27.5 -74t71 -97t97.5 -106t106.5 -100.5t97.5 -80t71 -44.5q-26 -11 -71 -45t-97.5 -80t-106.5 -100t-97.5 -106.5t-71 -97.5t-27.5 -74v-3q-3 4 -13 9.5t-24 10t-30 7.5t-30 3q-13 0 -29.5 -1t-32.5 -4t-31 -7
t-25 -10zM110 186q6 7 11 21t8 30.5t4.5 34t1.5 31.5q0 29 -5.5 47.5t-12.5 33.5q29 2 56.5 35t53 79t48.5 96.5t43 86.5q-14 23 -29 54.5t-30.5 64.5t-32 65.5t-34 58.5t-36.5 42.5t-39 17.5q7 15 12.5 33.5t5.5 47.5q0 15 -1.5 32t-5 33t-8 30t-10.5 22q10 -6 25 -10.5
t31 -7t32 -3.5t30 -1q15 0 30.5 2.5t29.5 7t24 10t13 10.5v-4q0 -29 27.5 -74t71 -97t97.5 -106t106.5 -100.5t97.5 -80t71 -44.5q-26 -11 -71 -45t-97.5 -80t-106.5 -100t-97.5 -106.5t-71 -97.5t-27.5 -74v-3q-3 4 -13 9.5t-24 10t-30 7.5t-30 3q-13 0 -29.5 -1t-32.5 -4
t-31 -7t-25 -10z" />
    <glyph glyph-name="onequarter" unicode="&#xbc;" horiz-adv-x="2036" 
d="M556 851q6 20 10.5 48.5t4.5 57.5q0 32 -3 62t-12 52q63 0 117.5 6.5t95 25.5t64 53.5t23.5 91.5q0 66 -18 105t-52 43q17 1 30 12.5t22 28t13.5 34.5t4.5 33q0 27 -16 49t-43.5 38.5t-64 25.5t-77.5 9q-20 0 -44 -2.5t-36 -4.5q5 20 8 46.5t3 52.5q0 35 -3.5 63t-9.5 53
h14q67 0 127.5 17t108.5 42.5t80.5 54.5t42.5 53q12 -5 28 -9.5t34 -8t36.5 -5.5t34.5 -2q19 0 41.5 2t44 5.5t39.5 8t27 9.5l-4.5 -27t-5 -39t-4 -61t-1.5 -92v-290q0 -16 5 -32.5t14.5 -30t23 -23t30.5 -10.5q-34 -4 -53.5 -43t-19.5 -105q0 -57 15 -91.5t48.5 -53.5
t87.5 -25.5t133 -6.5q-11 -29 -13 -55.5t-2 -58.5q0 -28 4 -57t11 -49q-33 5 -91 9.5t-126.5 8t-139 5.5t-128.5 2q-62 0 -129 -1.5t-129 -5t-115 -8t-86 -10.5zM389 37q32 11 67.5 54.5t69.5 104.5t65 132.5t54.5 138.5t38 122t15.5 84q23 -8 74.5 -16.5t125.5 -8.5
q25 0 49 2.5t45 7.5t37.5 11t26.5 14q-4 -11 -4 -29q0 -23 6.5 -50t18.5 -51t28.5 -41t35.5 -20q-33 -11 -68.5 -41.5t-71 -72.5t-70 -91.5t-64.5 -99.5t-55 -97t-41 -82q23 -4 42 -4.5t36 -0.5q64 0 106 4.5t67 18.5t35 39.5t10 67.5v29.5t-1 40.5t-3.5 40t-6.5 30
q12 -6 30.5 -10.5t41 -8t46 -5t44.5 -1.5q25 0 56 2t59.5 5.5t51 8t30.5 9.5q-5 -13 -8.5 -37.5t-6 -52t-4 -54t-1.5 -42.5q0 -54 31 -71.5t97 -17.5h23.5t31.5 0.5t34.5 1.5t32.5 3q-7 -15 -11 -45.5t-4 -69.5q0 -38 4.5 -53t10.5 -27q-21 4 -43.5 7t-43 4.5t-37.5 2
t-27 0.5q-22 0 -40.5 -1t-32 -5.5t-21 -15t-7.5 -29.5v-23q0 -42 40.5 -60t134.5 -18q-5 -20 -10 -47.5t-5 -56.5q0 -31 4 -62.5t11 -53.5q-29 5 -78 9.5t-107.5 8t-120.5 5.5t-115 2q-131 0 -218.5 -7t-150.5 -18q7 21 11 53.5t4 62.5q0 29 -3.5 56.5t-11.5 47.5
q99 0 154 2.5t81.5 14.5t32.5 36t6 68l-1 21q-51 8 -116 10t-131 2q-83 0 -143 -1t-102 -3.5t-69 -6.5t-45 -10q8 19 8 51q0 59 -21.5 106.5t-43.5 76.5z" />
    <glyph glyph-name="onehalf" unicode="&#xbd;" horiz-adv-x="2036" 
d="M546 851q6 20 10.5 48.5t4.5 57.5q0 32 -3 62t-12 52q63 0 117.5 6.5t95 25.5t64 53.5t23.5 91.5q0 66 -18 105t-52 43q17 1 30 12.5t22 28t13.5 34.5t4.5 33q0 27 -16 49t-43.5 38.5t-64 25.5t-77.5 9q-20 0 -44 -2.5t-36 -4.5q5 20 8 46.5t3 52.5q0 35 -3.5 63t-9.5 53
h14q67 0 127.5 17t108.5 42.5t80.5 54.5t42.5 53q12 -5 28 -9.5t34 -8t36.5 -5.5t34.5 -2q19 0 41.5 2t44 5.5t39.5 8t27 9.5l-4.5 -27t-5 -39t-4 -61t-1.5 -92v-290q0 -16 5 -32.5t14.5 -30t23 -23t30.5 -10.5q-34 -4 -53.5 -43t-19.5 -105q0 -57 15 -91.5t48.5 -53.5
t87.5 -25.5t133 -6.5q-11 -29 -13 -55.5t-2 -58.5q0 -28 4 -57t11 -49q-33 5 -91 9.5t-126.5 8t-139 5.5t-128.5 2q-62 0 -129 -1.5t-129 -5t-115 -8t-86 -10.5zM436 -130q26 1 59.5 10t68.5 24t68 34.5t59 41t42 44.5t16 44q0 5 -2 15q17 -4 41 -4q48 0 102.5 16
t100.5 42.5t76.5 60t30.5 69.5q0 70 -33.5 113.5t-88.5 43.5q-43 0 -73.5 -18.5t-50.5 -52.5t-29.5 -81.5t-9.5 -105.5q-35 8 -82 14t-98 6q-52 0 -100.5 -6t-96.5 -14q3 7 7.5 15.5t9 21.5t8 32t3.5 47q0 36 -7.5 75t-20.5 60q63 0 111 25.5t84.5 62t61.5 76t41 67.5
q14 -8 43.5 -16.5t71.5 -15t94 -10.5t112 -4q49 0 105 3.5t105 9.5t85 13.5t46 15.5q0 -33 7.5 -72.5t20.5 -81t31.5 -81.5t41.5 -74t49 -58.5t54 -34.5q-38 -13 -70.5 -39t-58 -59t-42.5 -70t-24 -71q-48 -5 -102 -20t-109 -37.5t-109 -52t-101 -63t-84.5 -70t-60.5 -73.5
q49 -18 96 -26t101 -8q45 0 74.5 18t47 43t24.5 52t7 45q35 -7 76 -11.5t86 -4.5q46 0 92 3.5t95 12.5q-4 -13 -7 -39t-5.5 -57.5t-3.5 -66.5t-1 -66q0 -45 6 -80t11 -52q-55 8 -122.5 13t-138 7.5t-139.5 3.5t-126 1q-92 0 -166 -0.5t-140 -3t-131 -7.5t-139 -14
q3 13 7.5 37.5t9 55.5t8 67t3.5 72q0 60 -7 110t-21 78z" />
    <glyph glyph-name="threequarters" unicode="&#xbe;" horiz-adv-x="2036" 
d="M514 975q4 6 6.5 18.5t3.5 27.5t1.5 31t0.5 28q0 46 -3 81t-9 63q40 -9 81.5 -10.5t84.5 -1.5q24 0 50 1t51.5 3t47.5 4t39 4q0 -47 17.5 -81.5t45 -57.5t61.5 -34t67 -11q41 0 70 8.5t48 23.5t27.5 35t8.5 43q0 33 -11 61.5t-30.5 48.5t-48 31.5t-62.5 11.5t-70.5 -1.5
t-66.5 -3.5q5 18 8.5 42t3.5 48q0 27 -3.5 53t-8.5 47q23 -2 53 -2.5t57 -0.5q31 0 62 12.5t55 35.5t39 55.5t15 71.5q0 48 -34 73.5t-106 25.5q-31 0 -65.5 -12.5t-64 -39t-48.5 -68.5t-19 -101q-35 5 -78 8.5t-94 3.5q-43 0 -84.5 -2.5t-81.5 -9.5q5 29 8.5 79.5
t3.5 116.5q0 14 -1.5 30.5t-3.5 32t-4 28.5t-3 19q64 0 112.5 13.5t84.5 33t60 40.5t39 37q13 -7 40.5 -13.5t63.5 -11.5t77 -8t81 -3t82 3t78.5 8t64.5 11.5t41 13.5q9 -21 33.5 -44t56.5 -42t68.5 -31.5t69.5 -12.5q-5 -9 -9.5 -27t-7.5 -41.5t-5 -48.5t-2 -47
q0 -51 6.5 -95.5t17.5 -67.5q-35 -12 -79 -35t-80 -65q19 -24 45 -42.5t53 -31.5t51.5 -19.5t41.5 -6.5q-5 -9 -9 -25.5t-6.5 -37.5t-3.5 -44.5t-1 -45.5q0 -57 3 -94t17 -66q-31 0 -71 -15t-78 -38t-69.5 -51t-45.5 -54q-11 6 -39 11t-64.5 9t-78 6t-79.5 2
q-40 0 -83.5 -1.5t-82.5 -5t-69.5 -9t-43.5 -12.5q-15 17 -39 40.5t-60 44.5t-84.5 35.5t-112.5 14.5zM389 37q32 11 67.5 54.5t69.5 104.5t65 132.5t54.5 138.5t38 122t15.5 84q23 -8 74.5 -16.5t125.5 -8.5q25 0 49 2.5t45 7.5t37.5 11t26.5 14q-4 -11 -4 -29
q0 -23 6.5 -50t18.5 -51t28.5 -41t35.5 -20q-33 -11 -68.5 -41.5t-71 -72.5t-70 -91.5t-64.5 -99.5t-55 -97t-41 -82q23 -4 42 -4.5t36 -0.5q64 0 106 4.5t67 18.5t35 39.5t10 67.5v29.5t-1 40.5t-3.5 40t-6.5 30q12 -6 30.5 -10.5t41 -8t46 -5t44.5 -1.5q25 0 56 2
t59.5 5.5t51 8t30.5 9.5q-5 -13 -8.5 -37.5t-6 -52t-4 -54t-1.5 -42.5q0 -54 31 -71.5t97 -17.5h23.5t31.5 0.5t34.5 1.5t32.5 3q-7 -15 -11 -45.5t-4 -69.5q0 -38 4.5 -53t10.5 -27q-21 4 -43.5 7t-43 4.5t-37.5 2t-27 0.5q-22 0 -40.5 -1t-32 -5.5t-21 -15t-7.5 -29.5v-23
q0 -42 40.5 -60t134.5 -18q-5 -20 -10 -47.5t-5 -56.5q0 -31 4 -62.5t11 -53.5q-29 5 -78 9.5t-107.5 8t-120.5 5.5t-115 2q-131 0 -218.5 -7t-150.5 -18q7 21 11 53.5t4 62.5q0 29 -3.5 56.5t-11.5 47.5q99 0 154 2.5t81.5 14.5t32.5 36t6 68l-1 21q-51 8 -116 10t-131 2
q-83 0 -143 -1t-102 -3.5t-69 -6.5t-45 -10q8 19 8 51q0 59 -21.5 106.5t-43.5 76.5z" />
    <glyph glyph-name="questiondown" unicode="&#xbf;" horiz-adv-x="1364" 
d="M814.03 994.026q0 -35.9971 11.999 -61.9961q11.999 -25.998 29.998 -43.4971t38.998 -26.498q20.999 -9 38.9971 -11q-13.999 -10.999 -25.998 -29.498t-20.499 -41.9971q-8.49902 -23.499 -13.499 -49.4971q-4.99902 -25.999 -4.99902 -50.9971
q0 -17.999 2.49902 -34.998q2.5 -16.999 8.5 -30.998q-70.9961 0 -139.491 -18.499q-68.4961 -18.499 -121.993 -51.9971q-53.4971 -33.4971 -86.4941 -80.9941q-32.998 -47.4971 -32.998 -105.494q0 -145.991 127.992 -145.991q39.9971 0 75.4951 16.999t62.4961 54.9971
q26.998 37.9971 42.9971 99.4941q15.999 61.4961 15.999 151.49q37.998 -7.99902 86.9951 -11.999t102.993 -4q50.9971 0 101.994 4t98.9941 11.999q-3 -15.999 -6 -44.9971t-4.99902 -64.9961q-2 -35.998 -3.5 -75.4951q-1.5 -39.498 -1.5 -76.4961q0 -41.9971 2 -73.9951
t5.99902 -48.9971q-72.9951 0 -129.492 -17.999q-56.4961 -17.999 -98.4932 -43.9971q-41.998 -25.998 -69.9961 -54.9971q-27.998 -28.998 -44.9971 -50.9961q-13.999 11.999 -39.498 20.498q-25.498 8.5 -59.4961 13.999q-33.998 5.5 -73.4951 8q-39.498 2.5 -81.4951 2.5
q-35.998 0 -72.4961 -2.5t-67.9961 -8q-31.498 -5.49902 -54.9961 -13.999q-23.499 -8.49902 -34.498 -20.498q-7 28.998 -33.998 60.4961t-66.9961 57.4961q-39.9971 25.999 -87.9941 43.498q-47.9971 17.498 -96.9941 17.498q10.999 21.999 17.999 70.4961
q6.99902 48.4971 6.99902 105.493q0 63.9961 -5.49902 118.493q-5.5 54.4971 -19.499 82.4951q28.998 1 71.9951 12.999q42.998 11.999 90.4951 32.498t94.9941 48.4971t85.4941 61.9961q37.998 33.998 61.4971 71.9961q23.498 37.9971 23.498 78.9951
q0 51.9961 -9.49902 85.9941q-9.5 33.998 -23.499 62.9961q15.999 -2.99902 31.498 -5.99902t34.498 -5t42.4971 -3.5q23.499 -1.5 55.4971 -1.5q17.999 0 41.9971 1.5q23.999 1.5 47.9971 3.5q23.999 2 43.498 5.5q19.498 3.5 27.498 7.49902zM923.023 1430
q-10.999 -22.999 -19.999 -68.4961q-8.99902 -45.4971 -8.99902 -111.493q0 -30.998 2.5 -59.9961t6.49902 -53.9971q4 -24.998 9.5 -44.4971q5.49902 -19.499 11.499 -31.498q-17.999 6 -44.9971 11.499q-26.998 5.5 -60.9961 9.5t-71.9961 6.49902
q-37.9971 2.5 -76.9951 2.5q-35.998 0 -72.9951 -1.5q-36.998 -1.5 -69.9961 -5.49902q-32.998 -4 -59.4961 -9.5q-26.499 -5.49902 -42.498 -13.499q12.999 23.999 18.999 76.9951q6 52.9971 6 112.993q0 56.9971 -6 103.494t-18.999 76.4951q15.999 -5 42.498 -9.49902
q26.498 -4.5 59.9961 -8t71.4951 -5.5q37.998 -1.99902 76.9961 -1.99902q38.9971 0 76.4951 1.99902q37.4971 2 70.4951 5.5t58.9971 8q25.998 4.49902 41.9971 9.49902z" />
    <glyph glyph-name="Agrave" unicode="&#xc0;" 
d="M8 0q6 25 9 61.5t3 75.5q0 36 -2.5 67.5t-7.5 55.5q51 2 87 18.5t59 36.5q24 37 49 83t45.5 94.5t33.5 97t13 90.5q0 17 -5 34t-17 21q30 8 60 44t58 89t52 118t42 131.5t28 129.5t10 112q0 17 -2 33t-2 27q0 5 0.5 9t0.5 12q23 -9 57.5 -15.5t77.5 -11t92 -6.5t102 -2
q46 0 94 2t93 6.5t84 11t65 15.5v-4v-9q0 -11 -2.5 -27.5t-2.5 -36.5q0 -46 8.5 -108t23.5 -128.5t36.5 -132t47.5 -120t56 -92t63 -47.5q-14 -5 -19.5 -19.5t-5.5 -35.5q0 -42 12.5 -90.5t33 -97t45 -93.5t48.5 -81q15 -9 36 -19t44 -19t46 -14.5t43 -5.5
q-5 -24 -7.5 -55.5t-2.5 -67.5q0 -39 3 -75.5t9 -61.5q-36 4 -83 8.5t-101 8t-112 6t-116 2.5q-106 0 -201.5 -6.5t-161.5 -18.5q3 17 5.5 53.5t2.5 81.5q0 19 -1 38.5t-2 36.5t-2.5 30.5t-2.5 19.5q18 0 38 1.5t39.5 5.5t37.5 11t32 19q-2 40 -13 68.5t-41.5 47.5t-85 28
t-142.5 9q-79 0 -131.5 -6t-85 -22.5t-48 -46t-19.5 -77.5q15 -12 36 -19t43.5 -11.5t45 -6t40.5 -1.5q-2 -6 -3.5 -19t-2.5 -30.5t-1.5 -37.5t-0.5 -38q0 -45 2.5 -81.5t5.5 -53.5q-76 14 -154 19.5t-159 5.5q-94 0 -182.5 -5.5t-169.5 -19.5zM648 743q0 -29 6.5 -48
t23 -30t45 -15.5t72.5 -4.5t72.5 4.5t45 15.5t23 30t6.5 48q0 35 -18 86t-42 107t-49 112t-38 101q-15 -45 -40 -101t-48.5 -112t-41 -107t-17.5 -86zM743 1510v5q0 17 -16.5 55.5t-43 88t-61 104t-70 104t-70 88t-60.5 55.5q16 -7 47 -12t69 -8.5t79 -5t79 -1.5
q81 0 142.5 7.5t97.5 19.5q-2 -8 -2 -17q0 -24 8.5 -66.5t21.5 -93t30 -104t34 -99t33 -78.5t27 -42q-7 5 -24.5 9t-41.5 7t-54 4.5t-61 1.5q-66 0 -106.5 -6t-57.5 -16z" />
    <glyph glyph-name="Aacute" unicode="&#xc1;" 
d="M8 0q6 25 9 61.5t3 75.5q0 36 -2.5 67.5t-7.5 55.5q51 2 87 18.5t59 36.5q24 37 49 83t45.5 94.5t33.5 97t13 90.5q0 17 -5 34t-17 21q30 8 60 44t58 89t52 118t42 131.5t28 129.5t10 112q0 17 -2 33t-2 27q0 5 0.5 9t0.5 12q23 -9 57.5 -15.5t77.5 -11t92 -6.5t102 -2
q46 0 94 2t93 6.5t84 11t65 15.5v-4v-9q0 -11 -2.5 -27.5t-2.5 -36.5q0 -46 8.5 -108t23.5 -128.5t36.5 -132t47.5 -120t56 -92t63 -47.5q-14 -5 -19.5 -19.5t-5.5 -35.5q0 -42 12.5 -90.5t33 -97t45 -93.5t48.5 -81q15 -9 36 -19t44 -19t46 -14.5t43 -5.5
q-5 -24 -7.5 -55.5t-2.5 -67.5q0 -39 3 -75.5t9 -61.5q-36 4 -83 8.5t-101 8t-112 6t-116 2.5q-106 0 -201.5 -6.5t-161.5 -18.5q3 17 5.5 53.5t2.5 81.5q0 19 -1 38.5t-2 36.5t-2.5 30.5t-2.5 19.5q18 0 38 1.5t39.5 5.5t37.5 11t32 19q-2 40 -13 68.5t-41.5 47.5t-85 28
t-142.5 9q-79 0 -131.5 -6t-85 -22.5t-48 -46t-19.5 -77.5q15 -12 36 -19t43.5 -11.5t45 -6t40.5 -1.5q-2 -6 -3.5 -19t-2.5 -30.5t-1.5 -37.5t-0.5 -38q0 -45 2.5 -81.5t5.5 -53.5q-76 14 -154 19.5t-159 5.5q-94 0 -182.5 -5.5t-169.5 -19.5zM648 743q0 -29 6.5 -48
t23 -30t45 -15.5t72.5 -4.5t72.5 4.5t45 15.5t23 30t6.5 48q0 35 -18 86t-42 107t-49 112t-38 101q-15 -45 -40 -101t-48.5 -112t-41 -107t-17.5 -86zM642 1510q10 10 23 41t26 74.5t25 94.5t21.5 100t15 92t5.5 70q0 19 -3 28q36 -12 97.5 -19.5t142.5 -7.5q37 0 78.5 1.5
t79.5 5t68.5 8.5t47.5 12q-27 -17 -58 -55t-62.5 -87t-61 -103.5t-52 -104t-36 -88.5t-13.5 -56q0 -2 0.5 -3t0.5 -3q-17 10 -57.5 16t-106.5 6q-32 0 -61.5 -1.5t-53.5 -4.5t-41.5 -7t-24.5 -9z" />
    <glyph glyph-name="Acircumflex" unicode="&#xc2;" 
d="M8 0q6 25 9 61.5t3 75.5q0 36 -2.5 67.5t-7.5 55.5q51 2 87 18.5t59 36.5q24 37 49 83t45.5 94.5t33.5 97t13 90.5q0 17 -5 34t-17 21q30 8 60 44t58 89t52 118t42 131.5t28 129.5t10 112q0 17 -2 33t-2 27q0 5 0.5 9t0.5 12q23 -9 57.5 -15.5t77.5 -11t92 -6.5t102 -2
q46 0 94 2t93 6.5t84 11t65 15.5v-4v-9q0 -11 -2.5 -27.5t-2.5 -36.5q0 -46 8.5 -108t23.5 -128.5t36.5 -132t47.5 -120t56 -92t63 -47.5q-14 -5 -19.5 -19.5t-5.5 -35.5q0 -42 12.5 -90.5t33 -97t45 -93.5t48.5 -81q15 -9 36 -19t44 -19t46 -14.5t43 -5.5
q-5 -24 -7.5 -55.5t-2.5 -67.5q0 -39 3 -75.5t9 -61.5q-36 4 -83 8.5t-101 8t-112 6t-116 2.5q-106 0 -201.5 -6.5t-161.5 -18.5q3 17 5.5 53.5t2.5 81.5q0 19 -1 38.5t-2 36.5t-2.5 30.5t-2.5 19.5q18 0 38 1.5t39.5 5.5t37.5 11t32 19q-2 40 -13 68.5t-41.5 47.5t-85 28
t-142.5 9q-79 0 -131.5 -6t-85 -22.5t-48 -46t-19.5 -77.5q15 -12 36 -19t43.5 -11.5t45 -6t40.5 -1.5q-2 -6 -3.5 -19t-2.5 -30.5t-1.5 -37.5t-0.5 -38q0 -45 2.5 -81.5t5.5 -53.5q-76 14 -154 19.5t-159 5.5q-94 0 -182.5 -5.5t-169.5 -19.5zM648 743q0 -29 6.5 -48
t23 -30t45 -15.5t72.5 -4.5t72.5 4.5t45 15.5t23 30t6.5 48q0 35 -18 86t-42 107t-49 112t-38 101q-15 -45 -40 -101t-48.5 -112t-41 -107t-17.5 -86zM327 1559q15 11 44 42t64 73.5t71.5 91.5t66.5 95.5t49 84.5t19 60v4q12 -6 35 -11t52 -8.5t61 -5.5t63 -2q72 0 127 7.5
t80 19.5q0 -2 -0.5 -2.5t-0.5 -2.5q0 -22 20 -60.5t51.5 -84.5t70 -95t74.5 -91t66 -73.5t44 -41.5q-15 5 -61.5 10.5t-115.5 5.5q-66 0 -103 -5.5t-57 -10.5q-9 13 -22.5 36t-35 49.5t-53 55t-76.5 53.5q-50 -25 -84.5 -53.5t-58.5 -55.5t-39 -49.5t-25 -35.5
q-14 5 -49.5 10.5t-99.5 5.5q-69 0 -115.5 -5.5t-61.5 -10.5z" />
    <glyph glyph-name="Atilde" unicode="&#xc3;" 
d="M8 0q6 25 9 61.5t3 75.5q0 36 -2.5 67.5t-7.5 55.5q51 2 87 18.5t59 36.5q24 37 49 83t45.5 94.5t33.5 97t13 90.5q0 17 -5 34t-17 21q30 8 60 44t58 89t52 118t42 131.5t28 129.5t10 112q0 17 -2 33t-2 27q0 5 0.5 9t0.5 12q23 -9 57.5 -15.5t77.5 -11t92 -6.5t102 -2
q46 0 94 2t93 6.5t84 11t65 15.5v-4v-9q0 -11 -2.5 -27.5t-2.5 -36.5q0 -46 8.5 -108t23.5 -128.5t36.5 -132t47.5 -120t56 -92t63 -47.5q-14 -5 -19.5 -19.5t-5.5 -35.5q0 -42 12.5 -90.5t33 -97t45 -93.5t48.5 -81q15 -9 36 -19t44 -19t46 -14.5t43 -5.5
q-5 -24 -7.5 -55.5t-2.5 -67.5q0 -39 3 -75.5t9 -61.5q-36 4 -83 8.5t-101 8t-112 6t-116 2.5q-106 0 -201.5 -6.5t-161.5 -18.5q3 17 5.5 53.5t2.5 81.5q0 19 -1 38.5t-2 36.5t-2.5 30.5t-2.5 19.5q18 0 38 1.5t39.5 5.5t37.5 11t32 19q-2 40 -13 68.5t-41.5 47.5t-85 28
t-142.5 9q-79 0 -131.5 -6t-85 -22.5t-48 -46t-19.5 -77.5q15 -12 36 -19t43.5 -11.5t45 -6t40.5 -1.5q-2 -6 -3.5 -19t-2.5 -30.5t-1.5 -37.5t-0.5 -38q0 -45 2.5 -81.5t5.5 -53.5q-76 14 -154 19.5t-159 5.5q-94 0 -182.5 -5.5t-169.5 -19.5zM648 743q0 -29 6.5 -48
t23 -30t45 -15.5t72.5 -4.5t72.5 4.5t45 15.5t23 30t6.5 48q0 35 -18 86t-42 107t-49 112t-38 101q-15 -45 -40 -101t-48.5 -112t-41 -107t-17.5 -86zM273 1531q7 10 11.5 28.5t7.5 41.5t4.5 48t1.5 48q0 19 -2.5 42t-6 44t-8.5 35.5t-11 16.5q71 0 137.5 16.5t117.5 42.5
t81.5 56.5t30.5 59.5q69 -2 121 -16.5t92.5 -35t70.5 -44t54 -43.5t45 -33t42 -13q25 0 40 9t23 23t10.5 32t2.5 36q0 24 -6 46.5t-16 38.5q7 -8 23 -13t36 -8t42.5 -4t42.5 -1q25 0 54 2t55 5t45 7.5t24 9.5q-7 -9 -12 -24.5t-8 -36t-4.5 -43.5t-1.5 -47q0 -19 2.5 -44
t6 -48.5t8.5 -40t11 -18.5q-30 3 -59 3q-74 0 -131.5 -18t-96.5 -45t-59.5 -58t-20.5 -57q-69 2 -121 16.5t-92.5 35t-70.5 44t-54 43.5t-45 33t-42 13q-25 0 -39.5 -9.5t-22.5 -24t-10.5 -33t-2.5 -36.5q0 -24 5.5 -46.5t15.5 -38.5q-7 7 -24.5 12t-39.5 8t-46 4.5t-44 1.5
q-24 0 -50.5 -1.5t-50 -4.5t-41.5 -7.5t-25 -9.5z" />
    <glyph glyph-name="Adieresis" unicode="&#xc4;" 
d="M8 0q6 25 9 61.5t3 75.5q0 36 -2.5 67.5t-7.5 55.5q51 2 87 18.5t59 36.5q24 37 49 83t45.5 94.5t33.5 97t13 90.5q0 17 -5 34t-17 21q30 8 60 44t58 89t52 118t42 131.5t28 129.5t10 112q0 17 -2 33t-2 27q0 5 0.5 9t0.5 12q23 -9 57.5 -15.5t77.5 -11t92 -6.5t102 -2
q46 0 94 2t93 6.5t84 11t65 15.5v-4v-9q0 -11 -2.5 -27.5t-2.5 -36.5q0 -46 8.5 -108t23.5 -128.5t36.5 -132t47.5 -120t56 -92t63 -47.5q-14 -5 -19.5 -19.5t-5.5 -35.5q0 -42 12.5 -90.5t33 -97t45 -93.5t48.5 -81q15 -9 36 -19t44 -19t46 -14.5t43 -5.5
q-5 -24 -7.5 -55.5t-2.5 -67.5q0 -39 3 -75.5t9 -61.5q-36 4 -83 8.5t-101 8t-112 6t-116 2.5q-106 0 -201.5 -6.5t-161.5 -18.5q3 17 5.5 53.5t2.5 81.5q0 19 -1 38.5t-2 36.5t-2.5 30.5t-2.5 19.5q18 0 38 1.5t39.5 5.5t37.5 11t32 19q-2 40 -13 68.5t-41.5 47.5t-85 28
t-142.5 9q-79 0 -131.5 -6t-85 -22.5t-48 -46t-19.5 -77.5q15 -12 36 -19t43.5 -11.5t45 -6t40.5 -1.5q-2 -6 -3.5 -19t-2.5 -30.5t-1.5 -37.5t-0.5 -38q0 -45 2.5 -81.5t5.5 -53.5q-76 14 -154 19.5t-159 5.5q-94 0 -182.5 -5.5t-169.5 -19.5zM648 743q0 -29 6.5 -48
t23 -30t45 -15.5t72.5 -4.5t72.5 4.5t45 15.5t23 30t6.5 48q0 35 -18 86t-42 107t-49 112t-38 101q-15 -45 -40 -101t-48.5 -112t-41 -107t-17.5 -86zM947 1640q11 25 18.5 70t7.5 114q0 63 -8 112t-19 74q15 -6 40 -11t55.5 -8.5t64.5 -5.5t69 -2q33 0 66 1.5t63 5t54 8.5
t38 12q-11 -26 -17 -74.5t-6 -111.5q0 -118 23 -184q-14 4 -38 8t-54 7.5t-64.5 5.5t-69.5 2q-72 0 -132 -7.5t-91 -15.5zM317 1640q11 25 18.5 70t7.5 114q0 63 -8 112t-19 74q15 -6 40 -11t55.5 -8.5t64.5 -5.5t69 -2q33 0 66 1.5t63 5t54 8.5t38 12q-11 -26 -17 -74.5
t-6 -111.5q0 -118 23 -184q-14 4 -38 8t-54 7.5t-64.5 5.5t-69.5 2q-72 0 -132 -7.5t-91 -15.5z" />
    <glyph glyph-name="Aring" unicode="&#xc5;" 
d="M8 0q6 25 9 61.5t3 75.5q0 36 -2.5 67.5t-7.5 55.5q51 2 87 18.5t59 36.5q24 37 49 83t45.5 94.5t33.5 97t13 90.5q0 17 -5 34t-17 21q30 8 60 44t58 89t52 118t42 131.5t28 129.5t10 112q0 17 -2 33t-2 27q0 5 0.5 9t0.5 12q23 -9 57.5 -15.5t77.5 -11t92 -6.5t102 -2
q46 0 94 2t93 6.5t84 11t65 15.5v-4v-9q0 -11 -2.5 -27.5t-2.5 -36.5q0 -46 8.5 -108t23.5 -128.5t36.5 -132t47.5 -120t56 -92t63 -47.5q-14 -5 -19.5 -19.5t-5.5 -35.5q0 -42 12.5 -90.5t33 -97t45 -93.5t48.5 -81q15 -9 36 -19t44 -19t46 -14.5t43 -5.5
q-5 -24 -7.5 -55.5t-2.5 -67.5q0 -39 3 -75.5t9 -61.5q-36 4 -83 8.5t-101 8t-112 6t-116 2.5q-106 0 -201.5 -6.5t-161.5 -18.5q3 17 5.5 53.5t2.5 81.5q0 19 -1 38.5t-2 36.5t-2.5 30.5t-2.5 19.5q18 0 38 1.5t39.5 5.5t37.5 11t32 19q-2 40 -13 68.5t-41.5 47.5t-85 28
t-142.5 9q-79 0 -131.5 -6t-85 -22.5t-48 -46t-19.5 -77.5q15 -12 36 -19t43.5 -11.5t45 -6t40.5 -1.5q-2 -6 -3.5 -19t-2.5 -30.5t-1.5 -37.5t-0.5 -38q0 -45 2.5 -81.5t5.5 -53.5q-76 14 -154 19.5t-159 5.5q-94 0 -182.5 -5.5t-169.5 -19.5zM648 743q0 -29 6.5 -48
t23 -30t45 -15.5t72.5 -4.5t72.5 4.5t45 15.5t23 30t6.5 48q0 35 -18 86t-42 107t-49 112t-38 101q-15 -45 -40 -101t-48.5 -112t-41 -107t-17.5 -86zM642 1405q-12 33 -42 64.5t-66.5 56.5t-74.5 40.5t-65 15.5q11 17 19.5 47.5t8.5 92.5q0 27 -3 46.5t-7 34t-9 25t-9 18.5
q30 4 68.5 18.5t75.5 36.5t65 50t37 59q11 -4 32.5 -9t51 -9t65 -7t74.5 -3q36 0 69.5 3t61 7.5t47.5 9.5t29 8q9 -31 38 -59t66 -50t75.5 -36.5t66.5 -18.5q-10 -15 -19 -42.5t-9 -78.5q0 -61 6.5 -93.5t21.5 -49.5q-28 0 -67 -17.5t-76.5 -43.5t-67 -57.5t-37.5 -58.5
q-14 3 -36 7.5t-50 9t-61 8t-68 3.5q-34 0 -67.5 -3.5t-62 -8t-50 -9t-31.5 -7.5zM859 1590q24 0 47.5 3.5t42.5 15.5t31 35.5t12 62.5q0 68 -36 97t-97 29q-62 0 -98 -29t-36 -97q0 -39 12 -62.5t31.5 -35.5t43 -15.5t47.5 -3.5z" />
    <glyph glyph-name="AE" unicode="&#xc6;" horiz-adv-x="2385" 
d="M8 0q6 25 9 61.5t3 75.5q0 36 -2.5 67.5t-7.5 55.5q63 2 113.5 18.5t79.5 36.5q39 37 78.5 83t71 94.5t51.5 97t20 90.5q0 17 -5 34t-17 21q48 12 102.5 56t110 107t107.5 138t95 149.5t72.5 141t39.5 113.5q13 -9 37 -16t52 -11t57 -6t53 -2q18 0 46 2t56.5 6t52 11
t31.5 16q19 -12 51 -18.5t73.5 -10.5t91 -5t103.5 -1q36 0 90.5 1t117 3.5t128 5.5t122.5 7t101 8.5t64 9.5q-8 -42 -16.5 -106.5t-8.5 -136.5q0 -42 3 -82.5t6.5 -74t8 -58.5t7.5 -37q-30 11 -76.5 18t-98.5 7q-46 0 -92 -5.5t-88 -19.5q6 21 10.5 52.5t4.5 63.5
q0 50 -17.5 79.5t-44.5 45t-59 20t-60 4.5q-23 0 -48.5 -1.5t-52 -7t-52.5 -15t-48 -25.5q-4 -23 -7 -53t-3 -75q0 -67 2.5 -104.5t6.5 -57.5q27 -12 63 -17t74 -5q57 0 108 9t74 21q-8 -22 -11.5 -61t-3.5 -82q0 -24 1 -47.5t3.5 -43t5 -34t5.5 -21.5q-9 5 -29 10.5
t-46.5 10.5t-58 8.5t-64.5 3.5q-34 0 -65 -4t-56 -15q-2 -12 -3.5 -27.5t-3 -39t-2 -55.5t-0.5 -75q0 -52 3.5 -86t8.5 -59q24 -13 51 -21t54.5 -12.5t54 -6.5t49.5 -2q29 0 59.5 7.5t55.5 28t41 57t16 93.5q0 36 -4.5 71t-11.5 58q42 -14 88 -19.5t92 -5.5q52 0 98.5 7
t76.5 18q-3 -13 -7.5 -40t-8 -63.5t-6.5 -80t-3 -88.5q0 -78 8 -148t17 -115q-20 4 -64 7.5t-101 6t-122.5 5t-128 4t-117 2t-90.5 0.5t-95.5 -0.5t-129 -2t-142.5 -4t-137.5 -5t-113 -6t-68.5 -7.5q3 17 5.5 53.5t2.5 81.5q0 19 -1 38.5t-2 36.5t-2.5 30.5t-2.5 19.5
q18 0 39 1.5t42 5t40 11t34 19.5q-1 40 -8.5 68.5t-27.5 47.5t-55 28t-92 9q-79 0 -144 -11.5t-113.5 -32t-79.5 -49.5t-42 -63q13 -11 33 -17.5t41 -10t42 -5t37 -1.5q-2 -6 -3.5 -19t-2.5 -30.5t-1.5 -37.5t-0.5 -38q0 -45 2.5 -81.5t5.5 -53.5q-81 14 -163.5 19.5
t-169.5 5.5q-94 0 -182.5 -5.5t-169.5 -19.5zM825 743q0 -29 11 -48t31 -30t46.5 -15.5t58.5 -4.5q50 0 79.5 9t44.5 26t19 40.5t4 52.5q0 33 -0.5 83t-1.5 105.5t-2.5 112t-2.5 103.5q-19 -31 -47.5 -69t-60.5 -78.5t-64 -82t-57.5 -79t-41.5 -70t-16 -55.5z" />
    <glyph glyph-name="Ccedilla" unicode="&#xc7;" 
d="M106 268q19 26 35 106.5t16 219.5q0 63 -17 96.5t-49 44.5q18 5 31 23t22 44t13 57.5t4 64.5q0 86 -14.5 152.5t-40.5 95.5h8q33 0 74 15t83 39.5t81.5 55t71 62.5t51.5 62.5t22 53.5q33 -18 115.5 -36.5t217.5 -18.5q32 0 68.5 4t71 11.5t64.5 17.5t49 22
q10 -31 30 -63.5t49 -55.5q28 22 40.5 50t17.5 49q9 -5 28 -8.5t44 -6t54 -4t59 -1.5q18 0 42 1.5t48.5 4t47.5 6t40 8.5q-2 -8 -6.5 -31t-8.5 -53t-7 -64t-3 -65q0 -64 3 -121t6.5 -103t8 -79t7.5 -49q-24 4 -51.5 6.5t-56 4.5t-55.5 3t-48 1q-122 0 -219 -15q0 68 -18 129
t-52 106.5t-84 72.5t-114 27q-35 0 -70 -6t-67.5 -24.5t-60 -52.5t-48 -90.5t-32 -138.5t-11.5 -196q0 -145 22.5 -238.5t61.5 -147.5t91.5 -75t113.5 -21t107.5 25.5t78 70.5t47.5 107t16 136q0 9 -0.5 18t-0.5 18q34 -7 62 -12t55 -8t56.5 -4t66.5 -1q64 0 119 7t91 18
q-6 -12 -10.5 -36t-8 -55t-5 -65.5t-1.5 -67.5q0 -40 7.5 -84t17.5 -84q-88 -1 -155 -27.5t-113.5 -62t-73 -70.5t-33.5 -53q-21 8 -49 14.5t-65.5 11t-86.5 7t-112 2.5q-67 0 -132.5 -3.5t-120.5 -10t-95 -14.5t-56 -17q-12 46 -53.5 95t-97 90t-118 69t-116.5 34z
M500 -223q31 -5 68.5 -7.5t62.5 -2.5q41 0 71.5 9.5t51 32t30.5 59t10 90.5q0 9 -0.5 23t-1 29.5t-1.5 31t-2 26.5l275 1q-15 -23 -23 -51t-11.5 -57.5t-4 -57.5t-0.5 -50q0 -52 9 -90.5t41 -64.5q-46 -11 -80 -40.5t-58 -66.5t-39 -75t-23 -66q-28 6 -69 12.5t-114 6.5
q-66 0 -119.5 -5.5t-82.5 -13.5q8 11 14 33t10 49t6 55.5t2 52.5q0 43 -5.5 80t-16.5 57z" />
    <glyph glyph-name="Egrave" unicode="&#xc8;" horiz-adv-x="1533" 
d="M100 0q6 25 10.5 60.5t4.5 73.5q0 35 -5 68.5t-10 57.5q45 0 79 7t57 23.5t34.5 45t11.5 71.5q0 84 -4.5 144t-13 99t-21.5 59.5t-30 25.5q18 6 31 19t21.5 44.5t12.5 87t4 147.5q0 43 -11.5 71.5t-34.5 45t-57 23.5t-79 7q5 24 10 57.5t5 68.5q0 38 -4.5 73.5
t-10.5 60.5q20 -5 69 -9.5t114 -8.5t139 -7t144.5 -5.5t130 -3.5t95.5 -1t92 1t120.5 3.5t132 5.5t127 7t105 8.5t65.5 9.5q-8 -42 -16.5 -106.5t-8.5 -136.5q0 -42 3 -82.5t6.5 -74t8 -58.5t7.5 -37q-15 6 -37.5 10.5t-48.5 8t-54 5t-54 1.5q-46 0 -92 -5.5t-88 -19.5
q7 21 11.5 51t4.5 61q0 51 -17.5 81.5t-44.5 46.5t-59 20.5t-61 4.5q-23 0 -48.5 -1.5t-52 -7t-52.5 -15t-48 -25.5q-4 -23 -7 -53t-3 -75q0 -67 2.5 -104.5t6.5 -57.5q27 -12 63 -17t74 -5q57 0 108 9t74 21q-8 -22 -11.5 -61t-3.5 -82q0 -24 1 -47.5t3.5 -43t5 -34
t5.5 -21.5q-9 5 -29 10.5t-46.5 10.5t-58 8.5t-64.5 3.5q-34 0 -65 -4t-56 -15q-2 -12 -3.5 -27.5t-3 -39t-2 -55.5t-0.5 -75q0 -54 4 -87.5t9 -57.5q24 -13 51 -21.5t54.5 -13t53.5 -6t49 -1.5q29 0 59.5 7.5t55.5 28t41 57t16 93.5q0 36 -4.5 71t-11.5 58q42 -14 88 -19.5
t92 -5.5q26 0 54 1.5t54 5t48.5 8t37.5 10.5q-3 -13 -7.5 -40t-8 -63.5t-6.5 -80t-3 -88.5q0 -39 2.5 -76.5t6 -71.5t8 -63.5t8.5 -51.5q-20 4 -65.5 7.5t-105 6t-127 5t-132 4t-120.5 2t-92 0.5t-95.5 -0.5t-130 -2t-144.5 -4t-139 -5t-114 -6t-69 -7.5zM645 1510v5
q0 17 -16.5 55.5t-43 88t-61 104t-70 104t-70 88t-60.5 55.5q16 -7 47 -12t69 -8.5t79 -5t79 -1.5q81 0 142.5 7.5t97.5 19.5q-2 -8 -2 -17q0 -24 8.5 -66.5t21.5 -93t30 -104t34 -99t33 -78.5t27 -42q-7 5 -24.5 9t-41.5 7t-54 4.5t-61 1.5q-66 0 -106.5 -6t-57.5 -16z" />
    <glyph glyph-name="Eacute" unicode="&#xc9;" horiz-adv-x="1533" 
d="M100 0q6 25 10.5 60.5t4.5 73.5q0 35 -5 68.5t-10 57.5q45 0 79 7t57 23.5t34.5 45t11.5 71.5q0 84 -4.5 144t-13 99t-21.5 59.5t-30 25.5q18 6 31 19t21.5 44.5t12.5 87t4 147.5q0 43 -11.5 71.5t-34.5 45t-57 23.5t-79 7q5 24 10 57.5t5 68.5q0 38 -4.5 73.5
t-10.5 60.5q20 -5 69 -9.5t114 -8.5t139 -7t144.5 -5.5t130 -3.5t95.5 -1t92 1t120.5 3.5t132 5.5t127 7t105 8.5t65.5 9.5q-8 -42 -16.5 -106.5t-8.5 -136.5q0 -42 3 -82.5t6.5 -74t8 -58.5t7.5 -37q-15 6 -37.5 10.5t-48.5 8t-54 5t-54 1.5q-46 0 -92 -5.5t-88 -19.5
q7 21 11.5 51t4.5 61q0 51 -17.5 81.5t-44.5 46.5t-59 20.5t-61 4.5q-23 0 -48.5 -1.5t-52 -7t-52.5 -15t-48 -25.5q-4 -23 -7 -53t-3 -75q0 -67 2.5 -104.5t6.5 -57.5q27 -12 63 -17t74 -5q57 0 108 9t74 21q-8 -22 -11.5 -61t-3.5 -82q0 -24 1 -47.5t3.5 -43t5 -34
t5.5 -21.5q-9 5 -29 10.5t-46.5 10.5t-58 8.5t-64.5 3.5q-34 0 -65 -4t-56 -15q-2 -12 -3.5 -27.5t-3 -39t-2 -55.5t-0.5 -75q0 -54 4 -87.5t9 -57.5q24 -13 51 -21.5t54.5 -13t53.5 -6t49 -1.5q29 0 59.5 7.5t55.5 28t41 57t16 93.5q0 36 -4.5 71t-11.5 58q42 -14 88 -19.5
t92 -5.5q26 0 54 1.5t54 5t48.5 8t37.5 10.5q-3 -13 -7.5 -40t-8 -63.5t-6.5 -80t-3 -88.5q0 -39 2.5 -76.5t6 -71.5t8 -63.5t8.5 -51.5q-20 4 -65.5 7.5t-105 6t-127 5t-132 4t-120.5 2t-92 0.5t-95.5 -0.5t-130 -2t-144.5 -4t-139 -5t-114 -6t-69 -7.5zM544 1510
q10 10 23 41t26 74.5t25 94.5t21.5 100t15 92t5.5 70q0 19 -3 28q36 -12 97.5 -19.5t142.5 -7.5q37 0 78.5 1.5t79.5 5t68.5 8.5t47.5 12q-27 -17 -58 -55t-62.5 -87t-61 -103.5t-52 -104t-36 -88.5t-13.5 -56q0 -2 0.5 -3t0.5 -3q-17 10 -57.5 16t-106.5 6
q-32 0 -61.5 -1.5t-53.5 -4.5t-41.5 -7t-24.5 -9z" />
    <glyph glyph-name="Ecircumflex" unicode="&#xca;" horiz-adv-x="1533" 
d="M100 0q6 25 10.5 60.5t4.5 73.5q0 35 -5 68.5t-10 57.5q45 0 79 7t57 23.5t34.5 45t11.5 71.5q0 84 -4.5 144t-13 99t-21.5 59.5t-30 25.5q18 6 31 19t21.5 44.5t12.5 87t4 147.5q0 43 -11.5 71.5t-34.5 45t-57 23.5t-79 7q5 24 10 57.5t5 68.5q0 38 -4.5 73.5
t-10.5 60.5q20 -5 69 -9.5t114 -8.5t139 -7t144.5 -5.5t130 -3.5t95.5 -1t92 1t120.5 3.5t132 5.5t127 7t105 8.5t65.5 9.5q-8 -42 -16.5 -106.5t-8.5 -136.5q0 -42 3 -82.5t6.5 -74t8 -58.5t7.5 -37q-15 6 -37.5 10.5t-48.5 8t-54 5t-54 1.5q-46 0 -92 -5.5t-88 -19.5
q7 21 11.5 51t4.5 61q0 51 -17.5 81.5t-44.5 46.5t-59 20.5t-61 4.5q-23 0 -48.5 -1.5t-52 -7t-52.5 -15t-48 -25.5q-4 -23 -7 -53t-3 -75q0 -67 2.5 -104.5t6.5 -57.5q27 -12 63 -17t74 -5q57 0 108 9t74 21q-8 -22 -11.5 -61t-3.5 -82q0 -24 1 -47.5t3.5 -43t5 -34
t5.5 -21.5q-9 5 -29 10.5t-46.5 10.5t-58 8.5t-64.5 3.5q-34 0 -65 -4t-56 -15q-2 -12 -3.5 -27.5t-3 -39t-2 -55.5t-0.5 -75q0 -54 4 -87.5t9 -57.5q24 -13 51 -21.5t54.5 -13t53.5 -6t49 -1.5q29 0 59.5 7.5t55.5 28t41 57t16 93.5q0 36 -4.5 71t-11.5 58q42 -14 88 -19.5
t92 -5.5q26 0 54 1.5t54 5t48.5 8t37.5 10.5q-3 -13 -7.5 -40t-8 -63.5t-6.5 -80t-3 -88.5q0 -39 2.5 -76.5t6 -71.5t8 -63.5t8.5 -51.5q-20 4 -65.5 7.5t-105 6t-127 5t-132 4t-120.5 2t-92 0.5t-95.5 -0.5t-130 -2t-144.5 -4t-139 -5t-114 -6t-69 -7.5zM229 1559
q15 11 44 42t64 73.5t71.5 91.5t66.5 95.5t49 84.5t19 60v4q12 -6 35 -11t52 -8.5t61 -5.5t63 -2q72 0 127 7.5t80 19.5q0 -2 -0.5 -2.5t-0.5 -2.5q0 -22 20 -60.5t51.5 -84.5t70 -95t74.5 -91t66 -73.5t44 -41.5q-15 5 -61.5 10.5t-115.5 5.5q-66 0 -103 -5.5t-57 -10.5
q-9 13 -22.5 36t-35 49.5t-53 55t-76.5 53.5q-50 -25 -84.5 -53.5t-58.5 -55.5t-39 -49.5t-25 -35.5q-14 5 -49.5 10.5t-99.5 5.5q-69 0 -115.5 -5.5t-61.5 -10.5z" />
    <glyph glyph-name="Edieresis" unicode="&#xcb;" horiz-adv-x="1533" 
d="M100 0q6 25 10.5 60.5t4.5 73.5q0 35 -5 68.5t-10 57.5q45 0 79 7t57 23.5t34.5 45t11.5 71.5q0 84 -4.5 144t-13 99t-21.5 59.5t-30 25.5q18 6 31 19t21.5 44.5t12.5 87t4 147.5q0 43 -11.5 71.5t-34.5 45t-57 23.5t-79 7q5 24 10 57.5t5 68.5q0 38 -4.5 73.5
t-10.5 60.5q20 -5 69 -9.5t114 -8.5t139 -7t144.5 -5.5t130 -3.5t95.5 -1t92 1t120.5 3.5t132 5.5t127 7t105 8.5t65.5 9.5q-8 -42 -16.5 -106.5t-8.5 -136.5q0 -42 3 -82.5t6.5 -74t8 -58.5t7.5 -37q-15 6 -37.5 10.5t-48.5 8t-54 5t-54 1.5q-46 0 -92 -5.5t-88 -19.5
q7 21 11.5 51t4.5 61q0 51 -17.5 81.5t-44.5 46.5t-59 20.5t-61 4.5q-23 0 -48.5 -1.5t-52 -7t-52.5 -15t-48 -25.5q-4 -23 -7 -53t-3 -75q0 -67 2.5 -104.5t6.5 -57.5q27 -12 63 -17t74 -5q57 0 108 9t74 21q-8 -22 -11.5 -61t-3.5 -82q0 -24 1 -47.5t3.5 -43t5 -34
t5.5 -21.5q-9 5 -29 10.5t-46.5 10.5t-58 8.5t-64.5 3.5q-34 0 -65 -4t-56 -15q-2 -12 -3.5 -27.5t-3 -39t-2 -55.5t-0.5 -75q0 -54 4 -87.5t9 -57.5q24 -13 51 -21.5t54.5 -13t53.5 -6t49 -1.5q29 0 59.5 7.5t55.5 28t41 57t16 93.5q0 36 -4.5 71t-11.5 58q42 -14 88 -19.5
t92 -5.5q26 0 54 1.5t54 5t48.5 8t37.5 10.5q-3 -13 -7.5 -40t-8 -63.5t-6.5 -80t-3 -88.5q0 -39 2.5 -76.5t6 -71.5t8 -63.5t8.5 -51.5q-20 4 -65.5 7.5t-105 6t-127 5t-132 4t-120.5 2t-92 0.5t-95.5 -0.5t-130 -2t-144.5 -4t-139 -5t-114 -6t-69 -7.5zM849 1640
q11 25 18.5 70t7.5 114q0 63 -8 112t-19 74q15 -6 40 -11t55.5 -8.5t64.5 -5.5t69 -2q33 0 66 1.5t63 5t54 8.5t38 12q-11 -26 -17 -74.5t-6 -111.5q0 -118 23 -184q-14 4 -38 8t-54 7.5t-64.5 5.5t-69.5 2q-72 0 -132 -7.5t-91 -15.5zM219 1640q11 25 18.5 70t7.5 114
q0 63 -8 112t-19 74q15 -6 40 -11t55.5 -8.5t64.5 -5.5t69 -2q33 0 66 1.5t63 5t54 8.5t38 12q-11 -26 -17 -74.5t-6 -111.5q0 -118 23 -184q-14 4 -38 8t-54 7.5t-64.5 5.5t-69.5 2q-72 0 -132 -7.5t-91 -15.5z" />
    <glyph glyph-name="Igrave" unicode="&#xcc;" horiz-adv-x="1022" 
d="M110 0q6 25 10.5 60.5t4.5 73.5q0 35 -5 68.5t-10 57.5q45 0 83.5 7t67 23.5t45 45t16.5 71.5q0 84 -4.5 144t-13 99t-21.5 59.5t-30 25.5q18 6 31 21.5t21.5 50.5t12.5 93.5t4 150.5q0 40 -18.5 65t-48 39.5t-65.5 19.5t-71 5h-19q5 24 10 55.5t5 66.5q0 37 -4.5 75
t-10.5 63q19 -7 66.5 -13.5t107.5 -11t126 -7.5t123 -3q58 0 119 3t115 8t96 11t62 13q-6 -25 -10.5 -63t-4.5 -75q0 -35 5 -66.5t10 -55.5h-21q-37 0 -68 -5t-54 -19.5t-36 -39.5t-13 -65q0 -92 4 -150.5t12.5 -93.5t21.5 -50.5t31 -21.5q-17 -5 -30 -25.5t-21.5 -59.5
t-13 -99t-4.5 -144q0 -43 14.5 -71.5t41.5 -45t66.5 -23.5t89.5 -7q-5 -24 -10 -57.5t-5 -68.5q0 -38 4.5 -73.5t10.5 -60.5q-29 6 -77.5 10.5t-106 8t-117.5 5t-111 1.5t-111.5 -1.5t-118 -5t-106.5 -8t-77 -10.5zM400 1510v5q0 17 -16.5 55.5t-43 88t-61 104t-70 104
t-70 88t-60.5 55.5q16 -7 47 -12t69 -8.5t79 -5t79 -1.5q81 0 142.5 7.5t97.5 19.5q-2 -8 -2 -17q0 -24 8.5 -66.5t21.5 -93t30 -104t34 -99t33 -78.5t27 -42q-7 5 -24.5 9t-41.5 7t-54 4.5t-61 1.5q-66 0 -106.5 -6t-57.5 -16z" />
    <glyph glyph-name="Iacute" unicode="&#xcd;" horiz-adv-x="1022" 
d="M110 0q6 25 10.5 60.5t4.5 73.5q0 35 -5 68.5t-10 57.5q45 0 83.5 7t67 23.5t45 45t16.5 71.5q0 84 -4.5 144t-13 99t-21.5 59.5t-30 25.5q18 6 31 21.5t21.5 50.5t12.5 93.5t4 150.5q0 40 -18.5 65t-48 39.5t-65.5 19.5t-71 5h-19q5 24 10 55.5t5 66.5q0 37 -4.5 75
t-10.5 63q19 -7 66.5 -13.5t107.5 -11t126 -7.5t123 -3q58 0 119 3t115 8t96 11t62 13q-6 -25 -10.5 -63t-4.5 -75q0 -35 5 -66.5t10 -55.5h-21q-37 0 -68 -5t-54 -19.5t-36 -39.5t-13 -65q0 -92 4 -150.5t12.5 -93.5t21.5 -50.5t31 -21.5q-17 -5 -30 -25.5t-21.5 -59.5
t-13 -99t-4.5 -144q0 -43 14.5 -71.5t41.5 -45t66.5 -23.5t89.5 -7q-5 -24 -10 -57.5t-5 -68.5q0 -38 4.5 -73.5t10.5 -60.5q-29 6 -77.5 10.5t-106 8t-117.5 5t-111 1.5t-111.5 -1.5t-118 -5t-106.5 -8t-77 -10.5zM299 1510q10 10 23 41t26 74.5t25 94.5t21.5 100t15 92
t5.5 70q0 19 -3 28q36 -12 97.5 -19.5t142.5 -7.5q37 0 78.5 1.5t79.5 5t68.5 8.5t47.5 12q-27 -17 -58 -55t-62.5 -87t-61 -103.5t-52 -104t-36 -88.5t-13.5 -56q0 -2 0.5 -3t0.5 -3q-17 10 -57.5 16t-106.5 6q-32 0 -61.5 -1.5t-53.5 -4.5t-41.5 -7t-24.5 -9z" />
    <glyph glyph-name="Icircumflex" unicode="&#xce;" horiz-adv-x="1022" 
d="M110 0q6 25 10.5 60.5t4.5 73.5q0 35 -5 68.5t-10 57.5q45 0 83.5 7t67 23.5t45 45t16.5 71.5q0 84 -4.5 144t-13 99t-21.5 59.5t-30 25.5q18 6 31 21.5t21.5 50.5t12.5 93.5t4 150.5q0 40 -18.5 65t-48 39.5t-65.5 19.5t-71 5h-19q5 24 10 55.5t5 66.5q0 37 -4.5 75
t-10.5 63q19 -7 66.5 -13.5t107.5 -11t126 -7.5t123 -3q58 0 119 3t115 8t96 11t62 13q-6 -25 -10.5 -63t-4.5 -75q0 -35 5 -66.5t10 -55.5h-21q-37 0 -68 -5t-54 -19.5t-36 -39.5t-13 -65q0 -92 4 -150.5t12.5 -93.5t21.5 -50.5t31 -21.5q-17 -5 -30 -25.5t-21.5 -59.5
t-13 -99t-4.5 -144q0 -43 14.5 -71.5t41.5 -45t66.5 -23.5t89.5 -7q-5 -24 -10 -57.5t-5 -68.5q0 -38 4.5 -73.5t10.5 -60.5q-29 6 -77.5 10.5t-106 8t-117.5 5t-111 1.5t-111.5 -1.5t-118 -5t-106.5 -8t-77 -10.5zM-16 1559q15 11 44 42t64 73.5t71.5 91.5t66.5 95.5
t49 84.5t19 60v4q12 -6 35 -11t52 -8.5t61 -5.5t63 -2q72 0 127 7.5t80 19.5q0 -2 -0.5 -2.5t-0.5 -2.5q0 -22 20 -60.5t51.5 -84.5t70 -95t74.5 -91t66 -73.5t44 -41.5q-15 5 -61.5 10.5t-115.5 5.5q-66 0 -103 -5.5t-57 -10.5q-9 13 -22.5 36t-35 49.5t-53 55t-76.5 53.5
q-50 -25 -84.5 -53.5t-58.5 -55.5t-39 -49.5t-25 -35.5q-14 5 -49.5 10.5t-99.5 5.5q-69 0 -115.5 -5.5t-61.5 -10.5z" />
    <glyph glyph-name="Idieresis" unicode="&#xcf;" horiz-adv-x="1022" 
d="M110 0q6 25 10.5 60.5t4.5 73.5q0 35 -5 68.5t-10 57.5q45 0 83.5 7t67 23.5t45 45t16.5 71.5q0 84 -4.5 144t-13 99t-21.5 59.5t-30 25.5q18 6 31 21.5t21.5 50.5t12.5 93.5t4 150.5q0 40 -18.5 65t-48 39.5t-65.5 19.5t-71 5h-19q5 24 10 55.5t5 66.5q0 37 -4.5 75
t-10.5 63q19 -7 66.5 -13.5t107.5 -11t126 -7.5t123 -3q58 0 119 3t115 8t96 11t62 13q-6 -25 -10.5 -63t-4.5 -75q0 -35 5 -66.5t10 -55.5h-21q-37 0 -68 -5t-54 -19.5t-36 -39.5t-13 -65q0 -92 4 -150.5t12.5 -93.5t21.5 -50.5t31 -21.5q-17 -5 -30 -25.5t-21.5 -59.5
t-13 -99t-4.5 -144q0 -43 14.5 -71.5t41.5 -45t66.5 -23.5t89.5 -7q-5 -24 -10 -57.5t-5 -68.5q0 -38 4.5 -73.5t10.5 -60.5q-29 6 -77.5 10.5t-106 8t-117.5 5t-111 1.5t-111.5 -1.5t-118 -5t-106.5 -8t-77 -10.5zM604 1640q11 25 18.5 70t7.5 114q0 63 -8 112t-19 74
q15 -6 40 -11t55.5 -8.5t64.5 -5.5t69 -2q33 0 66 1.5t63 5t54 8.5t38 12q-11 -26 -17 -74.5t-6 -111.5q0 -118 23 -184q-14 4 -38 8t-54 7.5t-64.5 5.5t-69.5 2q-72 0 -132 -7.5t-91 -15.5zM-26 1640q11 25 18.5 70t7.5 114q0 63 -8 112t-19 74q15 -6 40 -11t55.5 -8.5
t64.5 -5.5t69 -2q33 0 66 1.5t63 5t54 8.5t38 12q-11 -26 -17 -74.5t-6 -111.5q0 -118 23 -184q-14 4 -38 8t-54 7.5t-64.5 5.5t-69.5 2q-72 0 -132 -7.5t-91 -15.5z" />
    <glyph glyph-name="Eth" unicode="&#xd0;" horiz-adv-x="1644" 
d="M100 0q6 25 10.5 60.5t4.5 73.5q0 35 -5 68.5t-10 57.5q45 0 79 7t57 23.5t34.5 45t11.5 71.5v169q0 35 -18 57.5t-72 22.5q-17 0 -37 -2.5t-45 -5.5q5 29 7 63t2 69q0 31 -1 62.5t-8 57.5q49 -6 83 -6q49 0 69 17t20 57v65q0 43 -11.5 71.5t-34.5 45t-57 23.5t-79 7
q5 24 10 57.5t5 68.5q0 38 -4.5 73.5t-10.5 60.5q13 -5 51 -10t89.5 -8.5t111.5 -6.5t118 -5.5t108.5 -3.5t83.5 -1q87 0 167 1.5t146.5 5.5t115 11t72.5 17q2 -21 19.5 -44.5t44.5 -47t61 -45.5t69.5 -39.5t68.5 -28t59 -11.5q-5 -30 -7.5 -61t-2.5 -62q0 -67 10.5 -129.5
t28 -113t40.5 -83.5t49 -40q-27 -6 -50.5 -38t-41 -82.5t-27 -116.5t-9.5 -139q0 -35 2.5 -71t7.5 -72q-26 -1 -58.5 -11t-67 -26.5t-68 -37.5t-60.5 -45t-45.5 -48.5t-22.5 -47.5q-24 7 -72.5 12t-115 8t-146.5 4t-167 1q-33 0 -83.5 -0.5t-108.5 -2t-118 -4t-112 -5
t-89.5 -6t-50.5 -7.5zM686 239q28 -10 56.5 -14.5t72.5 -4.5q66 0 122 30t97 95t64.5 167.5t23.5 246.5q0 221 -74.5 336t-222.5 115q-42 0 -76.5 -5.5t-63.5 -19.5q-3 -21 -5.5 -50.5t-4 -58t-2.5 -52t-1 -33.5q0 -50 29 -74.5t103 -24.5q16 0 30 1.5t30 3.5t35.5 5.5
t46.5 7.5q-7 -26 -8 -61t-1 -72q0 -85 9 -142q-28 3 -48 5.5t-36 4t-30 2.5t-30 1q-38 0 -63 -4.5t-39.5 -14t-20.5 -24t-6 -33.5q0 -32 1 -73t2.5 -86t4 -90t5.5 -84z" />
    <glyph glyph-name="Ntilde" unicode="&#xd1;" horiz-adv-x="1875" 
d="M100 0q6 25 10.5 60.5t4.5 73.5q0 35 -5 68.5t-10 57.5q45 0 79 7t57 23.5t34.5 45t11.5 71.5q0 91 -4.5 152t-13 98.5t-21.5 55t-30 22.5q18 6 31 21.5t21.5 50.5t12.5 93.5t4 150.5q0 40 -13 65t-35 39.5t-51.5 19.5t-63.5 5h-19q5 24 10 55.5t5 66.5q0 37 -4.5 75
t-10.5 63q39 -14 111 -24.5t187 -10.5q75 0 146 8.5t131 19.5q0 -48 20 -109t54 -128t77.5 -136.5t91 -134.5t95 -122.5t89 -100t72.5 -67.5t46 -25h2q1 0 2.5 -0.5t3.5 -0.5q8 30 12.5 76t7 104t3.5 124.5t1 137.5q0 40 -13 65t-35 39.5t-51.5 19.5t-63.5 5h-19
q5 24 10 55.5t5 66.5q0 37 -4.5 75t-10.5 63q19 -7 60 -13t94 -11t112.5 -8t116.5 -3q58 0 117.5 3t112 8t92.5 11t60 13q-6 -25 -10.5 -63t-4.5 -75q0 -35 5 -66.5t10 -55.5h-21q-36 0 -66 -5t-51 -19.5t-32.5 -39.5t-11.5 -65q0 -92 5.5 -152t16 -96t25 -51t32.5 -17
q-17 -9 -30 -28t-21.5 -60t-13 -109t-4.5 -175q0 -72 6 -131.5t14.5 -105t18.5 -77t18 -49.5q-25 8 -56 13t-63 7.5t-62 3.5t-52 1q-24 0 -54 -1t-61.5 -3.5t-63.5 -7.5t-59 -13q0 50 -28.5 119t-75 145t-105 154t-118 147.5t-114.5 125t-94 86.5q-19 -45 -25 -141t-6 -229
q0 -43 9.5 -71.5t31.5 -45t56.5 -23.5t84.5 -7q-5 -24 -10 -57.5t-5 -68.5q0 -38 4.5 -73.5t10.5 -60.5q-29 6 -73 10.5t-96 8t-107 5t-106 1.5t-106.5 -1.5t-107.5 -5t-96.5 -8t-72.5 -10.5zM385 1531q7 10 11.5 28.5t7.5 41.5t4.5 48t1.5 48q0 19 -2.5 42t-6 44t-8.5 35.5
t-11 16.5q71 0 137.5 16.5t117.5 42.5t81.5 56.5t30.5 59.5q69 -2 121 -16.5t92.5 -35t70.5 -44t54 -43.5t45 -33t42 -13q25 0 40 9t23 23t10.5 32t2.5 36q0 24 -6 46.5t-16 38.5q7 -8 23 -13t36 -8t42.5 -4t42.5 -1q25 0 54 2t55 5t45 7.5t24 9.5q-7 -9 -12 -24.5t-8 -36
t-4.5 -43.5t-1.5 -47q0 -19 2.5 -44t6 -48.5t8.5 -40t11 -18.5q-30 3 -59 3q-74 0 -131.5 -18t-96.5 -45t-59.5 -58t-20.5 -57q-69 2 -121 16.5t-92.5 35t-70.5 44t-54 43.5t-45 33t-42 13q-25 0 -39.5 -9.5t-22.5 -24t-10.5 -33t-2.5 -36.5q0 -24 5.5 -46.5t15.5 -38.5
q-7 7 -24.5 12t-39.5 8t-46 4.5t-44 1.5q-24 0 -50.5 -1.5t-50 -4.5t-41.5 -7.5t-25 -9.5z" />
    <glyph glyph-name="Ograve" unicode="&#xd2;" 
d="M98 268q19 26 35 106.5t16 219.5q0 63 -17 96.5t-49 44.5q18 5 31 23t22 44t13 57.5t4 64.5q0 86 -14.5 152.5t-40.5 95.5h8q34 0 75.5 15t84.5 39.5t84 55t73.5 62.5t53 62.5t22.5 53.5q16 -9 49.5 -18.5t80 -18t104 -13.5t120.5 -5t120.5 5t104 13.5t80 18t49.5 18.5
q2 -23 22.5 -53.5t53 -62.5t73.5 -62.5t84 -55t84.5 -39.5t75.5 -15h8q-26 -29 -40.5 -95.5t-14.5 -152.5q0 -33 4 -64.5t13 -57.5t22 -44t31 -23q-32 -11 -49 -44.5t-17 -96.5q0 -139 16 -219.5t35 -106.5q-54 -6 -118 -34t-121.5 -69t-100.5 -89.5t-55 -95.5
q-16 9 -50.5 17t-82 14.5t-106 10t-121.5 3.5t-121.5 -3.5t-106 -10t-82 -14.5t-50.5 -17q-12 47 -55 95.5t-100.5 89.5t-121.5 69t-118 34zM853 220q56 0 104.5 19.5t84 73t56 147t20.5 242.5q0 117 -10.5 200t-29 139.5t-44 90t-55 51t-61.5 22.5t-65 5t-65 -5
t-61.5 -22.5t-55 -51t-44 -90t-29 -139.5t-10.5 -200q0 -149 20.5 -242.5t56 -147t84 -73t104.5 -19.5zM741 1510v5q0 17 -16.5 55.5t-43 88t-61 104t-70 104t-70 88t-60.5 55.5q16 -7 47 -12t69 -8.5t79 -5t79 -1.5q81 0 142.5 7.5t97.5 19.5q-2 -8 -2 -17q0 -24 8.5 -66.5
t21.5 -93t30 -104t34 -99t33 -78.5t27 -42q-7 5 -24.5 9t-41.5 7t-54 4.5t-61 1.5q-66 0 -106.5 -6t-57.5 -16z" />
    <glyph glyph-name="Oacute" unicode="&#xd3;" 
d="M98 268q19 26 35 106.5t16 219.5q0 63 -17 96.5t-49 44.5q18 5 31 23t22 44t13 57.5t4 64.5q0 86 -14.5 152.5t-40.5 95.5h8q34 0 75.5 15t84.5 39.5t84 55t73.5 62.5t53 62.5t22.5 53.5q16 -9 49.5 -18.5t80 -18t104 -13.5t120.5 -5t120.5 5t104 13.5t80 18t49.5 18.5
q2 -23 22.5 -53.5t53 -62.5t73.5 -62.5t84 -55t84.5 -39.5t75.5 -15h8q-26 -29 -40.5 -95.5t-14.5 -152.5q0 -33 4 -64.5t13 -57.5t22 -44t31 -23q-32 -11 -49 -44.5t-17 -96.5q0 -139 16 -219.5t35 -106.5q-54 -6 -118 -34t-121.5 -69t-100.5 -89.5t-55 -95.5
q-16 9 -50.5 17t-82 14.5t-106 10t-121.5 3.5t-121.5 -3.5t-106 -10t-82 -14.5t-50.5 -17q-12 47 -55 95.5t-100.5 89.5t-121.5 69t-118 34zM853 220q56 0 104.5 19.5t84 73t56 147t20.5 242.5q0 117 -10.5 200t-29 139.5t-44 90t-55 51t-61.5 22.5t-65 5t-65 -5
t-61.5 -22.5t-55 -51t-44 -90t-29 -139.5t-10.5 -200q0 -149 20.5 -242.5t56 -147t84 -73t104.5 -19.5zM640 1510q10 10 23 41t26 74.5t25 94.5t21.5 100t15 92t5.5 70q0 19 -3 28q36 -12 97.5 -19.5t142.5 -7.5q37 0 78.5 1.5t79.5 5t68.5 8.5t47.5 12q-27 -17 -58 -55
t-62.5 -87t-61 -103.5t-52 -104t-36 -88.5t-13.5 -56q0 -2 0.5 -3t0.5 -3q-17 10 -57.5 16t-106.5 6q-32 0 -61.5 -1.5t-53.5 -4.5t-41.5 -7t-24.5 -9z" />
    <glyph glyph-name="Ocircumflex" unicode="&#xd4;" 
d="M98 268q19 26 35 106.5t16 219.5q0 63 -17 96.5t-49 44.5q18 5 31 23t22 44t13 57.5t4 64.5q0 86 -14.5 152.5t-40.5 95.5h8q34 0 75.5 15t84.5 39.5t84 55t73.5 62.5t53 62.5t22.5 53.5q16 -9 49.5 -18.5t80 -18t104 -13.5t120.5 -5t120.5 5t104 13.5t80 18t49.5 18.5
q2 -23 22.5 -53.5t53 -62.5t73.5 -62.5t84 -55t84.5 -39.5t75.5 -15h8q-26 -29 -40.5 -95.5t-14.5 -152.5q0 -33 4 -64.5t13 -57.5t22 -44t31 -23q-32 -11 -49 -44.5t-17 -96.5q0 -139 16 -219.5t35 -106.5q-54 -6 -118 -34t-121.5 -69t-100.5 -89.5t-55 -95.5
q-16 9 -50.5 17t-82 14.5t-106 10t-121.5 3.5t-121.5 -3.5t-106 -10t-82 -14.5t-50.5 -17q-12 47 -55 95.5t-100.5 89.5t-121.5 69t-118 34zM853 220q56 0 104.5 19.5t84 73t56 147t20.5 242.5q0 117 -10.5 200t-29 139.5t-44 90t-55 51t-61.5 22.5t-65 5t-65 -5
t-61.5 -22.5t-55 -51t-44 -90t-29 -139.5t-10.5 -200q0 -149 20.5 -242.5t56 -147t84 -73t104.5 -19.5zM325 1559q15 11 44 42t64 73.5t71.5 91.5t66.5 95.5t49 84.5t19 60v4q12 -6 35 -11t52 -8.5t61 -5.5t63 -2q72 0 127 7.5t80 19.5q0 -2 -0.5 -2.5t-0.5 -2.5
q0 -22 20 -60.5t51.5 -84.5t70 -95t74.5 -91t66 -73.5t44 -41.5q-15 5 -61.5 10.5t-115.5 5.5q-66 0 -103 -5.5t-57 -10.5q-9 13 -22.5 36t-35 49.5t-53 55t-76.5 53.5q-50 -25 -84.5 -53.5t-58.5 -55.5t-39 -49.5t-25 -35.5q-14 5 -49.5 10.5t-99.5 5.5q-69 0 -115.5 -5.5
t-61.5 -10.5z" />
    <glyph glyph-name="Otilde" unicode="&#xd5;" 
d="M98 268q19 26 35 106.5t16 219.5q0 63 -17 96.5t-49 44.5q18 5 31 23t22 44t13 57.5t4 64.5q0 86 -14.5 152.5t-40.5 95.5h8q34 0 75.5 15t84.5 39.5t84 55t73.5 62.5t53 62.5t22.5 53.5q16 -9 49.5 -18.5t80 -18t104 -13.5t120.5 -5t120.5 5t104 13.5t80 18t49.5 18.5
q2 -23 22.5 -53.5t53 -62.5t73.5 -62.5t84 -55t84.5 -39.5t75.5 -15h8q-26 -29 -40.5 -95.5t-14.5 -152.5q0 -33 4 -64.5t13 -57.5t22 -44t31 -23q-32 -11 -49 -44.5t-17 -96.5q0 -139 16 -219.5t35 -106.5q-54 -6 -118 -34t-121.5 -69t-100.5 -89.5t-55 -95.5
q-16 9 -50.5 17t-82 14.5t-106 10t-121.5 3.5t-121.5 -3.5t-106 -10t-82 -14.5t-50.5 -17q-12 47 -55 95.5t-100.5 89.5t-121.5 69t-118 34zM853 220q56 0 104.5 19.5t84 73t56 147t20.5 242.5q0 117 -10.5 200t-29 139.5t-44 90t-55 51t-61.5 22.5t-65 5t-65 -5
t-61.5 -22.5t-55 -51t-44 -90t-29 -139.5t-10.5 -200q0 -149 20.5 -242.5t56 -147t84 -73t104.5 -19.5zM271 1531q7 10 11.5 28.5t7.5 41.5t4.5 48t1.5 48q0 19 -2.5 42t-6 44t-8.5 35.5t-11 16.5q71 0 137.5 16.5t117.5 42.5t81.5 56.5t30.5 59.5q69 -2 121 -16.5t92.5 -35
t70.5 -44t54 -43.5t45 -33t42 -13q25 0 40 9t23 23t10.5 32t2.5 36q0 24 -6 46.5t-16 38.5q7 -8 23 -13t36 -8t42.5 -4t42.5 -1q25 0 54 2t55 5t45 7.5t24 9.5q-7 -9 -12 -24.5t-8 -36t-4.5 -43.5t-1.5 -47q0 -19 2.5 -44t6 -48.5t8.5 -40t11 -18.5q-30 3 -59 3
q-74 0 -131.5 -18t-96.5 -45t-59.5 -58t-20.5 -57q-69 2 -121 16.5t-92.5 35t-70.5 44t-54 43.5t-45 33t-42 13q-25 0 -39.5 -9.5t-22.5 -24t-10.5 -33t-2.5 -36.5q0 -24 5.5 -46.5t15.5 -38.5q-7 7 -24.5 12t-39.5 8t-46 4.5t-44 1.5q-24 0 -50.5 -1.5t-50 -4.5t-41.5 -7.5
t-25 -9.5z" />
    <glyph glyph-name="Odieresis" unicode="&#xd6;" 
d="M98 268q19 26 35 106.5t16 219.5q0 63 -17 96.5t-49 44.5q18 5 31 23t22 44t13 57.5t4 64.5q0 86 -14.5 152.5t-40.5 95.5h8q34 0 75.5 15t84.5 39.5t84 55t73.5 62.5t53 62.5t22.5 53.5q16 -9 49.5 -18.5t80 -18t104 -13.5t120.5 -5t120.5 5t104 13.5t80 18t49.5 18.5
q2 -23 22.5 -53.5t53 -62.5t73.5 -62.5t84 -55t84.5 -39.5t75.5 -15h8q-26 -29 -40.5 -95.5t-14.5 -152.5q0 -33 4 -64.5t13 -57.5t22 -44t31 -23q-32 -11 -49 -44.5t-17 -96.5q0 -139 16 -219.5t35 -106.5q-54 -6 -118 -34t-121.5 -69t-100.5 -89.5t-55 -95.5
q-16 9 -50.5 17t-82 14.5t-106 10t-121.5 3.5t-121.5 -3.5t-106 -10t-82 -14.5t-50.5 -17q-12 47 -55 95.5t-100.5 89.5t-121.5 69t-118 34zM853 220q56 0 104.5 19.5t84 73t56 147t20.5 242.5q0 117 -10.5 200t-29 139.5t-44 90t-55 51t-61.5 22.5t-65 5t-65 -5
t-61.5 -22.5t-55 -51t-44 -90t-29 -139.5t-10.5 -200q0 -149 20.5 -242.5t56 -147t84 -73t104.5 -19.5zM945 1640q11 25 18.5 70t7.5 114q0 63 -8 112t-19 74q15 -6 40 -11t55.5 -8.5t64.5 -5.5t69 -2q33 0 66 1.5t63 5t54 8.5t38 12q-11 -26 -17 -74.5t-6 -111.5
q0 -118 23 -184q-14 4 -38 8t-54 7.5t-64.5 5.5t-69.5 2q-72 0 -132 -7.5t-91 -15.5zM315 1640q11 25 18.5 70t7.5 114q0 63 -8 112t-19 74q15 -6 40 -11t55.5 -8.5t64.5 -5.5t69 -2q33 0 66 1.5t63 5t54 8.5t38 12q-11 -26 -17 -74.5t-6 -111.5q0 -118 23 -184q-14 4 -38 8
t-54 7.5t-64.5 5.5t-69.5 2q-72 0 -132 -7.5t-91 -15.5z" />
    <glyph glyph-name="multiply" unicode="&#xd7;" horiz-adv-x="1360" 
d="M295 299q-11 10 -28 25.5t-35.5 31.5t-35.5 29.5t-29 19.5q76 50 150.5 116.5t156.5 165.5q-29 34 -62 68q-35 34 -65 63.5t-59 55t-58.5 48.5t-62.5 45q11 6 28.5 19t36 29t35.5 31.5t28 26.5q40 40 68 74.5t36 51.5q25 -38 53.5 -75.5t62.5 -75t74.5 -76t90.5 -79.5
q97 80 163.5 154.5t117.5 151.5q6 -11 19 -28.5t29 -36t31.5 -36t26.5 -27.5q40 -40 74.5 -68t51.5 -36q-33 -22 -62.5 -45t-58.5 -48.5t-59.5 -55t-64.5 -63.5t-62 -68q41 -50 80 -90.5t76.5 -74.5t74.5 -63t76 -54q-17 -8 -51.5 -36t-74.5 -68q-11 -11 -26.5 -28
t-31.5 -35.5t-29 -36t-19 -28.5q-22 33 -45 62.5t-48.5 58.5t-55 59t-63.5 65q-35 34 -69 63q-35 -29 -69 -63q-35 -35 -64 -65t-54.5 -59.5t-48.5 -58.5t-45 -62q-8 17 -36 51.5t-68 74.5z" />
    <glyph glyph-name="Oslash" unicode="&#xd8;" 
d="M218 -137q17 9 46.5 44t65.5 85t75.5 110t76.5 119t69 112.5t53 90.5l392 709q34 62 66 123.5t56.5 117.5t39.5 103t15 80q0 24 -9 39q16 -11 52 -17t82 -6q40 0 69.5 3t50.5 7t36 8.5t26 6.5q-17 -9 -43 -43t-57.5 -82.5t-66 -106.5t-67 -115.5t-60.5 -110t-48 -88.5
l-392 -709q-36 -65 -74.5 -131.5t-70.5 -126.5t-52.5 -110t-20.5 -82q0 -18 6 -28q-18 11 -59 17t-95 6q-37 0 -63 -3t-44.5 -7t-31.5 -8.5t-23 -6.5zM98 268q19 26 35 106.5t16 219.5q0 63 -17 96.5t-49 44.5q18 5 31 23t22 44t13 57.5t4 64.5q0 86 -14.5 152.5t-40.5 95.5
h8q34 0 75.5 15t84.5 39.5t84 55t73.5 62.5t53 62.5t22.5 53.5q16 -9 49.5 -18.5t80 -18t104 -13.5t120.5 -5t120.5 5t104 13.5t80 18t49.5 18.5q2 -23 22.5 -53.5t53 -62.5t73.5 -62.5t84 -55t84.5 -39.5t75.5 -15h8q-26 -29 -40.5 -95.5t-14.5 -152.5q0 -33 4 -64.5
t13 -57.5t22 -44t31 -23q-32 -11 -49 -44.5t-17 -96.5q0 -139 16 -219.5t35 -106.5q-54 -6 -118 -34t-121.5 -69t-100.5 -89.5t-55 -95.5q-16 9 -50.5 17t-82 14.5t-106 10t-121.5 3.5t-121.5 -3.5t-106 -10t-82 -14.5t-50.5 -17q-12 47 -55 95.5t-100.5 89.5t-121.5 69
t-118 34zM853 220q56 0 104.5 19.5t84 73t56 147t20.5 242.5q0 117 -10.5 200t-29 139.5t-44 90t-55 51t-61.5 22.5t-65 5t-65 -5t-61.5 -22.5t-55 -51t-44 -90t-29 -139.5t-10.5 -200q0 -149 20.5 -242.5t56 -147t84 -73t104.5 -19.5z" />
    <glyph glyph-name="Ugrave" unicode="&#xd9;" horiz-adv-x="1872" 
d="M248 268q7 21 14.5 55.5t13.5 78t9.5 93t3.5 99.5q0 63 -20 96.5t-56 44.5q30 7 46.5 24t24.5 52t9.5 93t1.5 147q0 40 -11.5 65t-32.5 39.5t-51 19.5t-67 5h-20q5 24 10 55.5t5 66.5q0 37 -4.5 75t-10.5 63q19 -7 60 -13t94 -11t112.5 -8t116.5 -3q55 0 116.5 3t116.5 8
t97.5 11t61.5 13q-7 -25 -11 -63t-4 -75q0 -35 5 -66.5t10 -55.5h-18q-33 0 -59.5 -5t-45 -19.5t-29 -39.5t-10.5 -65v-454q0 -116 19 -189t50.5 -115t73.5 -57.5t89 -15.5q46 0 87.5 15.5t72.5 57.5t49 115t18 189v454q0 40 -11.5 65t-31 39.5t-46 19.5t-56.5 5h-17
q5 24 10 55.5t5 66.5q0 37 -4 75t-11 63q19 -7 56 -13.5t84.5 -11t102.5 -7.5t110 -3q58 0 117.5 3t112 8t92.5 11t60 13q-7 -25 -11 -63t-4 -75q0 -35 5 -66.5t10 -55.5h-20q-36 0 -62.5 -5t-44.5 -19.5t-26.5 -39.5t-8.5 -65q0 -89 1.5 -147t9.5 -93t24.5 -52t46.5 -24
q-36 -11 -56 -44.5t-20 -96.5q0 -50 3.5 -99.5t9 -93t13 -78t15.5 -55.5q-34 -4 -73.5 -18t-80 -36t-79 -49.5t-70 -58t-53.5 -63t-29 -63.5q-14 9 -45 17t-73.5 14.5t-94.5 10t-107 3.5q-56 0 -107.5 -3.5t-94 -10t-73.5 -14.5t-45 -17q-11 46 -40 92.5t-76 86t-110.5 68.5
t-143.5 41zM823 1510v5q0 17 -16.5 55.5t-43 88t-61 104t-70 104t-70 88t-60.5 55.5q16 -7 47 -12t69 -8.5t79 -5t79 -1.5q81 0 142.5 7.5t97.5 19.5q-2 -8 -2 -17q0 -24 8.5 -66.5t21.5 -93t30 -104t34 -99t33 -78.5t27 -42q-7 5 -24.5 9t-41.5 7t-54 4.5t-61 1.5
q-66 0 -106.5 -6t-57.5 -16z" />
    <glyph glyph-name="Uacute" unicode="&#xda;" horiz-adv-x="1872" 
d="M248 268q7 21 14.5 55.5t13.5 78t9.5 93t3.5 99.5q0 63 -20 96.5t-56 44.5q30 7 46.5 24t24.5 52t9.5 93t1.5 147q0 40 -11.5 65t-32.5 39.5t-51 19.5t-67 5h-20q5 24 10 55.5t5 66.5q0 37 -4.5 75t-10.5 63q19 -7 60 -13t94 -11t112.5 -8t116.5 -3q55 0 116.5 3t116.5 8
t97.5 11t61.5 13q-7 -25 -11 -63t-4 -75q0 -35 5 -66.5t10 -55.5h-18q-33 0 -59.5 -5t-45 -19.5t-29 -39.5t-10.5 -65v-454q0 -116 19 -189t50.5 -115t73.5 -57.5t89 -15.5q46 0 87.5 15.5t72.5 57.5t49 115t18 189v454q0 40 -11.5 65t-31 39.5t-46 19.5t-56.5 5h-17
q5 24 10 55.5t5 66.5q0 37 -4 75t-11 63q19 -7 56 -13.5t84.5 -11t102.5 -7.5t110 -3q58 0 117.5 3t112 8t92.5 11t60 13q-7 -25 -11 -63t-4 -75q0 -35 5 -66.5t10 -55.5h-20q-36 0 -62.5 -5t-44.5 -19.5t-26.5 -39.5t-8.5 -65q0 -89 1.5 -147t9.5 -93t24.5 -52t46.5 -24
q-36 -11 -56 -44.5t-20 -96.5q0 -50 3.5 -99.5t9 -93t13 -78t15.5 -55.5q-34 -4 -73.5 -18t-80 -36t-79 -49.5t-70 -58t-53.5 -63t-29 -63.5q-14 9 -45 17t-73.5 14.5t-94.5 10t-107 3.5q-56 0 -107.5 -3.5t-94 -10t-73.5 -14.5t-45 -17q-11 46 -40 92.5t-76 86t-110.5 68.5
t-143.5 41zM722 1510q10 10 23 41t26 74.5t25 94.5t21.5 100t15 92t5.5 70q0 19 -3 28q36 -12 97.5 -19.5t142.5 -7.5q37 0 78.5 1.5t79.5 5t68.5 8.5t47.5 12q-27 -17 -58 -55t-62.5 -87t-61 -103.5t-52 -104t-36 -88.5t-13.5 -56q0 -2 0.5 -3t0.5 -3q-17 10 -57.5 16
t-106.5 6q-32 0 -61.5 -1.5t-53.5 -4.5t-41.5 -7t-24.5 -9z" />
    <glyph glyph-name="Ucircumflex" unicode="&#xdb;" horiz-adv-x="1872" 
d="M248 268q7 21 14.5 55.5t13.5 78t9.5 93t3.5 99.5q0 63 -20 96.5t-56 44.5q30 7 46.5 24t24.5 52t9.5 93t1.5 147q0 40 -11.5 65t-32.5 39.5t-51 19.5t-67 5h-20q5 24 10 55.5t5 66.5q0 37 -4.5 75t-10.5 63q19 -7 60 -13t94 -11t112.5 -8t116.5 -3q55 0 116.5 3t116.5 8
t97.5 11t61.5 13q-7 -25 -11 -63t-4 -75q0 -35 5 -66.5t10 -55.5h-18q-33 0 -59.5 -5t-45 -19.5t-29 -39.5t-10.5 -65v-454q0 -116 19 -189t50.5 -115t73.5 -57.5t89 -15.5q46 0 87.5 15.5t72.5 57.5t49 115t18 189v454q0 40 -11.5 65t-31 39.5t-46 19.5t-56.5 5h-17
q5 24 10 55.5t5 66.5q0 37 -4 75t-11 63q19 -7 56 -13.5t84.5 -11t102.5 -7.5t110 -3q58 0 117.5 3t112 8t92.5 11t60 13q-7 -25 -11 -63t-4 -75q0 -35 5 -66.5t10 -55.5h-20q-36 0 -62.5 -5t-44.5 -19.5t-26.5 -39.5t-8.5 -65q0 -89 1.5 -147t9.5 -93t24.5 -52t46.5 -24
q-36 -11 -56 -44.5t-20 -96.5q0 -50 3.5 -99.5t9 -93t13 -78t15.5 -55.5q-34 -4 -73.5 -18t-80 -36t-79 -49.5t-70 -58t-53.5 -63t-29 -63.5q-14 9 -45 17t-73.5 14.5t-94.5 10t-107 3.5q-56 0 -107.5 -3.5t-94 -10t-73.5 -14.5t-45 -17q-11 46 -40 92.5t-76 86t-110.5 68.5
t-143.5 41zM407 1559q15 11 44 42t64 73.5t71.5 91.5t66.5 95.5t49 84.5t19 60v4q12 -6 35 -11t52 -8.5t61 -5.5t63 -2q72 0 127 7.5t80 19.5q0 -2 -0.5 -2.5t-0.5 -2.5q0 -22 20 -60.5t51.5 -84.5t70 -95t74.5 -91t66 -73.5t44 -41.5q-15 5 -61.5 10.5t-115.5 5.5
q-66 0 -103 -5.5t-57 -10.5q-9 13 -22.5 36t-35 49.5t-53 55t-76.5 53.5q-50 -25 -84.5 -53.5t-58.5 -55.5t-39 -49.5t-25 -35.5q-14 5 -49.5 10.5t-99.5 5.5q-69 0 -115.5 -5.5t-61.5 -10.5z" />
    <glyph glyph-name="Udieresis" unicode="&#xdc;" horiz-adv-x="1872" 
d="M248 268q7 21 14.5 55.5t13.5 78t9.5 93t3.5 99.5q0 63 -20 96.5t-56 44.5q30 7 46.5 24t24.5 52t9.5 93t1.5 147q0 40 -11.5 65t-32.5 39.5t-51 19.5t-67 5h-20q5 24 10 55.5t5 66.5q0 37 -4.5 75t-10.5 63q19 -7 60 -13t94 -11t112.5 -8t116.5 -3q55 0 116.5 3t116.5 8
t97.5 11t61.5 13q-7 -25 -11 -63t-4 -75q0 -35 5 -66.5t10 -55.5h-18q-33 0 -59.5 -5t-45 -19.5t-29 -39.5t-10.5 -65v-454q0 -116 19 -189t50.5 -115t73.5 -57.5t89 -15.5q46 0 87.5 15.5t72.5 57.5t49 115t18 189v454q0 40 -11.5 65t-31 39.5t-46 19.5t-56.5 5h-17
q5 24 10 55.5t5 66.5q0 37 -4 75t-11 63q19 -7 56 -13.5t84.5 -11t102.5 -7.5t110 -3q58 0 117.5 3t112 8t92.5 11t60 13q-7 -25 -11 -63t-4 -75q0 -35 5 -66.5t10 -55.5h-20q-36 0 -62.5 -5t-44.5 -19.5t-26.5 -39.5t-8.5 -65q0 -89 1.5 -147t9.5 -93t24.5 -52t46.5 -24
q-36 -11 -56 -44.5t-20 -96.5q0 -50 3.5 -99.5t9 -93t13 -78t15.5 -55.5q-34 -4 -73.5 -18t-80 -36t-79 -49.5t-70 -58t-53.5 -63t-29 -63.5q-14 9 -45 17t-73.5 14.5t-94.5 10t-107 3.5q-56 0 -107.5 -3.5t-94 -10t-73.5 -14.5t-45 -17q-11 46 -40 92.5t-76 86t-110.5 68.5
t-143.5 41zM1027 1640q11 25 18.5 70t7.5 114q0 63 -8 112t-19 74q15 -6 40 -11t55.5 -8.5t64.5 -5.5t69 -2q33 0 66 1.5t63 5t54 8.5t38 12q-11 -26 -17 -74.5t-6 -111.5q0 -118 23 -184q-14 4 -38 8t-54 7.5t-64.5 5.5t-69.5 2q-72 0 -132 -7.5t-91 -15.5zM397 1640
q11 25 18.5 70t7.5 114q0 63 -8 112t-19 74q15 -6 40 -11t55.5 -8.5t64.5 -5.5t69 -2q33 0 66 1.5t63 5t54 8.5t38 12q-11 -26 -17 -74.5t-6 -111.5q0 -118 23 -184q-14 4 -38 8t-54 7.5t-64.5 5.5t-69.5 2q-72 0 -132 -7.5t-91 -15.5z" />
    <glyph glyph-name="Yacute" unicode="&#xdd;" 
d="M479 0q6 25 10.5 60.5t4.5 73.5q0 35 -5 68.5t-10 57.5q45 0 79 7t57 23.5t34.5 45t11.5 71.5q0 50 -15 98t-48 90.5t-85.5 78t-127.5 61.5q14 5 19.5 19.5t5.5 35.5q0 39 -11 78.5t-37 80t-70 83t-111 87.5q-13 9 -35.5 19.5t-48.5 19.5t-52 15.5t-46 6.5q5 24 7.5 55.5
t2.5 67.5q0 39 -2.5 75.5t-7.5 61.5q37 -6 86.5 -12t105.5 -11.5t116.5 -8.5t121.5 -3q62 0 122 2t114.5 6.5t102 11t84.5 15.5q-3 -17 -5.5 -53.5t-2.5 -81.5q0 -18 0.5 -38t1.5 -37.5t2.5 -30.5t3.5 -19q-33 0 -64 -2t-54 -10t-37 -23.5t-14 -43.5q0 -29 27 -69.5
t65 -88.5t80 -100.5t72 -104.5q34 48 78 100t83 101.5t66 92.5t27 74q0 28 -16 43t-41 22t-56 8t-62 1q1 6 2.5 19.5t2.5 30.5t2 36.5t1 38.5q0 45 -2.5 81.5t-5.5 53.5q85 -19 173.5 -27t179.5 -8q94 0 181.5 8t168.5 27q-6 -25 -8 -61.5t-2 -75.5q0 -36 2.5 -67.5
t7.5 -55.5q-14 0 -36.5 -6t-47.5 -16t-50 -23t-44 -27q-51 -37 -92.5 -76.5t-71 -80.5t-46 -81.5t-16.5 -79.5q0 -17 5 -34t17 -21q-66 -10 -116 -44.5t-83 -81.5t-49.5 -100.5t-16.5 -101.5q0 -43 9.5 -71.5t31.5 -45t56.5 -23.5t84.5 -7q-5 -24 -10 -57.5t-5 -68.5
q0 -38 4.5 -73.5t10.5 -60.5q-29 6 -73 10.5t-96 8t-107 5t-106 1.5t-106.5 -1.5t-107.5 -5t-96.5 -8t-72.5 -10.5zM641 1510q10 10 23 41t26 74.5t25 94.5t21.5 100t15 92t5.5 70q0 19 -3 28q36 -12 97.5 -19.5t142.5 -7.5q37 0 78.5 1.5t79.5 5t68.5 8.5t47.5 12
q-27 -17 -58 -55t-62.5 -87t-61 -103.5t-52 -104t-36 -88.5t-13.5 -56q0 -2 0.5 -3t0.5 -3q-17 10 -57.5 16t-106.5 6q-32 0 -61.5 -1.5t-53.5 -4.5t-41.5 -7t-24.5 -9z" />
    <glyph glyph-name="Thorn" unicode="&#xde;" horiz-adv-x="1703" 
d="M100 0q6 25 10.5 60.5t4.5 73.5q0 35 -5 68.5t-10 57.5q45 0 79 7t57 23.5t34.5 45t11.5 71.5q0 84 -4.5 144t-13 99t-21.5 59.5t-30 25.5q18 6 31 21.5t21.5 50.5t12.5 93.5t4 150.5q0 40 -13 65t-35 39.5t-51.5 19.5t-63.5 5h-19q5 24 10 55.5t5 66.5q0 37 -4.5 75
t-10.5 63q19 -7 60 -13t94 -11t112.5 -8t116.5 -3q58 0 117.5 3t112 8t92.5 11t60 13q-6 -25 -10.5 -63t-4.5 -75q0 -35 5 -66.5t10 -55.5q-36 0 -69.5 -2t-60 -7.5t-42.5 -15t-16 -24.5q0 -9 13 -17t44.5 -14t84 -9.5t132.5 -3.5q57 0 124.5 3.5t127.5 8.5t104 10.5
t56 10.5q1 -20 13.5 -42.5t32.5 -45t44.5 -43.5t50 -37.5t49.5 -26.5t42 -11q-7 -11 -12.5 -32.5t-9.5 -48t-6 -55.5t-2 -54q0 -55 6.5 -102.5t23.5 -71.5q-39 -6 -78.5 -26t-74.5 -47t-63 -58t-44 -59q-19 7 -51 13t-71.5 10.5t-82.5 7t-85 2.5q-189 0 -279 -12.5
t-90 -44.5q0 -15 14.5 -29t48 -24.5t89 -16.5t137.5 -6q-5 -24 -10 -57.5t-5 -68.5q0 -38 4.5 -73.5t10.5 -60.5q-29 6 -76 10.5t-102.5 8t-114 5t-109.5 1.5q-54 0 -122 -1.5t-133.5 -5t-121.5 -8t-86 -10.5zM683 604q51 -16 120 -22.5t132 -6.5q59 0 103.5 13t74 35
t44.5 52t15 64q0 33 -13.5 60.5t-42.5 48t-74 31.5t-107 11q-23 0 -55.5 -1.5t-67.5 -5t-69 -10.5t-60 -18q-5 -23 -6 -50t-1 -56q0 -38 2 -75.5t5 -69.5z" />
    <glyph glyph-name="germandbls" unicode="&#xdf;" horiz-adv-x="1533" 
d="M141 0q8 26 11 62t3 71q0 32 -4 64t-10 63q56 0 92.5 5t57.5 17.5t29 35.5t8 59v168q0 32 -4.5 64t-13 58.5t-21.5 44.5t-30 23q30 10 47 42.5t21 92.5q-31 0 -58 -0.5t-52 -3t-49.5 -7t-49.5 -12.5q3 10 5.5 29t5 40.5t3.5 43.5t1 40q0 17 -1 38t-2.5 42t-4.5 41t-7 34
q51 -15 99.5 -19t111.5 -4v70q0 72 -17.5 123t-42.5 84q32 4 69 28t68 57t51.5 69.5t20.5 66.5v5q15 -8 46.5 -14.5t71 -11t81.5 -7t78 -2.5q118 0 205 9t130 26q12 -47 48 -89t82 -73.5t94 -49.5t86 -18q3 0 5.5 0.5t5.5 0.5q-19 -32 -27 -76.5t-8 -101.5q0 -38 2 -83.5
t6.5 -88.5t11 -77.5t15.5 -50.5q-40 -21 -92.5 -59.5t-98.5 -98.5q26 -30 61 -57.5t75 -49.5t84.5 -37t90.5 -21q-7 -8 -13 -28.5t-10.5 -47t-7.5 -56.5t-3 -55q0 -70 11 -118t23 -80q-41 -4 -75.5 -26t-63 -53.5t-49.5 -69t-34 -71.5q-8 7 -30.5 11.5t-49 7.5t-51.5 4.5
t-38 1.5q-75 0 -135 -5.5t-99 -19.5q7 21 11.5 54.5t4.5 65.5q0 28 -1 46.5t-3.5 33t-5.5 28.5t-6 32q40 2 76.5 13t64.5 32.5t44.5 53.5t16.5 76q0 45 -13.5 81.5t-36 65t-51.5 48.5t-60 33.5t-61 19.5t-55 6q6 12 10.5 30t8 37.5t5 38.5t1.5 33q0 78 -25 127q36 2 71 22.5
t62 52.5t44 72t17 81q0 49 -15.5 90t-42.5 70.5t-64.5 46t-82.5 16.5q-29 0 -50.5 -7t-36 -25t-22 -49.5t-7.5 -80.5l-5 -867q0 -36 7.5 -59t21.5 -35.5t34 -17.5t44 -5q-5 -31 -9.5 -63t-4.5 -64q0 -35 3 -71t11 -62q-60 12 -130.5 18.5t-166.5 6.5q-116 0 -204 -6.5
t-164 -18.5z" />
    <glyph glyph-name="agrave" unicode="&#xe0;" horiz-adv-x="1368" 
d="M76 147q13 23 19 53t6 61q0 32 -7 64t-18 52q27 9 48.5 29t37 45t25.5 51t13 48q5 -2 11 -2h13q74 0 179 14t227 37q57 11 94 27t59 36.5t30.5 44.5t8.5 51q0 49 -24.5 75.5t-84.5 26.5q-79 0 -116.5 -39.5t-37.5 -129.5q-33 8 -80 11.5t-104 3.5q-29 0 -58.5 -1
t-57.5 -2.5t-52 -4.5t-41 -7q6 31 10.5 70t4.5 91q0 17 -0.5 31.5t-2 28.5t-4.5 29.5t-8 34.5q42 0 92 8.5t97.5 22.5t86.5 33t60 40q18 -9 35 -15.5t39 -11t51 -6.5t70 -2q94 0 160.5 9.5t95.5 25.5q16 -30 46 -57t65.5 -46.5t72 -31t66.5 -11.5h9q-9 -22 -15 -61
t-10 -87.5t-6 -102.5t-3.5 -106.5t-1.5 -98.5v-78q0 -41 7 -66.5t27.5 -39.5t58 -19t97.5 -5q-4 -12 -7.5 -29.5t-6.5 -37.5t-4.5 -40t-1.5 -37q0 -78 20 -126q-24 11 -78 18t-118 7q-72 0 -127.5 -7t-87.5 -18q-8 55 -30.5 88t-45.5 52q-35 -11 -64 -29.5t-51.5 -40
t-36.5 -43t-18 -37.5q-23 6 -41.5 12t-37.5 11.5t-41 8.5t-52 3q-31 0 -65.5 -3t-68.5 -8.5t-63.5 -11.5t-50.5 -12q-17 28 -42 55.5t-53.5 50t-59 36.5t-58.5 15zM506 333q0 -24 10 -42.5t25.5 -31t34.5 -19t37 -6.5q33 0 67.5 13t63.5 41.5t49 74.5t24 112
q-86 -2 -145.5 -11.5t-96.5 -27t-53 -43.5t-16 -60zM528 1190q0 2 0.5 3.5t0.5 3.5q0 18 -11.5 53.5t-31 80t-45.5 93.5t-53.5 94t-56 81.5t-53.5 55.5q16 -7 45.5 -11.5t65.5 -7.5t75 -4.5t75 -1.5q38 0 77 1.5t73.5 5t63 8t45.5 10.5q-4 -12 -4 -39q0 -29 4 -68.5
t11 -83.5t16.5 -88.5t19.5 -82.5t21 -65.5t21 -37.5q-8 4 -29 7.5t-49.5 6.5t-61.5 4.5t-63 1.5q-63 0 -101.5 -5.5t-54.5 -14.5z" />
    <glyph glyph-name="aacute" unicode="&#xe1;" horiz-adv-x="1368" 
d="M76 147q13 23 19 53t6 61q0 32 -7 64t-18 52q27 9 48.5 29t37 45t25.5 51t13 48q5 -2 11 -2h13q74 0 179 14t227 37q57 11 94 27t59 36.5t30.5 44.5t8.5 51q0 49 -24.5 75.5t-84.5 26.5q-79 0 -116.5 -39.5t-37.5 -129.5q-33 8 -80 11.5t-104 3.5q-29 0 -58.5 -1
t-57.5 -2.5t-52 -4.5t-41 -7q6 31 10.5 70t4.5 91q0 17 -0.5 31.5t-2 28.5t-4.5 29.5t-8 34.5q42 0 92 8.5t97.5 22.5t86.5 33t60 40q18 -9 35 -15.5t39 -11t51 -6.5t70 -2q94 0 160.5 9.5t95.5 25.5q16 -30 46 -57t65.5 -46.5t72 -31t66.5 -11.5h9q-9 -22 -15 -61
t-10 -87.5t-6 -102.5t-3.5 -106.5t-1.5 -98.5v-78q0 -41 7 -66.5t27.5 -39.5t58 -19t97.5 -5q-4 -12 -7.5 -29.5t-6.5 -37.5t-4.5 -40t-1.5 -37q0 -78 20 -126q-24 11 -78 18t-118 7q-72 0 -127.5 -7t-87.5 -18q-8 55 -30.5 88t-45.5 52q-35 -11 -64 -29.5t-51.5 -40
t-36.5 -43t-18 -37.5q-23 6 -41.5 12t-37.5 11.5t-41 8.5t-52 3q-31 0 -65.5 -3t-68.5 -8.5t-63.5 -11.5t-50.5 -12q-17 28 -42 55.5t-53.5 50t-59 36.5t-58.5 15zM506 333q0 -24 10 -42.5t25.5 -31t34.5 -19t37 -6.5q33 0 67.5 13t63.5 41.5t49 74.5t24 112
q-86 -2 -145.5 -11.5t-96.5 -27t-53 -43.5t-16 -60zM528 1190q10 11 21 39.5t21 66.5t19 83t16 89t11 84t4 68q0 23 -3 35q17 -6 45.5 -10.5t63 -8t73.5 -5t77 -1.5q36 0 75 1.5t75 4.5t65.5 7.5t45.5 11.5q-25 -19 -53.5 -55.5t-56 -81.5t-53.5 -94t-45.5 -93.5t-31 -80
t-11.5 -53.5q0 -5 1 -7q-8 4 -26.5 7.5t-43.5 6.5t-55 4.5t-61 1.5q-30 0 -58 -1.5t-51.5 -4.5t-40 -6.5t-23.5 -7.5z" />
    <glyph glyph-name="acircumflex" unicode="&#xe2;" horiz-adv-x="1368" 
d="M76 147q13 23 19 53t6 61q0 32 -7 64t-18 52q27 9 48.5 29t37 45t25.5 51t13 48q5 -2 11 -2h13q74 0 179 14t227 37q57 11 94 27t59 36.5t30.5 44.5t8.5 51q0 49 -24.5 75.5t-84.5 26.5q-79 0 -116.5 -39.5t-37.5 -129.5q-33 8 -80 11.5t-104 3.5q-29 0 -58.5 -1
t-57.5 -2.5t-52 -4.5t-41 -7q6 31 10.5 70t4.5 91q0 17 -0.5 31.5t-2 28.5t-4.5 29.5t-8 34.5q42 0 92 8.5t97.5 22.5t86.5 33t60 40q18 -9 35 -15.5t39 -11t51 -6.5t70 -2q94 0 160.5 9.5t95.5 25.5q16 -30 46 -57t65.5 -46.5t72 -31t66.5 -11.5h9q-9 -22 -15 -61
t-10 -87.5t-6 -102.5t-3.5 -106.5t-1.5 -98.5v-78q0 -41 7 -66.5t27.5 -39.5t58 -19t97.5 -5q-4 -12 -7.5 -29.5t-6.5 -37.5t-4.5 -40t-1.5 -37q0 -78 20 -126q-24 11 -78 18t-118 7q-72 0 -127.5 -7t-87.5 -18q-8 55 -30.5 88t-45.5 52q-35 -11 -64 -29.5t-51.5 -40
t-36.5 -43t-18 -37.5q-23 6 -41.5 12t-37.5 11.5t-41 8.5t-52 3q-31 0 -65.5 -3t-68.5 -8.5t-63.5 -11.5t-50.5 -12q-17 28 -42 55.5t-53.5 50t-59 36.5t-58.5 15zM506 333q0 -24 10 -42.5t25.5 -31t34.5 -19t37 -6.5q33 0 67.5 13t63.5 41.5t49 74.5t24 112
q-86 -2 -145.5 -11.5t-96.5 -27t-53 -43.5t-16 -60zM200 1160q13 12 41 44t63 75t71.5 92.5t67 97t50 87.5t19.5 65v4q10 -6 29.5 -10.5t45 -8t53.5 -5t54 -1.5q61 0 109.5 7t69.5 18v-4q0 -24 20 -64.5t51.5 -87.5t70 -97t74 -93t64.5 -75t42 -44q-14 5 -58.5 10t-107.5 5
q-60 0 -94 -5t-52 -10q-8 16 -22.5 38t-36.5 47.5t-52.5 53t-70.5 53.5q-44 -26 -77.5 -53.5t-57.5 -53t-39.5 -47.5t-24.5 -38q-7 3 -23 5.5t-38 5t-49 3.5t-56 1q-62 0 -92 -4.5t-44 -10.5z" />
    <glyph glyph-name="atilde" unicode="&#xe3;" horiz-adv-x="1368" 
d="M76 147q13 23 19 53t6 61q0 32 -7 64t-18 52q27 9 48.5 29t37 45t25.5 51t13 48q5 -2 11 -2h13q74 0 179 14t227 37q57 11 94 27t59 36.5t30.5 44.5t8.5 51q0 49 -24.5 75.5t-84.5 26.5q-79 0 -116.5 -39.5t-37.5 -129.5q-33 8 -80 11.5t-104 3.5q-29 0 -58.5 -1
t-57.5 -2.5t-52 -4.5t-41 -7q6 31 10.5 70t4.5 91q0 17 -0.5 31.5t-2 28.5t-4.5 29.5t-8 34.5q42 0 92 8.5t97.5 22.5t86.5 33t60 40q18 -9 35 -15.5t39 -11t51 -6.5t70 -2q94 0 160.5 9.5t95.5 25.5q16 -30 46 -57t65.5 -46.5t72 -31t66.5 -11.5h9q-9 -22 -15 -61
t-10 -87.5t-6 -102.5t-3.5 -106.5t-1.5 -98.5v-78q0 -41 7 -66.5t27.5 -39.5t58 -19t97.5 -5q-4 -12 -7.5 -29.5t-6.5 -37.5t-4.5 -40t-1.5 -37q0 -78 20 -126q-24 11 -78 18t-118 7q-72 0 -127.5 -7t-87.5 -18q-8 55 -30.5 88t-45.5 52q-35 -11 -64 -29.5t-51.5 -40
t-36.5 -43t-18 -37.5q-23 6 -41.5 12t-37.5 11.5t-41 8.5t-52 3q-31 0 -65.5 -3t-68.5 -8.5t-63.5 -11.5t-50.5 -12q-17 28 -42 55.5t-53.5 50t-59 36.5t-58.5 15zM506 333q0 -24 10 -42.5t25.5 -31t34.5 -19t37 -6.5q33 0 67.5 13t63.5 41.5t49 74.5t24 112
q-86 -2 -145.5 -11.5t-96.5 -27t-53 -43.5t-16 -60zM115 1161q7 10 11.5 28.5t7.5 41.5t4.5 48t1.5 48q0 19 -2.5 42t-6 44t-8.5 35.5t-11 16.5q71 0 137.5 16.5t117.5 42.5t81.5 56.5t30.5 59.5q69 -3 121 -18t92.5 -35.5t70.5 -43.5t54 -42.5t45 -32.5t42 -13q25 0 40 9.5
t23 24t10.5 33t2.5 36.5q0 24 -6 46.5t-16 38.5q7 -8 23 -13t36 -8t42.5 -4t42.5 -1q25 0 54 2t55 5t45 7.5t24 9.5q-7 -9 -12 -24.5t-8 -36t-4.5 -43.5t-1.5 -47q0 -19 2.5 -44.5t6 -49.5t8.5 -41t11 -19q-30 3 -59 3q-74 0 -131.5 -18t-96.5 -45t-59.5 -58t-20.5 -57
q-69 2 -121 16.5t-92.5 35t-70.5 44t-54 43.5t-45 33t-42 13q-25 0 -39.5 -9.5t-22.5 -24t-10.5 -33t-2.5 -36.5q0 -24 5.5 -46.5t15.5 -38.5q-7 7 -24.5 12t-39.5 8t-46 4.5t-44 1.5q-24 0 -50.5 -1.5t-50 -4.5t-41.5 -7.5t-25 -9.5z" />
    <glyph glyph-name="adieresis" unicode="&#xe4;" horiz-adv-x="1368" 
d="M76 147q13 23 19 53t6 61q0 32 -7 64t-18 52q27 9 48.5 29t37 45t25.5 51t13 48q5 -2 11 -2h13q74 0 179 14t227 37q57 11 94 27t59 36.5t30.5 44.5t8.5 51q0 49 -24.5 75.5t-84.5 26.5q-79 0 -116.5 -39.5t-37.5 -129.5q-33 8 -80 11.5t-104 3.5q-29 0 -58.5 -1
t-57.5 -2.5t-52 -4.5t-41 -7q6 31 10.5 70t4.5 91q0 17 -0.5 31.5t-2 28.5t-4.5 29.5t-8 34.5q42 0 92 8.5t97.5 22.5t86.5 33t60 40q18 -9 35 -15.5t39 -11t51 -6.5t70 -2q94 0 160.5 9.5t95.5 25.5q16 -30 46 -57t65.5 -46.5t72 -31t66.5 -11.5h9q-9 -22 -15 -61
t-10 -87.5t-6 -102.5t-3.5 -106.5t-1.5 -98.5v-78q0 -41 7 -66.5t27.5 -39.5t58 -19t97.5 -5q-4 -12 -7.5 -29.5t-6.5 -37.5t-4.5 -40t-1.5 -37q0 -78 20 -126q-24 11 -78 18t-118 7q-72 0 -127.5 -7t-87.5 -18q-8 55 -30.5 88t-45.5 52q-35 -11 -64 -29.5t-51.5 -40
t-36.5 -43t-18 -37.5q-23 6 -41.5 12t-37.5 11.5t-41 8.5t-52 3q-31 0 -65.5 -3t-68.5 -8.5t-63.5 -11.5t-50.5 -12q-17 28 -42 55.5t-53.5 50t-59 36.5t-58.5 15zM506 333q0 -24 10 -42.5t25.5 -31t34.5 -19t37 -6.5q33 0 67.5 13t63.5 41.5t49 74.5t24 112
q-86 -2 -145.5 -11.5t-96.5 -27t-53 -43.5t-16 -60zM788 1214q11 25 18.5 70t7.5 114q0 63 -8 112t-19 74q15 -6 40 -11t55.5 -8.5t64.5 -5.5t69 -2q33 0 66 1.5t63 5t54 8.5t38 12q-11 -26 -17 -74.5t-6 -111.5q0 -118 23 -184q-14 4 -38 8t-54 7.5t-64.5 5.5t-69.5 2
q-72 0 -132 -7.5t-91 -15.5zM158 1214q11 25 18.5 70t7.5 114q0 63 -8 112t-19 74q15 -6 40 -11t55.5 -8.5t64.5 -5.5t69 -2q33 0 66 1.5t63 5t54 8.5t38 12q-11 -26 -17 -74.5t-6 -111.5q0 -118 23 -184q-14 4 -38 8t-54 7.5t-64.5 5.5t-69.5 2q-72 0 -132 -7.5t-91 -15.5z
" />
    <glyph glyph-name="aring" unicode="&#xe5;" horiz-adv-x="1368" 
d="M76 147q13 23 19 53t6 61q0 32 -7 64t-18 52q27 9 48.5 29t37 45t25.5 51t13 48q5 -2 11 -2h13q74 0 179 14t227 37q57 11 94 27t59 36.5t30.5 44.5t8.5 51q0 49 -24.5 75.5t-84.5 26.5q-79 0 -116.5 -39.5t-37.5 -129.5q-33 8 -80 11.5t-104 3.5q-29 0 -58.5 -1
t-57.5 -2.5t-52 -4.5t-41 -7q6 31 10.5 70t4.5 91q0 17 -0.5 31.5t-2 28.5t-4.5 29.5t-8 34.5q42 0 92 8.5t97.5 22.5t86.5 33t60 40q18 -9 35 -15.5t39 -11t51 -6.5t70 -2q94 0 160.5 9.5t95.5 25.5q16 -30 46 -57t65.5 -46.5t72 -31t66.5 -11.5h9q-9 -22 -15 -61
t-10 -87.5t-6 -102.5t-3.5 -106.5t-1.5 -98.5v-78q0 -41 7 -66.5t27.5 -39.5t58 -19t97.5 -5q-4 -12 -7.5 -29.5t-6.5 -37.5t-4.5 -40t-1.5 -37q0 -78 20 -126q-24 11 -78 18t-118 7q-72 0 -127.5 -7t-87.5 -18q-8 55 -30.5 88t-45.5 52q-35 -11 -64 -29.5t-51.5 -40
t-36.5 -43t-18 -37.5q-23 6 -41.5 12t-37.5 11.5t-41 8.5t-52 3q-31 0 -65.5 -3t-68.5 -8.5t-63.5 -11.5t-50.5 -12q-17 28 -42 55.5t-53.5 50t-59 36.5t-58.5 15zM506 333q0 -24 10 -42.5t25.5 -31t34.5 -19t37 -6.5q33 0 67.5 13t63.5 41.5t49 74.5t24 112
q-86 -2 -145.5 -11.5t-96.5 -27t-53 -43.5t-16 -60zM554 1135q-11 15 -36 29.5t-57.5 26.5t-67 19t-63.5 7q-7 0 -13 -0.5t-11 -1.5q6 8 11 27t9 45t6 56.5t2 61.5q0 66 -9.5 104.5t-18.5 59.5h8q30 0 67.5 12t72.5 30.5t62 40.5t36 41q17 -8 59 -13t94 -5q48 0 85.5 5.5
t51.5 12.5q9 -19 36.5 -41t63 -40.5t73 -30.5t66.5 -12h7q-10 -20 -19 -59t-9 -102q0 -30 1.5 -61t4.5 -57.5t8.5 -46.5t13.5 -28q-5 1 -10.5 1h-11.5q-30 0 -66 -8t-69 -20t-58.5 -26t-32.5 -27q-17 7 -56.5 12.5t-88.5 5.5q-48 0 -86.5 -5.5t-54.5 -12.5zM702 1292
q26 0 49 8t40.5 23t27.5 37t10 49q0 25 -7 48t-22 40t-39.5 27.5t-58.5 10.5q-35 0 -59 -10.5t-39 -27.5t-22 -40t-7 -48q0 -27 10 -49t27 -37t40 -23t50 -8z" />
    <glyph glyph-name="ae" unicode="&#xe6;" horiz-adv-x="2047" 
d="M88 147q13 23 19 53t6 61q0 32 -6 61t-17 49q26 9 47.5 29t37 44.5t25 51t12.5 48.5q5 -2 11 -2h13q74 0 178.5 16t227.5 39q60 11 100 27.5t64.5 37t34.5 45t10 51.5q0 49 -30 75.5t-96 26.5q-79 0 -111.5 -39.5t-32.5 -129.5q-33 8 -85 11.5t-109 3.5q-29 0 -58.5 -1
t-57.5 -2.5t-52 -4.5t-41 -7q6 31 10.5 70t4.5 91q0 17 -0.5 31.5t-2 28.5t-4.5 29.5t-8 34.5q42 0 87.5 8t86.5 22.5t76 33.5t56 40q36 -17 82.5 -26t112.5 -9q70 0 126 9.5t80 25.5q23 -45 61.5 -85.5t80.5 -66.5q42 27 77 67t54 85q45 -19 102 -27t144 -8q39 0 78.5 2.5
t75 7t64 11t44.5 14.5q17 -35 53 -63t78.5 -48t85.5 -31.5t73 -12.5q-15 -34 -25 -102.5t-10 -168.5q0 -69 6.5 -108t14.5 -59q-28 2 -70 4t-91.5 3.5t-102.5 2.5t-102 1q-107 0 -180.5 -0.5t-119 -9.5t-65.5 -30.5t-20 -63.5q0 -47 17.5 -82t48.5 -58.5t74.5 -35.5
t94.5 -12q49 0 76 12t40.5 33t16.5 49t3 60q13 -4 37 -7t52 -4.5t56.5 -2t49.5 -0.5t48 1t54 3t50 4.5t37 6.5q-2 -10 -4.5 -28t-5 -38.5t-4 -41t-1.5 -34.5q0 -49 3.5 -81t11.5 -55h-18q-44 0 -101.5 -7.5t-113.5 -20.5t-103.5 -29.5t-71.5 -35.5q-14 9 -36.5 15.5t-50 11
t-58 6.5t-60.5 2q-73 0 -131 -12t-90 -23q-6 17 -21 37.5t-35 42t-44 42.5t-49 39q-118 -40 -181 -84t-71 -77q-23 6 -44.5 12t-44.5 11.5t-48 8.5t-55 3q-63 0 -119.5 -11.5t-98.5 -23.5q-17 28 -42 55.5t-53.5 50t-59 36.5t-58.5 15zM1410 677q40 0 71 1t52 7.5t32 20
t11 39.5q0 23 -6 45t-23.5 39t-48.5 27.5t-81 10.5q-56 0 -97 -9t-68.5 -31t-42.5 -58.5t-18 -91.5h219zM531 319q0 -24 9 -41t23.5 -27t33 -14.5t36.5 -4.5q85 0 138 61t61 182q-83 -2 -140 -14t-93 -32t-52 -48t-16 -62zM872 197q-11 3 -20 3z" />
    <glyph glyph-name="ccedilla" unicode="&#xe7;" horiz-adv-x="1364" 
d="M92 166q16 17 26.5 55t17 87t9 104t2.5 106q0 50 -3 103t-10 100t-17 84t-25 55q40 4 90 23t96.5 48t84 67.5t53.5 81.5q13 -7 35.5 -13t51 -11t62 -8t68.5 -3q43 0 84 4t76 11t62.5 17.5t42.5 22.5q14 -19 38 -34.5t55 -27t67 -17.5t74 -6q53 0 79 4.5t41 8.5
q-12 -32 -18.5 -87t-6.5 -111q0 -30 1.5 -60.5t5 -57.5t8 -48.5t10.5 -33.5q-25 12 -66 17.5t-98 5.5t-101 -5.5t-74 -17.5q-8 106 -47 159.5t-122 53.5q-41 0 -77 -13t-62.5 -47.5t-42 -93.5t-15.5 -151q0 -104 14.5 -167.5t39 -99t58.5 -47.5t73 -12q52 0 87 18.5t56 48.5
t31 69.5t13 81.5q35 -13 81.5 -17.5t94.5 -4.5q43 0 83.5 4.5t73.5 17.5q-5 -15 -9 -36.5t-6.5 -44t-3.5 -44.5t-1 -39q0 -31 1.5 -54.5t4.5 -42.5t6.5 -35t7.5 -31q-8 1 -16 1.5t-16 0.5q-42 0 -89.5 -10t-93 -26t-86 -36.5t-67.5 -42.5q-29 12 -77.5 23.5t-105.5 11.5
q-36 0 -73 -3t-70 -8.5t-61 -11.5t-47 -12q-4 17 -23.5 37t-49 39.5t-65.5 37.5t-73 32t-72.5 22t-63.5 8h-11z" />
    <glyph glyph-name="egrave" unicode="&#xe8;" horiz-adv-x="1366" 
d="M109 166q20 24 31 67t16.5 93.5t7 101.5t1.5 90q0 41 -3 93t-9.5 101.5t-17 89.5t-25.5 58q44 0 97 22.5t100.5 56t82.5 71.5t44 70q55 -19 130 -27t186 -8q78 0 129 9t83 26q17 -35 56.5 -63t86 -48t93 -31.5t76.5 -12.5q-8 -17 -14.5 -37t-11 -47t-7 -63.5t-2.5 -85.5
q0 -34 1.5 -66t4.5 -59t6.5 -47.5t7.5 -30.5q-25 2 -67 3.5t-92 3t-104.5 2t-103.5 0.5q-58 0 -115.5 -0.5t-118.5 -0.5q-51 0 -81 -9t-45.5 -24.5t-20 -37.5t-4.5 -48q0 -39 19 -71t52 -54.5t78 -35t96 -12.5q42 0 67 12.5t38.5 33.5t17.5 49t4 60q12 -4 36 -7t52 -4.5
t56.5 -2.5t49.5 -1t48 1t53.5 2.5t49.5 4.5t37 7q-2 -11 -4.5 -29.5t-4 -39.5t-2.5 -42t-1 -35q0 -49 3.5 -78.5t11.5 -52.5h-18q-41 0 -84 -7.5t-83 -20t-75 -29.5t-60 -36q-14 9 -38.5 15.5t-54 11t-62 6.5t-62.5 2q-36 0 -75 -3t-74.5 -8.5t-64.5 -11.5t-45 -12
q-9 26 -46.5 57t-87.5 57.5t-106 44.5t-102 18q-5 0 -9 -0.5t-8 -0.5zM774 678q40 0 63.5 3t36 12t16 24.5t3.5 41.5q0 48 -41 78t-128 30q-54 0 -93 -9t-65.5 -31t-40.5 -58t-17 -91h266zM534 1190q0 2 0.5 3.5t0.5 3.5q0 18 -11.5 53.5t-31 80t-45.5 93.5t-53.5 94
t-56 81.5t-53.5 55.5q16 -7 45.5 -11.5t65.5 -7.5t75 -4.5t75 -1.5q38 0 77 1.5t73.5 5t63 8t45.5 10.5q-4 -12 -4 -39q0 -29 4 -68.5t11 -83.5t16.5 -88.5t19.5 -82.5t21 -65.5t21 -37.5q-8 4 -29 7.5t-49.5 6.5t-61.5 4.5t-63 1.5q-63 0 -101.5 -5.5t-54.5 -14.5z" />
    <glyph glyph-name="eacute" unicode="&#xe9;" horiz-adv-x="1366" 
d="M109 166q20 24 31 67t16.5 93.5t7 101.5t1.5 90q0 41 -3 93t-9.5 101.5t-17 89.5t-25.5 58q44 0 97 22.5t100.5 56t82.5 71.5t44 70q55 -19 130 -27t186 -8q78 0 129 9t83 26q17 -35 56.5 -63t86 -48t93 -31.5t76.5 -12.5q-8 -17 -14.5 -37t-11 -47t-7 -63.5t-2.5 -85.5
q0 -34 1.5 -66t4.5 -59t6.5 -47.5t7.5 -30.5q-25 2 -67 3.5t-92 3t-104.5 2t-103.5 0.5q-58 0 -115.5 -0.5t-118.5 -0.5q-51 0 -81 -9t-45.5 -24.5t-20 -37.5t-4.5 -48q0 -39 19 -71t52 -54.5t78 -35t96 -12.5q42 0 67 12.5t38.5 33.5t17.5 49t4 60q12 -4 36 -7t52 -4.5
t56.5 -2.5t49.5 -1t48 1t53.5 2.5t49.5 4.5t37 7q-2 -11 -4.5 -29.5t-4 -39.5t-2.5 -42t-1 -35q0 -49 3.5 -78.5t11.5 -52.5h-18q-41 0 -84 -7.5t-83 -20t-75 -29.5t-60 -36q-14 9 -38.5 15.5t-54 11t-62 6.5t-62.5 2q-36 0 -75 -3t-74.5 -8.5t-64.5 -11.5t-45 -12
q-9 26 -46.5 57t-87.5 57.5t-106 44.5t-102 18q-5 0 -9 -0.5t-8 -0.5zM774 678q40 0 63.5 3t36 12t16 24.5t3.5 41.5q0 48 -41 78t-128 30q-54 0 -93 -9t-65.5 -31t-40.5 -58t-17 -91h266zM534 1190q10 11 21 39.5t21 66.5t19 83t16 89t11 84t4 68q0 23 -3 35
q17 -6 45.5 -10.5t63 -8t73.5 -5t77 -1.5q36 0 75 1.5t75 4.5t65.5 7.5t45.5 11.5q-25 -19 -53.5 -55.5t-56 -81.5t-53.5 -94t-45.5 -93.5t-31 -80t-11.5 -53.5q0 -5 1 -7q-8 4 -26.5 7.5t-43.5 6.5t-55 4.5t-61 1.5q-30 0 -58 -1.5t-51.5 -4.5t-40 -6.5t-23.5 -7.5z" />
    <glyph glyph-name="ecircumflex" unicode="&#xea;" horiz-adv-x="1366" 
d="M109 166q20 24 31 67t16.5 93.5t7 101.5t1.5 90q0 41 -3 93t-9.5 101.5t-17 89.5t-25.5 58q44 0 97 22.5t100.5 56t82.5 71.5t44 70q55 -19 130 -27t186 -8q78 0 129 9t83 26q17 -35 56.5 -63t86 -48t93 -31.5t76.5 -12.5q-8 -17 -14.5 -37t-11 -47t-7 -63.5t-2.5 -85.5
q0 -34 1.5 -66t4.5 -59t6.5 -47.5t7.5 -30.5q-25 2 -67 3.5t-92 3t-104.5 2t-103.5 0.5q-58 0 -115.5 -0.5t-118.5 -0.5q-51 0 -81 -9t-45.5 -24.5t-20 -37.5t-4.5 -48q0 -39 19 -71t52 -54.5t78 -35t96 -12.5q42 0 67 12.5t38.5 33.5t17.5 49t4 60q12 -4 36 -7t52 -4.5
t56.5 -2.5t49.5 -1t48 1t53.5 2.5t49.5 4.5t37 7q-2 -11 -4.5 -29.5t-4 -39.5t-2.5 -42t-1 -35q0 -49 3.5 -78.5t11.5 -52.5h-18q-41 0 -84 -7.5t-83 -20t-75 -29.5t-60 -36q-14 9 -38.5 15.5t-54 11t-62 6.5t-62.5 2q-36 0 -75 -3t-74.5 -8.5t-64.5 -11.5t-45 -12
q-9 26 -46.5 57t-87.5 57.5t-106 44.5t-102 18q-5 0 -9 -0.5t-8 -0.5zM774 678q40 0 63.5 3t36 12t16 24.5t3.5 41.5q0 48 -41 78t-128 30q-54 0 -93 -9t-65.5 -31t-40.5 -58t-17 -91h266zM206 1160q13 12 41 44t63 75t71.5 92.5t67 97t50 87.5t19.5 65v4q10 -6 29.5 -10.5
t45 -8t53.5 -5t54 -1.5q61 0 109.5 7t69.5 18v-4q0 -24 20 -64.5t51.5 -87.5t70 -97t74 -93t64.5 -75t42 -44q-14 5 -58.5 10t-107.5 5q-60 0 -94 -5t-52 -10q-8 16 -22.5 38t-36.5 47.5t-52.5 53t-70.5 53.5q-44 -26 -77.5 -53.5t-57.5 -53t-39.5 -47.5t-24.5 -38
q-7 3 -23 5.5t-38 5t-49 3.5t-56 1q-62 0 -92 -4.5t-44 -10.5z" />
    <glyph glyph-name="edieresis" unicode="&#xeb;" horiz-adv-x="1366" 
d="M109 166q20 24 31 67t16.5 93.5t7 101.5t1.5 90q0 41 -3 93t-9.5 101.5t-17 89.5t-25.5 58q44 0 97 22.5t100.5 56t82.5 71.5t44 70q55 -19 130 -27t186 -8q78 0 129 9t83 26q17 -35 56.5 -63t86 -48t93 -31.5t76.5 -12.5q-8 -17 -14.5 -37t-11 -47t-7 -63.5t-2.5 -85.5
q0 -34 1.5 -66t4.5 -59t6.5 -47.5t7.5 -30.5q-25 2 -67 3.5t-92 3t-104.5 2t-103.5 0.5q-58 0 -115.5 -0.5t-118.5 -0.5q-51 0 -81 -9t-45.5 -24.5t-20 -37.5t-4.5 -48q0 -39 19 -71t52 -54.5t78 -35t96 -12.5q42 0 67 12.5t38.5 33.5t17.5 49t4 60q12 -4 36 -7t52 -4.5
t56.5 -2.5t49.5 -1t48 1t53.5 2.5t49.5 4.5t37 7q-2 -11 -4.5 -29.5t-4 -39.5t-2.5 -42t-1 -35q0 -49 3.5 -78.5t11.5 -52.5h-18q-41 0 -84 -7.5t-83 -20t-75 -29.5t-60 -36q-14 9 -38.5 15.5t-54 11t-62 6.5t-62.5 2q-36 0 -75 -3t-74.5 -8.5t-64.5 -11.5t-45 -12
q-9 26 -46.5 57t-87.5 57.5t-106 44.5t-102 18q-5 0 -9 -0.5t-8 -0.5zM774 678q40 0 63.5 3t36 12t16 24.5t3.5 41.5q0 48 -41 78t-128 30q-54 0 -93 -9t-65.5 -31t-40.5 -58t-17 -91h266zM794 1214q11 25 18.5 70t7.5 114q0 63 -8 112t-19 74q15 -6 40 -11t55.5 -8.5
t64.5 -5.5t69 -2q33 0 66 1.5t63 5t54 8.5t38 12q-11 -26 -17 -74.5t-6 -111.5q0 -118 23 -184q-14 4 -38 8t-54 7.5t-64.5 5.5t-69.5 2q-72 0 -132 -7.5t-91 -15.5zM164 1214q11 25 18.5 70t7.5 114q0 63 -8 112t-19 74q15 -6 40 -11t55.5 -8.5t64.5 -5.5t69 -2
q33 0 66 1.5t63 5t54 8.5t38 12q-11 -26 -17 -74.5t-6 -111.5q0 -118 23 -184q-14 4 -38 8t-54 7.5t-64.5 5.5t-69.5 2q-72 0 -132 -7.5t-91 -15.5z" />
    <glyph glyph-name="igrave" unicode="&#xec;" horiz-adv-x="853" 
d="M87 0q8 26 11 62t3 71q0 32 -4 64t-10 63q56 0 98.5 5t71 17.5t43 35.5t14.5 59v278q-1 43 -15.5 68.5t-38.5 39t-55.5 18t-66.5 4.5h-32q8 20 14 55.5t6 74.5q0 38 -5.5 73.5t-14.5 56.5q85 -4 158.5 -6t138.5 -2q121 0 209 9.5t151 33.5q-20 -39 -35 -74.5t-25.5 -75
t-16 -86.5t-5.5 -108l-1 -359q0 -36 18.5 -59t49.5 -35.5t71 -17.5t83 -5q-6 -21 -9.5 -52t-3.5 -66q0 -38 2.5 -76.5t10.5 -65.5q-27 5 -77 9.5t-109.5 8t-123 5.5t-117.5 2q-48 0 -104.5 -1.5t-111 -5t-100.5 -8t-72 -10.5zM258 1190q0 2 0.5 3.5t0.5 3.5q0 18 -11.5 53.5
t-31 80t-45.5 93.5t-53.5 94t-56 81.5t-53.5 55.5q16 -7 45.5 -11.5t65.5 -7.5t75 -4.5t75 -1.5q38 0 77 1.5t73.5 5t63 8t45.5 10.5q-4 -12 -4 -39q0 -29 4 -68.5t11 -83.5t16.5 -88.5t19.5 -82.5t21 -65.5t21 -37.5q-8 4 -29 7.5t-49.5 6.5t-61.5 4.5t-63 1.5
q-63 0 -101.5 -5.5t-54.5 -14.5z" />
    <glyph glyph-name="iacute" unicode="&#xed;" horiz-adv-x="853" 
d="M87 0q8 26 11 62t3 71q0 32 -4 64t-10 63q56 0 98.5 5t71 17.5t43 35.5t14.5 59v278q-1 43 -15.5 68.5t-38.5 39t-55.5 18t-66.5 4.5h-32q8 20 14 55.5t6 74.5q0 38 -5.5 73.5t-14.5 56.5q85 -4 158.5 -6t138.5 -2q121 0 209 9.5t151 33.5q-20 -39 -35 -74.5t-25.5 -75
t-16 -86.5t-5.5 -108l-1 -359q0 -36 18.5 -59t49.5 -35.5t71 -17.5t83 -5q-6 -21 -9.5 -52t-3.5 -66q0 -38 2.5 -76.5t10.5 -65.5q-27 5 -77 9.5t-109.5 8t-123 5.5t-117.5 2q-48 0 -104.5 -1.5t-111 -5t-100.5 -8t-72 -10.5zM258 1190q10 11 21 39.5t21 66.5t19 83t16 89
t11 84t4 68q0 23 -3 35q17 -6 45.5 -10.5t63 -8t73.5 -5t77 -1.5q36 0 75 1.5t75 4.5t65.5 7.5t45.5 11.5q-25 -19 -53.5 -55.5t-56 -81.5t-53.5 -94t-45.5 -93.5t-31 -80t-11.5 -53.5q0 -5 1 -7q-8 4 -26.5 7.5t-43.5 6.5t-55 4.5t-61 1.5q-30 0 -58 -1.5t-51.5 -4.5
t-40 -6.5t-23.5 -7.5z" />
    <glyph glyph-name="icircumflex" unicode="&#xee;" horiz-adv-x="853" 
d="M87 0q8 26 11 62t3 71q0 32 -4 64t-10 63q56 0 98.5 5t71 17.5t43 35.5t14.5 59v278q-1 43 -15.5 68.5t-38.5 39t-55.5 18t-66.5 4.5h-32q8 20 14 55.5t6 74.5q0 38 -5.5 73.5t-14.5 56.5q85 -4 158.5 -6t138.5 -2q121 0 209 9.5t151 33.5q-20 -39 -35 -74.5t-25.5 -75
t-16 -86.5t-5.5 -108l-1 -359q0 -36 18.5 -59t49.5 -35.5t71 -17.5t83 -5q-6 -21 -9.5 -52t-3.5 -66q0 -38 2.5 -76.5t10.5 -65.5q-27 5 -77 9.5t-109.5 8t-123 5.5t-117.5 2q-48 0 -104.5 -1.5t-111 -5t-100.5 -8t-72 -10.5zM-70 1160q13 12 41 44t63 75t71.5 92.5t67 97
t50 87.5t19.5 65v4q10 -6 29.5 -10.5t45 -8t53.5 -5t54 -1.5q61 0 109.5 7t69.5 18v-4q0 -24 20 -64.5t51.5 -87.5t70 -97t74 -93t64.5 -75t42 -44q-14 5 -58.5 10t-107.5 5q-60 0 -94 -5t-52 -10q-8 16 -22.5 38t-36.5 47.5t-52.5 53t-70.5 53.5q-44 -26 -77.5 -53.5
t-57.5 -53t-39.5 -47.5t-24.5 -38q-7 3 -23 5.5t-38 5t-49 3.5t-56 1q-62 0 -92 -4.5t-44 -10.5z" />
    <glyph glyph-name="idieresis" unicode="&#xef;" horiz-adv-x="853" 
d="M87 0q8 26 11 62t3 71q0 32 -4 64t-10 63q56 0 98.5 5t71 17.5t43 35.5t14.5 59v278q-1 43 -15.5 68.5t-38.5 39t-55.5 18t-66.5 4.5h-32q8 20 14 55.5t6 74.5q0 38 -5.5 73.5t-14.5 56.5q85 -4 158.5 -6t138.5 -2q121 0 209 9.5t151 33.5q-20 -39 -35 -74.5t-25.5 -75
t-16 -86.5t-5.5 -108l-1 -359q0 -36 18.5 -59t49.5 -35.5t71 -17.5t83 -5q-6 -21 -9.5 -52t-3.5 -66q0 -38 2.5 -76.5t10.5 -65.5q-27 5 -77 9.5t-109.5 8t-123 5.5t-117.5 2q-48 0 -104.5 -1.5t-111 -5t-100.5 -8t-72 -10.5zM518 1214q11 25 18.5 70t7.5 114q0 63 -8 112
t-19 74q15 -6 40 -11t55.5 -8.5t64.5 -5.5t69 -2q33 0 66 1.5t63 5t54 8.5t38 12q-11 -26 -17 -74.5t-6 -111.5q0 -118 23 -184q-14 4 -38 8t-54 7.5t-64.5 5.5t-69.5 2q-72 0 -132 -7.5t-91 -15.5zM-112 1214q11 25 18.5 70t7.5 114q0 63 -8 112t-19 74q15 -6 40 -11
t55.5 -8.5t64.5 -5.5t69 -2q33 0 66 1.5t63 5t54 8.5t38 12q-11 -26 -17 -74.5t-6 -111.5q0 -118 23 -184q-14 4 -38 8t-54 7.5t-64.5 5.5t-69.5 2q-72 0 -132 -7.5t-91 -15.5z" />
    <glyph glyph-name="eth" unicode="&#xf0;" horiz-adv-x="1529" 
d="M127 230q16 48 25.5 116.5t9.5 170.5q0 50 -3 99.5t-8.5 92t-11.5 75.5t-12 49q18 0 44 7t54.5 20.5t58 31.5t54 40.5t42.5 48t24 53.5q20 -7 74 -12.5t129 -5.5q81 0 139.5 5.5t87.5 19.5q8 -15 25 -30.5t39 -29t45.5 -23.5t44.5 -14q1 6 1 11.5v11.5q0 35 -9.5 75.5
t-24 75t-31.5 57t-31 22.5q-12 0 -39.5 -16t-57.5 -38t-56.5 -44.5t-36.5 -34.5q-18 32 -47 70t-71 65q12 5 37 19t53 32t52.5 37t36.5 35q-9 14 -38.5 19.5t-68.5 5.5q-58 0 -123 -7t-115 -21q8 24 13 64t5 86q0 21 -2 43t-5.5 43t-8.5 39.5t-10 30.5q61 -14 117 -19.5
t124 -5.5q27 0 56 1.5t57 4.5t53 7.5t44 11.5q4 -21 14.5 -43.5t25.5 -43t33.5 -37.5t39.5 -26q25 18 56 43t58.5 51t47 49.5t21.5 38.5q36 -58 74 -102t68 -56q-16 -6 -43 -22.5t-56 -37t-56.5 -42.5t-44.5 -39q17 -20 42 -41t50.5 -38t49.5 -28t39 -12q-16 -70 -16 -142
q0 -112 37.5 -206t107.5 -157q-17 -3 -30.5 -20t-23 -43t-14.5 -60t-5 -70q0 -57 3.5 -112t9.5 -100.5t13 -77.5t14 -43q-72 -6 -136 -32.5t-114 -60.5t-82.5 -68.5t-40.5 -56.5q-14 8 -42 16t-64.5 14.5t-78.5 10.5t-84 4t-83 -5t-76 -11.5t-61.5 -14.5t-39.5 -14
q-12 30 -49.5 69t-87.5 74.5t-106 62.5t-105 34zM771 1335q2 6 2 7zM558 510q0 -99 14.5 -157t41.5 -87.5t64 -37.5t82 -8t82 16t64 55t41.5 104.5t14.5 164.5q0 93 -14.5 146t-41.5 79.5t-64 32.5t-82 6t-82 -14t-64 -49.5t-41.5 -96.5t-14.5 -154z" />
    </font>
</defs>
</svg>
